/* XPM */
static char *result[] = {
/* columns rows colors chars-per-pixel */
"48 59 244 2 ",
"   c #020302",
".  c #0D0100",
"X  c #010B01",
"o  c #02030A",
"O  c #0B020B",
"+  c #130100",
"@  c #1C0100",
"#  c #120009",
"$  c #031400",
"%  c #020213",
"&  c #0A0414",
"*  c #190219",
"=  c #121315",
"-  c #230001",
";  c #2A0700",
":  c #36320B",
">  c #0E0021",
",  c #000926",
"<  c #000234",
"1  c #0B0B26",
"2  c #3D1F29",
"3  c #3E2929",
"4  c #283C2C",
"5  c #3C352D",
"6  c #37392A",
"7  c #392D39",
"8  c #2C383A",
"9  c #393537",
"0  c #2C2E3A",
"q  c #601C13",
"w  c #48260B",
"e  c #572902",
"r  c #492819",
"t  c #56381B",
"y  c #4F360B",
"u  c #672903",
"i  c #6F310B",
"p  c #5A1E2A",
"a  c #581E32",
"s  c #4B193C",
"d  c #641E3A",
"f  c #462A27",
"g  c #5A272A",
"h  c #453426",
"j  c #43362B",
"k  c #47392B",
"l  c #593629",
"z  c #4A2B33",
"x  c #462E3D",
"c  c #482A33",
"v  c #5A2A37",
"b  c #463836",
"n  c #543838",
"m  c #642638",
"M  c #7A3638",
"N  c #6E2C2B",
"B  c #2F4517",
"V  c #2A4435",
"C  c #384938",
"Z  c #314C2B",
"A  c #15423B",
"S  c #41410D",
"D  c #474713",
"F  c #7A5716",
"G  c #755111",
"H  c #716010",
"J  c #6C611F",
"K  c #464539",
"L  c #504A3A",
"P  c #7B4A28",
"I  c #785927",
"U  c #735C34",
"Y  c #724E33",
"T  c #6D6220",
"R  c #3F2E4C",
"E  c #3D2F40",
"W  c #2A3D4C",
"Q  c #3A3E4B",
"!  c #363646",
"~  c #2E3C59",
"^  c #4A2D46",
"/  c #41314C",
"(  c #443947",
")  c #543A45",
"_  c #463455",
"`  c #532B4D",
"'  c #723C45",
"]  c #653459",
"[  c #6B3241",
"{  c #6E3E64",
"}  c #1C4942",
"|  c #294546",
" . c #3A4548",
".. c #264753",
"X. c #345054",
"o. c #38766B",
"O. c #364461",
"+. c #564647",
"@. c #594A52",
"#. c #47464C",
"$. c #684A47",
"%. c #7B5842",
"&. c #665458",
"*. c #754D4D",
"=. c #695964",
"-. c #76466C",
";. c #8C2A38",
":. c #BC3A25",
">. c #A53637",
",. c #8A1F33",
"<. c #C13A36",
"1. c #874C07",
"2. c #8B5314",
"3. c #895718",
"4. c #905117",
"5. c #A9431D",
"6. c #85601A",
"7. c #854C21",
"8. c #944D21",
"9. c #85532C",
"0. c #8A5126",
"q. c #834E3D",
"w. c #894B3A",
"e. c #875538",
"r. c #955122",
"t. c #A94C3B",
"y. c #B7493A",
"u. c #A95537",
"i. c #B3523C",
"p. c #B35339",
"a. c #C3493D",
"s. c #C8452B",
"d. c #B43E46",
"f. c #AB3941",
"g. c #854948",
"h. c #8B5641",
"j. c #965456",
"k. c #9B4D4A",
"l. c #A94A47",
"z. c #B74747",
"x. c #AB5547",
"c. c #B75447",
"v. c #AE4D59",
"b. c #A94B55",
"n. c #B84C54",
"m. c #A35354",
"M. c #AC5455",
"N. c #B45353",
"B. c #B55458",
"V. c #97644F",
"C. c #B84763",
"Z. c #B35866",
"A. c #A26062",
"S. c #A56154",
"D. c #C14C4D",
"F. c #CB4843",
"G. c #C3524A",
"H. c #C35454",
"J. c #CA4D4D",
"K. c #D76C5C",
"L. c #CD745B",
"P. c #DA7A5A",
"I. c #D67757",
"U. c #DF6745",
"Y. c #E76A48",
"T. c #EA7448",
"R. c #EB6750",
"E. c #F26D53",
"W. c #F56B59",
"Q. c #FA6559",
"!. c #E67456",
"~. c #EB7153",
"^. c #E97159",
"/. c #E1745D",
"(. c #F47658",
"). c #D96B66",
"_. c #DC7661",
"`. c #DC746B",
"'. c #D77868",
"]. c #CB797B",
"[. c #D57670",
"{. c #DE7572",
"}. c #CF7264",
"|. c #ED6D64",
" X c #EB6C6B",
".X c #E46C6A",
"XX c #F66964",
"oX c #F6676B",
"OX c #F16A6B",
"+X c #F76665",
"@X c #E27362",
"#X c #E3726B",
"$X c #EA776C",
"%X c #FE7261",
"&X c #E17275",
"*X c #E77976",
"=X c #AB9B00",
"-X c #BA9901",
";X c #B09518",
":X c #A6A41B",
">X c #B3A702",
",X c #ABA822",
"<X c #B5B428",
"1X c #C88D00",
"2X c #C79A04",
"3X c #D49804",
"4X c #C79715",
"5X c #C18F1A",
"6X c #E38A00",
"7X c #C5A703",
"8X c #D5A40E",
"9X c #CA9724",
"0X c #D9A535",
"qX c #AE935C",
"wX c #B6B968",
"eX c #B6AA69",
"rX c #B59A63",
"tX c #EB9854",
"yX c #DB987A",
"uX c #D98D6B",
"iX c #EF8277",
"pX c #CDA778",
"aX c #F7A460",
"sX c #336794",
"dX c #3F5785",
"fX c #486794",
"gX c #D88782",
"hX c #D89B8A",
"jX c #D09C91",
"kX c #E79288",
"lX c #D7A194",
"zX c #D0B685",
"xX c #FFBEB5",
"cX c #F1AB94",
"vX c #EBD2B7",
"bX c #F5CAB9",
"nX c #FECBC8",
"mX c #F7D6C9",
"MX c #E9FDFA",
"NX c #FFFDFF",
"BX c #F4FCFB",
"VX c #FFF1F4",
"CX c #FFEEDA",
"ZX c None",
/* pixels */
"ZXZXZXZXZXZXZXZXZXZXZXZXZXZXZXZXZXZXZXZXZXZXZXZXZXZXZXZXZXZXZXZXZXZXZXZXZXZXZXZXZXZXZXZXZXZXZXZX",
"ZXZXZXZXZXZXZXZXZXZXZXZXZXZXZXZXZXZXZXZXZXZXZXZXZXZXZXZXZXZXZXZXZXZXZXZXZXZXZXZXZXZXZXZXZXZXZXZX",
"ZXZXZXZXZXZXZXZXZXZXZXZXZXZXZXZXZXZXZXZXZXZXZXZXZXZXZXZXZXZXZXZXZXZXZXZXZXZXZXZXZXZXZXZXZXZXZXZX",
"ZXZXZXZXZXZXZXZXZXZXZXZXZXZXZXZXZXZXZXZXZXZXZXZXZXZXZXZXZXZXZXZXZXZXZXZXZXZXZXZXZXZXZXZXZXZXZXZX",
"ZXZXZXZXZXZXZXZXZXZXZXZXZXZXZXZXZXZXZXZXZXZXZXZXZXZXZXZXZXZXZXZXZXZXZXZXZXZXZXZXZXZXZXZXZXZXZXZX",
"ZXZXZXZXZXZXZXZXZXZXZXZXZXZXZXZXZX5 5 j j k h h h ZXZXZXZXZXZXZXZXZXZXZXZXZXZXZXZXZXZXZXZXZXZXZX",
"ZXZXZXZXZXZXZXZXZXZXZXZXZXZXZXZXZX6 5 5 5 h h h h r l f f 5 ZXZXZXZXZXZXZXZXZXZXZXZXZXZXZXZXZXZX",
"ZXZXZXZXZXZXZXZXZXZXZXZXZX) f p m ].].{.{. X.XXXXX.X X{.*XgX].g g 3 ) ZXZXZXZXZXZXZXZXZXZXZXZXZX",
"ZXZXZXZXZXZXZXZXZXZXZXZXZX2 ) m g ].].{.&X X XXXXX X.X&X).].].g p z z ZXZXZXZXZXZXZXZXZXZXZXZXZX",
"ZXZXZXZXZXZXZXZXZXZXZX .0 b.b.W.%X!./. X X#X#XE.E.&X&XT.T.!.~.I.I.n.z._ _ ZXZXZXZXZXZXZXZXZXZXZX",
"ZXZXZXZXZXZXZXZXZXZXZX8  .v.Z.XXR.^.!. X X&X.XW.E.&X&XT.T.!.~.I.I.H.n.R R ZXZXZXZXZXZXZXZXZXZXZX",
"ZXZXZXZXZXZXZXZXZXZXZX3 b ).).Q.Q.Q.W.|.|.`.`._._.[.[.^.^.W.E.!.^.[.[.f c ZXZXZXZXZXZXZXZXZXZXZX",
"ZXZXZXZXZXZXZXZXZXZXZXn h *XiXQ.Q.W.W.|. X`.`._.P.[.[.^.^.W.W.^.^.`.*Xc n ZXZXZXZXZXZXZXZXZXZXZX",
"ZXZXZXZXZXZXZXZXZXZXn k.M.L.L._._.@X@X/./.^.^.oXOXXXXX@X#XI.P.@X#X*X).H.z.f b ZXZXZXZXZXZXZXZXZX",
"ZXZXZXZXZXZXZXZXZXZXf M.x.}.uXP.P./.@X/./.|.^.OXOXXXXX.X#XP.P.@X@X.X).H.D.z c ZXZXZXZXZXZXZXZXZX",
"ZXZXZXZXZXZXZXZXZXZX! D.z.P.I.K.$XXXXX~.~.E.W.#X#XE.E.&X.X^.E.oXoX`.uXa.a.7 7 ZXZXZXZXZXZXZXZXZX",
"ZXZXZXZXZXZXZXZXZX! 0 z.G.I.P.$XK.+XXX~.~.E.E.#X#XE.E..X XE.^.oXoX}.uXy.a.( 7 ZXZXZXZXZXZXZXZXZX",
"ZXZXZXZXZXZXZXZXZXQ 0 n.n.y.p.#X).+X+X~.U.(.R.#X$XT.T..X*XR.(.oXoXx.N.y.y.! ! ZXZXZXZXZXZXZXZXZX",
"ZXZXZXZXZXZXZXZXZXQ 0 n.z.t.i.#X$XXX+X(.~.(.^.@X).Y.Y..X*XR.W.oX+Xc.l.c.c.! ! ZXZXZXZXZXZXZXZXZX",
"ZXZXZXZXZXZXZXZXZX^ ^ Z.Z.c.x.l.t.c.c.L.L._.@X`.`.iXuX'.'.p.p.c.z.l.N.B.l.( 7 ZXZXZXZXZXZXZXZXZX",
"ZXZXZXZXZXZXZXZXZX` ^ m.k.x.N.l.c.c.c.'.uXK.P.`.`.}.K.'.}.p.p.G.c.n.l.v.b.x ( MXZXZXZXZXZXZXZXZX",
"ZXZXZXZXZXZXZX#.9 5 j n n z.n.:.a.z.t.A.j.n n h k b +.k.M.z.D.y.y.m.M.b b z f n n ZXZXZXZXZXZXZX",
"ZXZXZXZXZXZXZX0 6 5 b 2 h n.H.F.J.H.H.j.j.n b K K b +.h.k.J.D.z.c.x.k.b 9 f l 3 z ZXZXZXZXZXZXZX",
"ZXZXZXZXZXZXZX    lXjXK 5 b.l.y.y.e.e.) ) W W  .C W Q L l m.m.u.x.v.B.7 / hXlX+ + NXZXZXZXZXZXZX",
"ZXZXZXZXZXZXZXO   lXlX6 6 B.M.G.y.V.V.x ) W W  .8 ~ O.l l M.m.u.x.B.b.( 7 lXjX+ @ NXZXZXZXZXZXZX",
"ZXZXZXZXZXZXZXX o eXzXr l c z 0 9 C.C.v.v.i.i.u.u.M.x.N.f.n.z.6 5 s ` r l yXyX& & NXZXZXZXZXZXZX",
"ZXZXZXZXZXZXZX=   pXeXl l c c Q ! C.C.b.v.c.c.u.u.l.l.N.n.n.z.9 6 ] s l r yXyX* * NXZXZXZXZXZXZX",
"ZXZXZXZXZXZXZXZXZX+ - e e I 9.: : m d x x R / / / v x 9 7 ! ! v g J T : : < , CXZXZXZXZXZXZXZXZX",
"ZXZXZXZXZXZXZXZXZX- @ e y P 9.: D m d ^ b R R / / z x x b ! W v z J J B : < , VXZXZXZXZXZXZXZXZX",
"ZXZXZXZXZXZXZXZXZXZXZX* # v v %.%.4.2.H H I I Y g.4.8.I e.7.7.3.2.i u   X MXZXZXZXZXZXZXZXZXZXZX",
"ZXZXZXZXZXZXZXZXZXZXZX# * a [ %.Y 2.2.F H I F q.q.r.r.P P 7.0.3.3.u e   $ MXZXZXZXZXZXZXZXZXZXZX",
"ZXZXZXZXZXZXZXZXZXZXZXZXZX.   t y 2.3.9.9.r.0.5.5.Y Y e.q.U U p a   = VXZXZXZXZXZXZXZXZXZXZXZXZX",
"ZXZXZXZXZXZXZXZXZXZXZXZXZX. . y w 3.2.9.9.4.8.5.5.U U w.P U U a m     ZXZXZXZXZXZXZXZXZXZXZXZXZX",
"ZXZXZXZXZXZXZXZXZX] -.Z Z ....o o > > y y I I w.w.9.9.i e % % @ - ZXZXZXZXZXZXZXZXZXZXZXZXZXZXZX",
"ZXZXZXZXZXZXZXZXZX-.] C C } X.o   > * y : 9.I P w.7.P e e O o ; @ ZXZXZXZXZXZXZXZXZXZXZXZXZXZXZX",
"ZXZXZXZXZXZXZX&.@.aXtX( E Z C f l :X:Xl r l l a m u i N N -X7X4 C X   ZXZXZXZXZXZXZXZXZXZXZXZXZX",
"ZXZXZXZXZXZXZX@.+.tXtX( @.V Z k l ,X,Xg l r l a v u u q q -X>X4 C X   ZXZXZXZXZXZXZXZXZXZXZXZXZX",
"ZXZXZXZXZXZXZX@.+.cXkXwXeX6 K ;.,.m d 4X1X2X2X3X3X< < <X<X!  .Z B } } @./ ZXZXZXZXZXZXZXZXZXZXZX",
"ZXZXZXZXZXZXZX&.@.hXhXwXwX+.5 ;.,.m d 8X3X2X2X3X3X< < :X:X7 #.B Z X.A _ _ ZXZXZXZXZXZXZXZXZXZXZX",
"ZXZXZXZXZXZXZXZXZXL $.o % + # :.s.2X-X-X7X=X>X9X1X3X3X. + ' ' v n kXhX$ $ ZXZXZXZXZXZXZXZXZXZXZX",
"ZXZXZXZXZXZXZXZXZX*.L & & + + :.:.-X-X7X=X>X>X4X2X3X8X+ + [ [ v [ kXcX$ $ ZXZXZXZXZXZXZXZXZXZXZX",
"ZXZXZXZXZXZXZXZXZXZXZXZXZX@ @ ;.M g.g.5X5X3X3X-X2X4.1.u u f.n..   bXxXvXZXM g.ZXZXZXZXZXZXZXZXZX",
"ZXZXZXZXZXZXZXZXZXZXZXZXZX- @ N ;.h.Y 0X9X3X3X-X2X1.4.u u z.f.. . xXxXvXvXg.M ZXZXZXZXZXZXZXZXZX",
"ZXZXZXZXZXZXZXZXZXZXZXZXZX . .S D -X2X1.1.I F 3.F rXqXt w ' M     nXnXvXvX*.*.ZXZXZXZXZXZXZXZXZX",
"ZXZXZXZXZXZXZXZXZXZXZXZXZX .Q D S 2X7XG 2.I F F F qXqXw w g.M     mXnXmXvXM $.ZXZXZXZXZXZXZXZXZX",
"ZXZXZXZXZXZXZXZXZXZXZXZXZX, 1 sXsX+ + 9X9X3X2X6X6X  $ K K =.&.o o ) +.$.*.ZXZXZXZXZXZXZXZXZXZXZX",
"ZXZXZXZXZXZXZXZXZXZXZXZXZX, , fXfX. + ;X;X1X2X6X6XX   5 K =.=.= o &.n *.=.ZXZXZXZXZXZXZXZXZXZXZX",
"ZXZXZXZXZXZXZXZXZXZXZXZXZXX $ C 6 fXfXC | #. .....Z #.  o o & ZXZXZXZXZXZXZXZXZXZXZXZXZXZXZXZXZX",
"ZXZXZXZXZXZXZXZXZXZXZXZXZXX X 4 C fXdXX.W  .8 ....C 4 o o o % ZXZXZXZXZXZXZXZXZXZXZXZXZXZXZXZXZX",
"ZXZXZXZXZXZXZXZXZXZXZXZXZXZXZXO . o.o.sXsXo % ZXZXZXZXZXZXZXZXZXZXZXZXZXZXZXZXZXZXZXZXZXZXZXZXZX",
"ZXZXZXZXZXZXZXZXZXZXZXZXZXZXZXO O o.o.sXsX= o ZXZXZXZXZXZXZXZXZXZXZXZXZXZXZXZXZXZXZXZXZXZXZXZXZX",
"ZXZXZXZXZXZXZXZXZXZXZXZXZXZXZX& * d.d.:.z.- - ZXZXZXZXZXZXZXZXZXZXZXZXZXZXZXZXZXZXZXZXZXZXZXZXZX",
"ZXZXZXZXZXZXZXZXZXZXZXZXZXZXZX* & d.>.a.a.- - ZXZXZXZXZXZXZXZXZXZXZXZXZXZXZXZXZXZXZXZXZXZXZXZXZX",
"ZXZXZXZXZXZXZXZXZXZXZXZXZXZXZXZXZXO *     ZXBXZXZXZXZXZXZXZXZXZXZXZXZXZXZXZXZXZXZXZXZXZXZXZXZXZX",
"ZXZXZXZXZXZXZXZXZXZXZXZXZXZXZXZXZX# .     ZXZXZXZXZXZXZXZXZXZXZXZXZXZXZXZXZXZXZXZXZXZXZXZXZXZXZX",
"ZXZXZXZXZXZXZXZXZXZXZXZXZXZXZXZXZXZXBXNXNXZXZXZXZXZXZXZXZXZXZXZXZXZXZXZXZXZXZXZXZXZXZXZXZXZXZXZX",
"ZXZXZXZXZXZXZXZXZXZXZXZXZXZXZXZXZXZXZXZXZXZXZXZXZXZXZXZXZXZXZXZXZXZXZXZXZXZXZXZXZXZXZXZXZXZXZXZX",
"ZXZXZXZXZXZXZXZXZXZXZXZXZXZXZXZXZXZXZXZXZXZXZXZXZXZXZXZXZXZXZXZXZXZXZXZXZXZXZXZXZXZXZXZXZXZXZXZX",
"ZXZXZXZXZXZXZXZXZXZXZXZXZXZXZXZXZXZXZXZXZXZXZXZXZXZXZXZXZXZXZXZXZXZXZXZXZXZXZXZXZXZXZXZXZXZXZXZX"
};
