/* XPM */
static char *result[] = {
/* columns rows colors chars-per-pixel */
"48 59 238 2 ",
"   c #020201",
".  c #0D0102",
"X  c #000B02",
"o  c #04010C",
"O  c #0B000B",
"+  c #080B03",
"@  c #130100",
"#  c #190101",
"$  c #130009",
"%  c #100900",
"&  c #011108",
"*  c #080116",
"=  c #160019",
"-  c #161818",
";  c #2C0006",
":  c #360011",
">  c #3D351A",
",  c #363206",
"<  c #040223",
"1  c #1D0034",
"2  c #15002C",
"3  c #311128",
"4  c #3B2A29",
"5  c #283629",
"6  c #3D352C",
"7  c #34312D",
"8  c #372C38",
"9  c #2D3B31",
"0  c #383738",
"q  c #2D2C2F",
"w  c #4F1C13",
"e  c #542508",
"r  c #58291A",
"t  c #4C3412",
"y  c #622D0E",
"u  c #6A3517",
"i  c #632F0F",
"p  c #511F30",
"a  c #472829",
"s  c #542523",
"d  c #572928",
"f  c #453426",
"g  c #493529",
"h  c #56362D",
"j  c #472A37",
"k  c #582D33",
"l  c #4A3536",
"z  c #563735",
"x  c #642D28",
"c  c #63322D",
"v  c #642932",
"b  c #663739",
"n  c #753937",
"m  c #733327",
"M  c #3B4000",
"N  c #2E453F",
"B  c #374335",
"V  c #33482B",
"C  c #464504",
"Z  c #675A18",
"A  c #77561A",
"S  c #7B4D1A",
"D  c #6D651C",
"F  c #47433F",
"G  c #454124",
"H  c #684639",
"J  c #74463D",
"K  c #79523B",
"L  c #745226",
"P  c #76612C",
"I  c #382648",
"U  c #283B47",
"Y  c #38394E",
"T  c #491D40",
"R  c #4D2642",
"E  c #572A4C",
"W  c #523644",
"Q  c #442A53",
"!  c #482F57",
"~  c #47344E",
"^  c #733543",
"/  c #793B47",
"(  c #79295C",
")  c #683D44",
"_  c #6C3867",
"`  c #5C3562",
"'  c #364745",
"]  c #334D55",
"[  c #2D6D77",
"{  c #3E6373",
"}  c #454245",
"|  c #52424B",
" . c #6C4442",
".. c #764646",
"X. c #744F4D",
"o. c #404B61",
"O. c #456A7A",
"+. c #8F2634",
"@. c #B33B32",
"#. c #8A481D",
"$. c #84501E",
"%. c #874928",
"&. c #944D22",
"*. c #8A5428",
"=. c #874A38",
"-. c #964C33",
";. c #995933",
":. c #A94939",
">. c #B4453C",
",. c #B3543A",
"<. c #A9503E",
"1. c #856128",
"2. c #C74C2B",
"3. c #C3433A",
"4. c #823F49",
"5. c #B63D48",
"6. c #BD3550",
"7. c #BA255D",
"8. c #BE2961",
"9. c #C43555",
"0. c #C8336B",
"q. c #874A4A",
"w. c #965946",
"e. c #984657",
"r. c #955A57",
"t. c #8E554B",
"y. c #AD4D44",
"u. c #AA4A46",
"i. c #B34C45",
"p. c #BA4D43",
"a. c #B34D4B",
"s. c #BB4749",
"d. c #AC5349",
"f. c #A65748",
"g. c #B55144",
"h. c #B4534B",
"j. c #BA524A",
"k. c #B75848",
"l. c #AC4C55",
"z. c #B74753",
"x. c #A8565D",
"c. c #B7545A",
"v. c #94604A",
"b. c #B15762",
"n. c #B26356",
"m. c #C2484A",
"M. c #C34B58",
"N. c #D05655",
"B. c #DC6C5B",
"V. c #DE745C",
"C. c #D37A5D",
"Z. c #CB6E5A",
"A. c #ED6E5E",
"S. c #E66B59",
"D. c #F56A5F",
"F. c #E3735E",
"G. c #E8715D",
"H. c #EA7152",
"J. c #F07350",
"K. c #C95262",
"L. c #DC6864",
"P. c #DE7562",
"I. c #D87868",
"U. c #CB797B",
"Y. c #DD7573",
"T. c #E56E64",
"R. c #EC6E60",
"E. c #E8696A",
"W. c #F26A65",
"Q. c #E47362",
"!. c #EB7262",
"~. c #E7776A",
"^. c #EC6C74",
"/. c #F46874",
"(. c #F37678",
"). c #EF756C",
"_. c #B89307",
"`. c #B99512",
"'. c #AAAA00",
"]. c #B8A800",
"[. c #CA9B02",
"{. c #D29809",
"}. c #C99713",
"|. c #D3A100",
" X c #C6A416",
".X c #C99C25",
"XX c #BFA17F",
"oX c #CE976A",
"OX c #E79978",
"+X c #E3896E",
"@X c #D7A56C",
"#X c #D3A576",
"$X c #C6A37D",
"%X c #F0A27C",
"&X c #3A7A84",
"*X c #4F5E85",
"=X c #536988",
"-X c #495CA8",
";X c #5366B2",
":X c #F47D81",
">X c #BE9A86",
",X c #B6AA9E",
"<X c #A392A2",
"1X c #B3B1B3",
"2X c #C79786",
"3X c #D89D95",
"4X c #CB9992",
"5X c #C7A487",
"6X c #D5A799",
"7X c #D4AF89",
"8X c #C8B4B7",
"9X c #C5ACAF",
"0X c #ED9F88",
"qX c #F4D2AC",
"wX c #FDC7BC",
"eX c #E8D9BB",
"rX c #F1CFA9",
"tX c #DED4B3",
"yX c #B3B4C9",
"uX c #C4ABC6",
"iX c #CFBBCE",
"pX c #B3C0C9",
"aX c #EACAC9",
"sX c #F8CCC7",
"dX c #F9D5C3",
"fX c #F4D7D6",
"gX c #EBD2CE",
"hX c #EEE5D4",
"jX c #DCDDE1",
"kX c #EAD7EF",
"lX c #DEE5E3",
"zX c #D9E8FF",
"xX c #E5E9EE",
"cX c #FBE7FA",
"vX c #FEFEFF",
"bX c #F8F8F8",
"nX c #F3F0EE",
"mX c None",
/* pixels */
"mXmXmXmXmXmXmXmXmXmXmXmXmXmXmXmXmXmXmXmXmXmXmXmXmXmXmXmXmXmXmXmXmXmXmXmXmXmXmXmXmXmXmXmXmXmXmXmX",
"mXmXmXmXmXmXmXmXmXmXmXmXmXmXmXmXmXmXmXmXmXmXmXmXmXmXmXmXmXmXmXmXmXmXmXmXmXmXmXmXmXmXmXmXmXmXmXmX",
"mXmXmXmXmXmXmXmXmXmXmXmXmXmXmXmXmXmXmXmXmXmXmXmXmXmXmXmXmXmXmXmXmXmXmXmXmXmXmXmXmXmXmXmXmXmXmXmX",
"mXmXmXmXmXmXmXmXmXmXmXmXmXmXmXmXmXmXmXmXmXmXmXmXmXmXmXmXmXmXmXmXmXmXmXmXmXmXmXmXmXmXmXmXmXmXmXmX",
"mXmXmXmXmXmXmXmXmXmXmXmXmXmXmXmXmXmXmXmXmXmXmXmXmXmXmXmXmXmXmXmXmXmXmXmXmXmXmXmXmXmXmXmXmXmXmXmX",
"mXmXmXmXmXmXmXmXmXmXmXmXmXmXmXmXmXa j d a r s f f f mXmXmXmXmXmXmXmXmXmXmXmXmXmXmXmXmXmXmXmXmXmX",
"mXmXmXmXmXmXmXmXmXmXmXmXmXmXmXmXmX| a k k d h f f f f 6 6 6 6 mXmXmXmXmXmXmXmXmXmXmXmXmXmXmXmXmX",
"mXmXmXmXmXmXmXmXmXmXmXmXmXmXmXz a r.t.I.Y.T.T.W.W.E.E.Y.Y.U.U.v s j W mXmXmXmXmXmXmXmXmXmXmXmXmX",
"mXmXmXmXmXmXmXmXmXmXmXmXmXmXmXa z r.r.Y.Y.L.^.W.W.W.E.Y.Y.U.U.d d W a vXmXmXmXmXmXmXmXmXmXmXmXmX",
"mXmXmXmXmXmXmXmXmXmXmXmXmXj W M.j.~.Q.S.H.!.G.V.Q.!.A.D.D.C.C.).H.9.5.f l bXmXmXmXmXmXmXmXmXmXmX",
"mXmXmXmXmXmXmXmXmXmXmXmXmX4 j 5.5.B.P.G.G.!.R.P.P.R.A.W.D.C.C.S.W.N.m.l 6 bXmXmXmXmXmXmXmXmXmXmX",
"mXmXmXmXmXmXmXmXmXmXmXmXmXE E +XI.(.^.H.H.!.T.F.Q.R.R.A.G.F.F.A.S.L.T.k s vXmXmXmXmXmXmXmXmXmXmX",
"mXmXmXmXmXmXmXmXmXmXmXmXmXT E C.C.Y.L.H.H.R.).F.F.R.R.R.D.F.V.G.S.(.(.d k bXvXmXmXmXmXmXmXmXmXmX",
"mXmXmXmXmXmXmXmXmXmXmXR ~ 1X1XE.^.I.Y.G.F.W.S.T.Q.R.R.G.G.G.G.G.G.L.T.b.e.} 7 vXmXmXmXmXmXmXmXmX",
"mXmXmXmXmXmXmXmXmXmXmX8 j yXpX).(.Z.I.V.F.R.R.G.G.R.A.G.G.J.A.G.!.~.E.l.x.7 0 vXmXmXmXmXmXmXmXmX",
"mXmXmXmXmXmXmXmXmX5 9 =X=Xl.y.xXjXJ.J.W./.V.P.G.Q.R.!.Q.Q.D.D.).B.Y.Y.z.M.0 7 vXmXmXmXmXmXmXmXmX",
"mXmXmXmXmXmXmXmXmX9 N *X*Xc.l.bXlXJ.J.W./.Q.Q.Q.Q.R.R.F.Q.D.D.B.!.Y.L.K.z.7 0 vXmXmXmXmXmXmXmXmX",
"mXmXmXmXmXmXmXR W mXlXzXzXl.l.xXcX>.2./.E.P.B.Q.Q.Q.T.I.I.W.W.Q.B.p.g.M.5.} 7 mXmXmXmXmXmXmXmXmX",
"mXmXmXmXmXmXmXW j mXxXzXzXc.l.xXxX2.2.E.^.+X~.Q.Q.Q.T.P.P.W.D.~.P.j.i.z.5.l 0 mXmXmXmXmXmXmXmXmX",
"mXmXmXmXmXmXmXq ~ kXkXcXcX1XpX5.K.-.f.N.<.>.@.g.p.s.p.p.g.p.>.,.p.s.p.b.b.j 6 mXmXmXmXmXmXmXmXmX",
"mXmXmXmXmXmXmX} 0 cXcXkXcXyXyX5.z.d.f.:.:.>.N.g.p.p.p.g.g.,.p.p.p.g.>.l.x.4 l mXmXmXmXmXmXmXmXmX",
"mXmXmXmXmXmXmX8 0 yXyXcXcX_ ! n.f.c.c.,.,.g.:.y.y.s.i.a.y.f.f.j.g.M.s.r.r.4 g mXmXmXmXmXmXmXmXmX",
"mXmXmXmXmXmXmX} 8 mXyXkXcXE _ d.-.c.l.:.,.h.y.k.h.j.h.h.h.f.f.:.>.s.j.t.r.l g vXmXmXmXmXmXmXmXmX",
"mXmXmXmXmXmXmXmXmXI ! iXuXiXyX+.+.c.d.d.<.d.d.d.d.a.a.a.h.v.w.k.h.m.5.z g 4 a vXmXmXmXmXmXmXmXmX",
"mXmXmXmXmXmXmXmXmXI ~ mXuXuXuX+.+.d.a.k.<.d.y.d.d.a.i.a.a.v.v.:.i.m.m.g t l j vXmXmXmXmXmXmXmXmX",
"mXmXmXmXmXmXmXmXmXmXmXa k j j ] Y Q ! j E 5 9 j l 8 W Y 0 I 8 ! Q a h Z D M M vXmXmXmXmXmXmXmXmX",
"mXmXmXmXmXmXmXmXmXmXmXa a j l U o.I Q R j 9 9 l j j Y 0 0 ~ Y Q Q t a D D M C vXmXmXmXmXmXmXmXmX",
"mXmXmXmXmXmXmXmXmXmXmX ... . .o o <X<X) ..g f $.*.i e *.%.%.%.#.;.%.-.v s cXmXmXmXmXmXmXmXmXmXmX",
"mXmXmXmXmXmXmXmXmXmXmXJ  .X...    <X<XX. .> > #.*.u i *.*.%.w.&.&.%.%.d s cXmXmXmXmXmXmXmXmXmXmX",
"mXmXmXmXmXmXmXmXmXmXmXH J 2X3X@ @ hXhX4X$Xu y 7X$X5X>Xr r *.S *.S b z O * bXmXmXmXmXmXmXmXmXmXmX",
"mXmXmXmXmXmXmXmXmXmXmXK ..6X6X@ % hXnX5X5Xi e $X$X6X6Xe r *.*.*.*.s a O O bXmXmXmXmXmXmXmXmXmXmX",
"mXmXmXmXmXmXmXmXmXmXmXmX2XwXwXwXdXeXeXqXrXOXOX@X@X#XoXx r A $.A A t C mXmXmXmXmXmXmXmXmXmXmXmXmX",
"mXmXmXmXmXmXmXmXmXmXmXmXmXwXwXdXwXtXeXqXqX%XOX@XoX7X#Xr r *.A A 1.t , mXmXmXmXmXmXmXmXmXmXmXmXmX",
"mXmXmXmXmXmXmXmXmXmXmXmXmX..J wXwXdXeX>X7XoXOX@X@Xe u K K 1 2     mXmXmXmXmXmXmXmXmXmXmXmXmXmXmX",
"mXmXmXmXmXmXmXmXmXmXmXmXmXq.n dXwXeXeX5X5X0X0XoX@Xi e t.H 2 1 % . mXmXmXmXmXmXmXmXmXmXmXmXmXmXmX",
"mXmXmXmXmXmXmXmXmXmXmXmXmXmXbXn ..J J K H 4X6Xk r c h e i '.'.> > mXmXmXmXmXmXmXmXmXmXmXmXmXmXmX",
"mXmXmXmXmXmXmXmXmXmXmXmXmXmXnXq.q.b J H H 6X4Xd w s w e r '.'.G > mXmXmXmXmXmXmXmXmXmXmXmXmXmXmX",
"mXmXmXmXmXmXmXmXmXmXmXmXmXmXmXcXcX4.4.9X,XiX1X].].t.=.{.[.|.|._. XE E mXmXmXmXmXmXmXmXmXmXmXmXmX",
"mXmXmXmXmXmXmXmXmXmXmXmXmXmXmXmXcXq.4.9X8X1X1X]._.=.=.{.}.[.[.}._.E R mXmXmXmXmXmXmXmXmXmXmXmXmX",
"mXmXmXmXmXmXmXmXmXmXmXmXmXmXmXb b e.e.@ # ] U ' N   . `.}.[.[.=.t.. $ mXmXmXmXmXmXmXmXmXmXmXmXmX",
"mXmXmXmXmXmXmXmXmXmXmXmXmXmXmXk z e.e.$ . ' ' ' N $ . }.`.[.[.q.q.$ . mXmXmXmXmXmXmXmXmXmXmXmXmX",
"mXmXmXmXmXmXmXmXmXmXmXmXmXmXmXB B   o } 9 z l V V . . ;.&.P P _. X$ O mXmXmXmXmXmXmXmXmXmXmXmXmX",
"mXmXmXmXmXmXmXmXmXmXmXmXmXmXmX' 9 X X 0 ' z z V V $ . #.&.Z P `._.O $ mXmXmXmXmXmXmXmXmXmXmXmXmX",
"mXmXmXmXmXmXmXmXmXmXmXmXmX| } . . aXaXgXgX9 B   . & & . o .X}.%.-.& X mXmXmXmXmXmXmXmXmXmXmXmXmX",
"mXmXmXmXmXmXmXmXmXmXmXmXmX7 7 .   gXfXaXfXB B % % X X o + `..X-.-.X X mXmXmXmXmXmXmXmXmXmXmXmXmX",
"mXmXmXmXmXmXmXmXmXmXmX# # ../ ; ; sXsX,X,X  X [ [ ;X;X' ]   o @ % ( 4.mXmXmXmXmXmXmXmXmXmXmXmXmX",
"mXmXmXmXmXmXmXmXmXmXmX# # ^ v ; ; sXfX,X,X+ % &X[ -X-XU ] + X % # ( ( mXmXmXmXmXmXmXmXmXmXmXmXmX",
"mXmXmXmXmXmXmXmXmXmXmX@ # ^ n / v # #     .   = 2 o o =X{ z G m m 7.9.3 : mXmXmXmXmXmXmXmXmXmXmX",
"mXmXmXmXmXmXmXmXmXmXmX@ . ^ / b ^ @ @     . . = = O * { O.z g +.m 9.9.; : mXmXmXmXmXmXmXmXmXmXmX",
"mXmXmXmXmXmXmXmXmXmXmXmXmXo o     mXmXmXmXmXmXmXmXmXmX< < @.@.8.0.@.>.< * mXmXmXmXmXmXmXmXmXmXmX",
"mXmXmXmXmXmXmXmXmXmXmXmXmX-     - mXmXmXmXmXmXmXmXmXmX< * @.3.0.7.>.@.* < mXmXmXmXmXmXmXmXmXmXmX",
"mXmXmXmXmXmXmXmXmXmXmXmXmXmXmXmXmXmXmXmXmXmXmXmXmXmXmXmXmXo   X X o o mXmXmXmXmXmXmXmXmXmXmXmXmX",
"mXmXmXmXmXmXmXmXmXmXmXmXmXmXmXmXmXmXmXmXmXmXmXmXmXmXmXmXmX    & X * * mXmXmXmXmXmXmXmXmXmXmXmXmX",
"mXmXmXmXmXmXmXmXmXmXmXmXmXmXmXmXmXmXmXmXmXmXmXmXmXmXmXmXmXmXmXmXmXmXmXmXmXmXmXmXmXmXmXmXmXmXmXmX",
"mXmXmXmXmXmXmXmXmXmXmXmXmXmXmXmXmXmXmXmXmXmXmXmXmXmXmXmXmXmXmXmXmXmXmXmXmXmXmXmXmXmXmXmXmXmXmXmX",
"mXmXmXmXmXmXmXmXmXmXmXmXmXmXmXmXmXmXmXmXmXmXmXmXmXmXmXmXmXmXmXmXmXmXmXmXmXmXmXmXmXmXmXmXmXmXmXmX",
"mXmXmXmXmXmXmXmXmXmXmXmXmXmXmXmXmXmXmXmXmXmXmXmXmXmXmXmXmXmXmXmXmXmXmXmXmXmXmXmXmXmXmXmXmXmXmXmX",
"mXmXmXmXmXmXmXmXmXmXmXmXmXmXmXmXmXmXmXmXmXmXmXmXmXmXmXmXmXmXmXmXmXmXmXmXmXmXmXmXmXmXmXmXmXmXmXmX",
"mXmXmXmXmXmXmXmXmXmXmXmXmXmXmXmXmXmXmXmXmXmXmXmXmXmXmXmXmXmXmXmXmXmXmXmXmXmXmXmXmXmXmXmXmXmXmXmX"
};
