/* XPM */
static char *result[] = {
/* columns rows colors chars-per-pixel */
"48 59 246 2 ",
"   c #020201",
".  c #0B0300",
"X  c #010B00",
"o  c #03000C",
"O  c #0B0B0C",
"+  c #150100",
"@  c #1B0003",
"#  c #001101",
"$  c #001900",
"%  c #020214",
"&  c #010D13",
"*  c #0A001C",
"=  c #080516",
"-  c #250100",
";  c #3B0513",
":  c #373108",
">  c #0F0021",
",  c #110023",
"<  c #372928",
"1  c #3D312C",
"2  c #353829",
"3  c #3C2D32",
"4  c #363332",
"5  c #3A3335",
"6  c #3B3B34",
"7  c #3C333A",
"8  c #353A3A",
"9  c #373938",
"0  c #28353B",
"q  c #2B2D32",
"w  c #4E2C0A",
"e  c #463A07",
"r  c #482A17",
"t  c #4D3619",
"y  c #553416",
"u  c #582814",
"i  c #63280A",
"p  c #7D241E",
"a  c #5B1D36",
"s  c #421D3E",
"d  c #710C2C",
"f  c #432C2C",
"g  c #4C2B2B",
"h  c #472827",
"j  c #552A27",
"k  c #473529",
"l  c #573329",
"z  c #482E33",
"x  c #592835",
"c  c #433433",
"v  c #4A3334",
"b  c #473937",
"n  c #553B3A",
"m  c #6F3234",
"M  c #3D431D",
"N  c #1A4B36",
"B  c #1D513A",
"V  c #28492C",
"C  c #3A452E",
"Z  c #264836",
"A  c #394535",
"S  c #255339",
"D  c #355037",
"F  c #45480C",
"G  c #41421A",
"H  c #534200",
"J  c #7B4F10",
"K  c #7F6119",
"L  c #464629",
"P  c #43453A",
"I  c #544335",
"U  c #52442A",
"Y  c #794725",
"T  c #7C562D",
"R  c #78463A",
"E  c #705336",
"W  c #392644",
"Q  c #363B43",
"!  c #3D2B54",
"~  c #3B3154",
"^  c #393268",
"/  c #1D3E4F",
"(  c #4B1B43",
")  c #741642",
"_  c #472A47",
"`  c #493648",
"'  c #422B58",
"]  c #572B51",
"[  c #413359",
"{  c #533E48",
"}  c #752D4C",
"|  c #483469",
" . c #2A464A",
".. c #36484A",
"X. c #245643",
"o. c #2C4854",
"O. c #2C566C",
"+. c #1F4051",
"@. c #594448",
"#. c #464840",
"$. c #62454B",
"%. c #794341",
"&. c #705550",
"*. c #4F5C7E",
"=. c #9A3C19",
"-. c #A03F1C",
";. c #842A29",
":. c #83392C",
">. c #93383A",
",. c #903E2D",
"<. c #AC3B37",
"1. c #A33F2F",
"2. c #811C3C",
"3. c #C4313B",
"4. c #D33B26",
"5. c #854D1B",
"6. c #974B15",
"7. c #875616",
"8. c #975518",
"9. c #90470C",
"0. c #A44914",
"q. c #80621A",
"w. c #884A2A",
"e. c #9A452C",
"r. c #8D582A",
"t. c #95572C",
"y. c #8C4934",
"u. c #875535",
"i. c #915433",
"p. c #A44825",
"a. c #A64A38",
"s. c #B54D3F",
"d. c #AF512E",
"f. c #92663F",
"g. c #CC4A32",
"h. c #872A4C",
"j. c #BD374B",
"k. c #833D61",
"l. c #B9326C",
"z. c #BF1F4D",
"x. c #C73755",
"c. c #C93251",
"v. c #CB386C",
"b. c #8A5748",
"n. c #9B5355",
"m. c #995457",
"M. c #915151",
"N. c #AC424A",
"B. c #AC4C48",
"V. c #B64A48",
"C. c #AC5245",
"Z. c #AB5347",
"A. c #B95347",
"S. c #A94B55",
"D. c #B64B57",
"F. c #A65658",
"G. c #B65252",
"H. c #B8535B",
"J. c #966549",
"K. c #A06047",
"L. c #B94862",
"P. c #B34576",
"I. c #AE5C62",
"U. c #A46464",
"Y. c #C1544B",
"T. c #C74B57",
"R. c #C95350",
"E. c #EE5E57",
"W. c #DD6B58",
"Q. c #C57D5C",
"!. c #DD755A",
"~. c #D67A5D",
"^. c #D87A59",
"/. c #DE6D4F",
"(. c #E56D5C",
"). c #E96858",
"_. c #F6685B",
"`. c #E4735C",
"'. c #EA755A",
"]. c #EB6D56",
"[. c #C14665",
"{. c #DD6C69",
"}. c #C47B6C",
"|. c #DB7663",
" X c #D87666",
".X c #D97877",
"XX c #CB746F",
"oX c #E66A67",
"OX c #FD6464",
"+X c #F26A61",
"@X c #FC6B62",
"#X c #FC666A",
"$X c #F36A69",
"%X c #F66868",
"&X c #E37363",
"*X c #E97468",
"=X c #F87367",
"-X c #E96A73",
";X c #E77575",
":X c #F6787B",
">X c #FE6D72",
",X c #F45F65",
"<X c #9E9C00",
"1X c #B99700",
"2X c #B88C12",
"3X c #9BA302",
"4X c #ABA603",
"5X c #B8A400",
"6X c #B3B109",
"7X c #C48D03",
"8X c #C89803",
"9X c #C98A19",
"0X c #CE980C",
"qX c #E58501",
"wX c #F09005",
"eX c #C7A605",
"rX c #DBA20A",
"tX c #CA9A26",
"yX c #D19221",
"uX c #E3AB12",
"iX c #BD836F",
"pX c #C5815E",
"aX c #CD9C68",
"sX c #CD9470",
"dX c #DAA46E",
"fX c #D6A472",
"gX c #E0A772",
"hX c #31728E",
"jX c #1D6885",
"kX c #6A578E",
"lX c #566385",
"zX c #447792",
"xX c #5E4B82",
"cX c #ED938E",
"vX c #D5A786",
"bX c #E19E82",
"nX c #F1D2B3",
"mX c #DFD0B9",
"MX c #F6C6C6",
"NX c #F4D7C6",
"BX c #FFFFDF",
"VX c #F9FFEB",
"CX c #EEFFFF",
"ZX c #FCFEF3",
"AX c #FFFCFE",
"SX c None",
/* pixels */
"SXSXSXSXSXSXSXSXSXSXSXSXSXSXSXSXSXSXSXSXSXSXSXSXSXSXSXSXSXSXSXSXSXSXSXSXSXSXSXSXSXSXSXSXSXSXSXSX",
"SXSXSXSXSXSXSXSXSXSXSXSXSXSXSXSXSXSXSXSXSXSXSXSXSXSXSXSXSXSXSXSXSXSXSXSXSXSXSXSXSXSXSXSXSXSXSXSX",
"SXSXSXSXSXSXSXSXSXSXSXSXSXSXSXSXSXSXSXSXSXSXSXSXSXSXSXSXSXSXSXSXSXSXSXSXSXSXSXSXSXSXSXSXSXSXSXSX",
"SXSXSXSXSXSXSXSXSXSXSXSXSXSXSXSXSXSXSXSXSXSXSXSXSXSXSXSXSXSXSXSXSXSXSXSXSXSXSXSXSXSXSXSXSXSXSXSX",
"SXSXSXSXSXSXSXSXSXSXSXSXSXSXSXSXSXSXSXSXSXSXSXSXSXSXSXSXSXSXSXSXSXSXSXSXSXSXSXSXSXSXSXSXSXSXSXSX",
"SXSXSXSXSXSXSXSXSXSXSXSXSXSXSXSXSXSXSXSXSXSXSXSXSXSXSXSXSXSXSXSXSXSXSXSXSXSXSXSXSXSXSXSXSXSXSXSX",
"SXSXSXSXSXSXSXSXSXSXSXSXSXSXSXSXSX5 5 4 5 5 5 5 5 5 4 4 SXSXSXSXSXSXSXSXSXSXSXSXSXSXSXSXSXSXSXSX",
"SXSXSXSXSXSXSXSXSXSXSXSXSXSXSXSXSX7 7 7 7 7 7 7 7 5 Q 4 b 5 4 SXSXSXSXSXSXSXSXSXSXSXSXSXSXSXSXSX",
"SXSXSXSXSXSXSXSXSXSXSXSXSX2 2 t k iXiX X XOXOX`.`.@XOX*X).;X.Xr j SXf SXSXSXSXSXSXSXSXSXSXSXSXSX",
"SXSXSXSXSXSXSXSXSXSXSXSXSXL 2 t r iXiX X XOXOX`.'.E.%X=X$X.X{.j j f v SXSXSXSXSXSXSXSXSXSXSXSXSX",
"SXSXSXSXSXSXSXSXSXSXSXg x N.N.;X*X$X$XOX#X+X+X^.`.|.|.+X+X|.;XXXXXU.m.z c SXSXSXSXSXSXSXSXSXSXSX",
"SXSXSXSXSXSXSXSXSXSXSXx x H.T.oX{.$X$XOXOX+X_.`.`.|.~.+X%X{.{.XX.Xm.m.z < SXSXSXSXSXSXSXSXSXSXSX",
"SXSXSXSXSXSXSXSXSXSXSXg l -X-XoX*X|.|._.+X~.~.`.`.Q.pX_.@X*XW.+XW.oX:Xh l SXSXSXSXSXSXSXSXSXSXSX",
"SXSXSXSXSXSXSXSXSXSXSXj j :X-X&X{.!. X+X'.~.~.^.`.sXpX_._.&X'.:X=X;X{.h g SXSXSXSXSXSXSXSXSXSXSX",
"SXSXSXSXSXSXSXSXSX< f m.F.,X>XW.*X~.~.`.`.`.'._.].^.^._.].'./.].).E.@XF.n.{ v SXSXSXSXSXSXSXSXSX",
"SXSXSXSXSXSXSXSXSXb v m.M.>X#X{.`.~.~.`.`.'.'.]._.`.^.@XE.'.].].'.+X=Xn.n.g z SXSXSXSXSXSXSXSXSX",
"SXSXSXSXSXSXSXSXSX4 4 S.F.+X+X@X_.].=X!.(._.OX(.=XOXOX=X).'./.^.pX=X+XV.D.c 3 SXSXSXSXSXSXSXSXSX",
"SXSXSXSXSXSXSXSXSXA 6 F.I.$X$X@XE.]._.&X&X+X+X).)._.OX].].'./.^.'.].].G.V.b 6 SXSXSXSXSXSXSXSXSX",
"SXSXSXSXSXSXSXSXSX3 3 L.H.V.C.).*X&X|. X X%X#X;X;X#X#XoX&X!.'.Q.pXs.Y.H.N.6 2 SXSXSXSXSXSXSXSXSX",
"SXSXSXSXSXSXSXSXSXb c D.D.A.A.(.*X&X&X X X#X,X;XoXOX#X&X*XW.`.pXpXs.s.N.j.A 4 SXSXSXSXSXSXSXSXSX",
"SXSXSXSXSXSXSXSXSXa a L.L.V.V.A.s.s.A.oX-X:X-X;X{.}.}. X{.A.g.B.C.N.G.U.U.c < AXSXSXSXSXSXSXSXSX",
"SXSXSXSXSXSXSXSXSXa } L.S.A.j.A.Y.A.A.{.-X-X-X.X.X}.}.;X.XY.V.Z.C.V.G.M.m.< c AXAXSXSXSXSXSXSXSX",
"SXSXSXSXSXSXSX#.<  .0 2 k F.Z.Z.a.G.Z.G.S.U k D V L L B.D.V.V.T.T.D.N.b I v < { h SXSXSXSXSXSXSX",
"SXSXSXSXSXSXSX2 9 Q 0 b c Z.F.a.Z.Z.Z.G.D.k L V V M G B.G.Y.V.T.V.D.B.l < c c 3 z AXSXSXSXSXSXSX",
"SXSXSXSXSXSXSXo   fXaX| | u.J.g.g.A.a.#.6 N N P C G G .. .C.C.4.4.J.K.z f vXsX* % AXSXSXSXSXSXSX",
"SXSXSXSXSXSXSX    fXaX' ' f.f.g.g.s.a.#.A B S L 2 G 2  ...a.A.4.g.J.J.x z vXvX& % AXSXSXSXSXSXSX",
"SXSXSXSXSXSXSX  O dXdX] _ _ _ ( _ I.I.N.V.L.L.Y.g.T.D.P.P.U.m.` _ ~ W y u fXgX+ + AXSXSXSXSXSXSX",
"SXSXSXSXSXSXSXO   dXdXs _ _ W ] s F.F.N.V.[.[.g.Y.D.T.l.P.m.M._ W ~ ~ j l dXsX@ + AXSXSXSXSXSXSX",
"SXSXSXSXSXSXSXSXSX+ + } x r.r.H e 9 9 9 8 7 7 ! ! k k ! [ 6 P w y w.w.: t o & AXSXSXSXSXSXSXSXSX",
"SXSXSXSXSXSXSXSXSX+ @ x a J 5.: H c 8 8 8 7 W ' _ k h ! ' < c w y w.u.e F     SXSXSXSXSXSXSXSXSX",
"SXSXSXSXSXSXSXSXSXSXSXX $ 6 6 M.%.>.y.7.7.T T T T E E r.7.6.6.w.w.3 {     SXSXSXSXSXSXSXSXSXSXSX",
"SXSXSXSXSXSXSXSXSXSXSXX X #.6 %.b.y.y.7.7.T T T T &.E 7.J 6.6.i.w.c z     SXSXSXSXSXSXSXSXSXSXSX",
"SXSXSXSXSXSXSXSXSXSXSXSXSX.   g g 5.i.J 5.e.w.p.a.w.r.9.7.y.w.t t X X SXSXSXSXSXSXSXSXSXSXSXSXSX",
"SXSXSXSXSXSXSXSXSXSXSXSXSX  . n g r.i.7.t.e.a.6.1.w.w.7.8.y.J.r r # $ SXSXSXSXSXSXSXSXSXSXSXSXSX",
"SXSXSXSXSXSXSXSXSXSXSXSXSX@.`     X   z c J 7.9.9.K K 2 f X X o o c I SXSXSXSXSXSXSXSXSXSXSXSXSX",
"SXSXSXSXSXSXSXSXSXSXSXSXSX` 4 O     X ` ` 7.J 6.8.J K k 1 X X o = I n SXSXSXSXSXSXSXSXSXSXSXSXSX",
"SXSXSXSXSXSXSXSXSXSXSX  X 6 P z { eX1Xj j r l f < 2.d d } 2XeXk : Q .., , SXSXSXSXSXSXSXSXSXSXSX",
"SXSXSXSXSXSXSXSXSXSXSXX X A P z z 1XeXx j n r 3 b d 2.) d 1X8XI I Q 8 , , SXSXSXSXSXSXSXSXSXSXSX",
"SXSXSXSXSXSXSXSXSX. . / O.2 A m h.rX7X. + <X3XrX8X5X5X% & 5X1Xh.d D V D Z @ @ SXSXSXSXSXSXSXSXSX",
"SXSXSXSXSXSXSXSXSX.   / o.A A h.m 8X8X. . 3X6X8XrX5X6Xo * 5X5Xh.k.C C Z V @ @ SXSXSXSXSXSXSXSXSX",
"SXSXSXSXSXSXSX$.$.SXnXbXcX    l.l.X   tX2X4X6X8X8X5X6XyXyX. + c.v.# X cXcXmXSXm %.SXSXSXSXSXSXSX",
"SXSXSXSXSXSXSX@.&.SXnXcXbX  X l.v.. . tXtX6X<X8X8X4X1X7X9X. . x.c.X X cXcXmXNX%.%.SXSXSXSXSXSXSX",
"SXSXSXSXSXSXSX$.$.SXSXnXnXX X ;.p y r 0.=.eX1XtXtX8XrXw.i.t : ;.;.= > MXNXNXNX:.:.SXSXSXSXSXSXSX",
"SXSXSXSXSXSXSX&.{ SXSXSXnXX # p ;.w y e.e.1XeX2X9X8X1Xw.i.: e :.;.% > NXMXnXSX:.>.SXSXSXSXSXSXSX",
"SXSXSXSXSXSXSXSXSXY Y k.} .. .kXkXF : 8X8X-.p.d.0.b.b.7X0Xi i *.lXZ V m R >.>.SXSXSXSXSXSXSXSXSX",
"SXSXSXSXSXSXSXSXSXY Y } k.....kX*.: F 8X8X-.=.6.0.R b.0X0Xu i lXlXV S Y u.>.;.SXSXSXSXSXSXSXSXSX",
"SXSXSXSXSXSXSXSXSXSXSXSXSX= % N S zXO.= = 7XuX3X3XwXg.$ & hXhXZ N +   SXSXSXSXSXSXSXSXSXSXSXSXSX",
"SXSXSXSXSXSXSXSXSXSXSXSXSX= % X.N hXzX= o 0X8X3X6XwXwX$ & hXjX .S   . SXSXSXSXSXSXSXSXSXSXSXSXSX",
"SXSXSXSXSXSXSXSXSXSXSXSXSX- - j.c.3.3.P L ^ ^ @.`  . .f U <.V.c.c.- - SXSXSXSXSXSXSXSXSXSXSXSXSX",
"SXSXSXSXSXSXSXSXSXSXSXSXSX@ @ c.x.c.3.6 2 ^ ^ ` `  .N b v <.<.T.j.- ; SXSXSXSXSXSXSXSXSXSXSXSXSX",
"SXSXSXSXSXSXSXSXSXSXSXSXSXSXSXX X o = CXCXVXZXAXZXZXVXVXBX* * * > SXSXSXSXSXSXSXSXSXSXSXSXSXSXSX",
"SXSXSXSXSXSXSXSXSXSXSXSXSXSXSXX X = o SXSXSXSXSXSXSXSXSXSX* * * > SXSXSXSXSXSXSXSXSXSXSXSXSXSXSX",
"SXSXSXSXSXSXSXSXSXSXSXSXSXSXSXSXSXSXSXSXSXSXSXSXSXSXSXSXSXVXVXZXAXSXSXSXSXSXSXSXSXSXSXSXSXSXSXSX",
"SXSXSXSXSXSXSXSXSXSXSXSXSXSXSXSXSXSXSXSXSXSXSXSXSXSXSXSXSXSXSXSXSXSXSXSXSXSXSXSXSXSXSXSXSXSXSXSX",
"SXSXSXSXSXSXSXSXSXSXSXSXSXSXSXSXSXSXSXSXSXSXSXSXSXSXSXSXSXSXSXSXSXSXSXSXSXSXSXSXSXSXSXSXSXSXSXSX",
"SXSXSXSXSXSXSXSXSXSXSXSXSXSXSXSXSXSXSXSXSXSXSXSXSXSXSXSXSXSXSXSXSXSXSXSXSXSXSXSXSXSXSXSXSXSXSXSX",
"SXSXSXSXSXSXSXSXSXSXSXSXSXSXSXSXSXSXSXSXSXSXSXSXSXSXSXSXSXSXSXSXSXSXSXSXSXSXSXSXSXSXSXSXSXSXSXSX",
"SXSXSXSXSXSXSXSXSXSXSXSXSXSXSXSXSXSXSXSXSXSXSXSXSXSXSXSXSXSXSXSXSXSXSXSXSXSXSXSXSXSXSXSXSXSXSXSX",
"SXSXSXSXSXSXSXSXSXSXSXSXSXSXSXSXSXSXSXSXSXSXSXSXSXSXSXSXSXSXSXSXSXSXSXSXSXSXSXSXSXSXSXSXSXSXSXSX"
};
