/* XPM */
static char *result[] = {
/* columns rows colors chars-per-pixel */
"48 59 244 2 ",
"   c #010201",
".  c #0C0002",
"X  c #000A02",
"o  c #02010B",
"O  c #0B000B",
"+  c #070B09",
"@  c #130001",
"#  c #190105",
"$  c #001207",
"%  c #020115",
"&  c #0C001C",
"*  c #030518",
"=  c #150116",
"-  c #021316",
";  c #15140A",
":  c #260001",
">  c #3C2C12",
",  c #36361A",
"<  c #0B0026",
"1  c #140725",
"2  c #351E30",
"3  c #3A2C2B",
"4  c #393829",
"5  c #382B38",
"6  c #29373A",
"7  c #383738",
"8  c #2A2C39",
"9  c #55161B",
"0  c #452F1E",
"q  c #482C28",
"w  c #592729",
"e  c #453325",
"r  c #4B3628",
"t  c #56382E",
"y  c #472B35",
"u  c #463638",
"i  c #563638",
"p  c #662A31",
"a  c #76353C",
"s  c #6E3334",
"d  c #551E24",
"f  c #164F22",
"g  c #3C4329",
"h  c #3E4231",
"j  c #2C522F",
"k  c #7C4E1D",
"l  c #575736",
"z  c #474834",
"x  c #7A412E",
"c  c #7D4431",
"v  c #77513E",
"b  c #654E3D",
"n  c #58623D",
"m  c #3D2E48",
"M  c #393944",
"N  c #363457",
"B  c #303253",
"V  c #3E3562",
"C  c #471C53",
"Z  c #473946",
"A  c #543941",
"S  c #4B3557",
"D  c #733B4C",
"F  c #4F2564",
"G  c #623669",
"H  c #384145",
"J  c #334B52",
"K  c #2B434C",
"L  c #316958",
"P  c #2C7967",
"I  c #387764",
"U  c #464447",
"Y  c #584446",
"T  c #5A574A",
"R  c #4C4555",
"E  c #654548",
"W  c #764848",
"Q  c #745B47",
"!  c #6D4A5A",
"~  c #695759",
"^  c #6F5648",
"/  c #5D6348",
"(  c #6C6342",
")  c #565F71",
"_  c #434462",
"`  c #724A65",
"'  c #78536D",
"]  c #457070",
"[  c #706A6C",
"{  c #B73E13",
"}  c #88373D",
"|  c #8F3535",
" . c #BA3237",
".. c #C23932",
"X. c #854E33",
"o. c #B9483B",
"O. c #BA513A",
"+. c #AB4B3C",
"@. c #BF461B",
"#. c #C6483A",
"$. c #C5503E",
"%. c #C34A1F",
"&. c #843B49",
"*. c #8E3547",
"=. c #A83D4D",
"-. c #B93847",
";. c #BA3555",
":. c #C53B49",
">. c #C03958",
",. c #8C4656",
"<. c #974A55",
"1. c #8A5758",
"2. c #9C5657",
"3. c #934947",
"4. c #A5474B",
"5. c #B94947",
"6. c #AA544D",
"7. c #A74754",
"8. c #B54C55",
"9. c #AA5557",
"0. c #B65459",
"q. c #B25A46",
"w. c #91596F",
"e. c #A65B64",
"r. c #B2526B",
"t. c #85657A",
"y. c #B4686E",
"u. c #916059",
"i. c #C55349",
"p. c #C94F54",
"a. c #D96D58",
"s. c #D77759",
"d. c #CD7557",
"f. c #E46B5B",
"g. c #ED6C5B",
"h. c #EB655A",
"j. c #F36C5C",
"k. c #F1655A",
"l. c #E37459",
"z. c #D96E66",
"x. c #D57A64",
"c. c #D97869",
"v. c #CA7A79",
"b. c #D97472",
"n. c #C87369",
"m. c #E96866",
"M. c #F46A64",
"N. c #FA6769",
"B. c #E37563",
"V. c #EA7667",
"C. c #F87268",
"Z. c #E76976",
"A. c #F66972",
"S. c #E77674",
"D. c #BB9906",
"F. c #B18600",
"G. c #C49B12",
"H. c #CA9109",
"J. c #CAA20D",
"K. c #B28878",
"L. c #BCA05E",
"P. c #DA8D52",
"I. c #EBA357",
"U. c #DB9A6E",
"Y. c #D49C78",
"T. c #CD9171",
"R. c #E99866",
"E. c #EA9B6F",
"W. c #C6A869",
"Q. c #D9A468",
"!. c #CAA578",
"~. c #D8A478",
"^. c #D4B678",
"/. c #EDA674",
"(. c #157B87",
"). c #9D6D87",
"_. c #1A808C",
"`. c #BCA78C",
"'. c #B9AEBD",
"]. c #B0ACB5",
"[. c #AA9D9A",
"{. c #CA9789",
"}. c #D79A88",
"|. c #C79D93",
" X c #D08B8A",
".X c #F08C90",
"XX c #D7A687",
"oX c #DAA599",
"OX c #CCA88B",
"+X c #DC9DAC",
"@X c #C1A8AC",
"#X c #D6ACA2",
"$X c #D5A9BB",
"%X c #CCB4BA",
"&X c #CCADB4",
"*X c #F2ACB3",
"=X c #E1A88B",
"-X c #F6D099",
";X c #DBCBA5",
":X c #E8CEA7",
">X c #F9C8A8",
",X c #ECD5AB",
"<X c #F7D6AB",
"1X c #FDC8B7",
"2X c #EBDAB5",
"3X c #F6D8B5",
"4X c #ECC7B7",
"5X c #FDE3B0",
"6X c #9BBCD6",
"7X c #BCA9D3",
"8X c #AABBD9",
"9X c #B7B7D8",
"0X c #B3B3C9",
"qX c #B2BCE9",
"wX c #A6A8D6",
"eX c #CE9FC6",
"rX c #D6AAC5",
"tX c #C6B7CA",
"yX c #D8B3C5",
"uX c #C4B3DB",
"iX c #D6AECF",
"pX c #E2B3CC",
"aX c #B8C3CC",
"sX c #A9C5E4",
"dX c #AFC3ED",
"fX c #CFC2CD",
"gX c #FCC8C7",
"hX c #FAD6C7",
"jX c #F7D6D2",
"kX c #EFCFD2",
"lX c #FCE5D6",
"zX c #FBEBCA",
"xX c #FADBE8",
"cX c #F5D8FF",
"vX c #C9F9FF",
"bX c #DBE2F5",
"nX c #FDE7E8",
"mX c #E4E7F6",
"MX c #FAE8FF",
"NX c #EAF9F9",
"BX c #FEFFFE",
"VX c #F8F7F9",
"CX c #FFF1E6",
"ZX c None",
/* pixels */
"ZXZXZXZXZXZXZXZXZXZXZXZXZXZXZXZXZXZXZXZXZXZXZXZXZXZXZXZXZXZXZXZXZXZXZXZXZXZXZXZXZXZXZXZXZXZXZXZX",
"ZXZXZXZXZXZXZXZXZXZXZXZXZXZXZXZXZXZXZXZXZXZXZXZXZXZXZXZXZXZXZXZXZXZXZXZXZXZXZXZXZXZXZXZXZXZXZXZX",
"ZXZXZXZXZXZXZXZXZXZXZXZXZXZXZXZXZXZXZXZXZXZXZXZXZXZXZXZXZXZXZXZXZXZXZXZXZXZXZXZXZXZXZXZXZXZXZXZX",
"ZXZXZXZXZXZXZXZXZXZXZXZXZXZXZXZXZXZXZXZXZXZXZXZXZXZXZXZXZXZXZXZXZXZXZXZXZXZXZXZXZXZXZXZXZXZXZXZX",
"ZXZXZXZXZXZXZXZXZXZXZXZXZXZXZXZXZXZXZXZXZXZXZXZXZXZXZXZXZXZXZXZXZXZXZXZXZXZXZXZXZXZXZXZXZXZXZXZX",
"ZXZXZXZXZXZXZXZXZXZXZXZXZXZXZXZXZXZXZXZXZXZXZXe r t r q q u 3 ZXZXZXZXZXZXZXZXZXZXZXZXZXZXZXZXZX",
"ZXZXZXZXZXZXZXZXZXZXZXZXZXZXZXZXZX4 7 4 4 e e e e 0 q q q 3 y ZXZXZXZXZXZXZXZXZXZXZXZXZXZXZXZXZX",
"ZXZXZXZXZXZXZXZXZXZXZXZXZXA y d p ZXv.S.Z.m.V.M.M.m.V.S.S. Xv.w w 3 A ZXZXZXZXZXZXZXZXZXZXZXZXZX",
"ZXZXZXZXZXZXZXZXZXZXZXZXZX3 A p w v.v.c.S.M.M.M.N.V.f.S.z.v.v.w w u y ZXZXZXZXZXZXZXZXZXZXZXZXZX",
"ZXZXZXZXZXZXZXZXZXZXZXq r 2.3.A.M.l.V.d.s.j.C.s.s.h.g.C.V.V.B.M.j.8.5.Z Z ZXZXZXZXZXZXZXZXZXZXZX",
"ZXZXZXZXZXZXZXZXZXZXZXy y 6.<.M.m.l.B.s.P.h.j.d.s.j.g.m.h.l.l.M.j.p.5.5 m ZXZXZXZXZXZXZXZXZXZXZX",
"ZXZXZXZXZXZXZXZXZXZXZXr q q.0.M.C.h.k.k.C.k.C.A.C.C.V.N.N.x.x.l.f.8.5.7 7 ZXZXZXZXZXZXZXZXZXZXZX",
"ZXZXZXZXZXZXZXZXZXZXZXu i b.b.m.N.M.g.k.M.k.M.M.h.f.h.N.N.s.z.g.g.S.z.Z 7 ZXZXZXZXZXZXZXZXZXZXZX",
"ZXZXZXZXZXZXZXZXZXZXZXq q Z.S.f.V.M.g.M.N.n.b.A.A.c.c.A.N.x.s.l.l.c.V.u 3 ZXZXZXZXZXZXZXZXZXZXZX",
"ZXZXZXZXZXZXZXZXZXZXZXi y A.Z.g.f.h.M.C.h.z.n.m.A.n.c.N.N.T.x.l.l.V.z.3 Y MXZXZXZXZXZXZXZXZXZXZX",
"ZXZXZXZXZXZXZXZXZXZ M 9 p a.V.V.l.B.V.v.n.[.K.v.T.K.y.m.Z.c.c.l.l.l.f.s 9 y A ZXZXZXZXZXZXZXZXZX",
"ZXZXZXZXZXZXZXZXZXM 5 e.9.o.i.a.l.m.V.n.v.hXlXhXjXlX4X.XZ.n.b.l.l.o.#.1.2.Z u ZXZXZXZXZXZXZXZXZX",
"ZXZXZXZXZXZXZXZXZX7 u 8.8.O.O.s.l.T.z.K.K.jXlXlXjXlXkX X XZ.Z.B.a.#.#.0.0.6 6 ZXZXZXZXZXZXZXZXZX",
"ZXZXZXZXZXZXZXZXZX  O 4.8.q.O.O.O.4.5.#X#XnXjXu.u.lXlX*X+Xp.8.o.O.#.$.7.4.O   NXZXZXZXZXZXZXZXZX",
"ZXZXZXZXZXZXZXZXZXO   9.4.+.q.-.i.r.7.kXrXxXxX<.e.nXkXfX0Xr.r.6.4.i.i.8.0.+ X VXZXZXZXZXZXZXZXZX",
"ZXZXZXZXZXZXZXZXZX    9.6.q.q.o.i.4.<.rXrXw.).7.9.[ t.'.tXr.r.7.0.o.o.7.0.X X BXZXZXZXZXZXZXZXZX",
"ZXZXZXZXZXZXZXZXZXo + 1.1.9.3.9.7.t.).7XuXw.w.w.w.~ t.9X7Xt.' 1.1.9.9.e.2.X X CXZXZXZXZXZXZXZXZX",
"ZXZXZXZXZXZXZXZXZX    w t 6.8.*X*XrXeX9XuXeXiX+X*XfX&X9X9XeXiXpX$Xq.4.p 9 X $ CXVXZXZXZXZXZXZXZX",
"ZXZXZXZXZXZXZXU 3 = % h 4 7.9.$X$X8XdXdXqXsXdX0XfXpXrXqXuX9XqX$X&X2.<.r t X X s w BXZXZXZXZXZXZX",
"ZXZXZXZXZXZXZX4 u O o g 4 9.e.$X$XsXsX6XdX8X8XfX0XrXiXuX9XdX9X%XyX9.u.q t   X w w BXZXZXZXZXZXZX",
"ZXZXZXZXZXZXZXo   I.P.' ! 0 r F F 0XaXcXcXvXvXmXNXnXnXbXmX8XaXC F > r Q W R.R.X - BXZXZXZXZXZXZX",
"ZXZXZXZXZXZXZX    P.I.` ! e > F F aX0XcXMXvXvXVXbXnXkXmXNX0X8XG C e e W W E.R.    BXZXZXZXZXZXZX",
"ZXZXZXZXZXZXZX  + ~.T.V N ~ [ l T ! t.X.x e > 5 A 7 H ~ ~ ~ ' G ' n n e e T.R.% * BXZXZXZXZXZXZX",
"ZXZXZXZXZXZXZX+   U.Y.V B ~ Y / / ! ` a X.e > A 5 M 7 ! ~ ! ` ' ' n n e e E.T.* * BXZXZXZXZXZXZX",
"ZXZXZXZXZXZXZXZXZX% % 5 M Q.Q.~ T XX!.r i }.oXXXY.|.|.Z u ].].W v W.^.3 Z @ @ BXZXZXZXZXZXZXZXZX",
"ZXZXZXZXZXZXZXZXZX& & M 7 Q.Q.T ~ !.!.q q {.{.=XXX|.#Xy y ].[.E v W.L.Z 5 . # BXZXZXZXZXZXZXZXZX",
"ZXZXZXZXZXZXZXZXZXZXZX@ # E.U.^.L.nXxX@ . 3X3X1X1X>X>X@ O bXNX!.XX~.~.* % NXNXZXZXZXZXZXZXZXZXZX",
"ZXZXZXZXZXZXZXZXZXZXZX@ @ R./.L.W.xXnX.   3X:X1XgX>X>X# @ mXmX!.!.~.T.% % ZXZXZXZXZXZXZXZXZXZXZX",
"ZXZXZXZXZXZXZXZXZXZXZXZXZXO . OXOXkXkX<X<X<X-XkXkX2X2X-X-XgX1XoX|.. @ NXZXZXZXZXZXZXZXZXZXZXZXZX",
"ZXZXZXZXZXZXZXZXZXZXZXZXZX+ . OXOXjXkX<X<X<X5XhXkX;XzX-X-XgX1X{.#X.   ZXZXZXZXZXZXZXZXZXZXZXZXZX",
"ZXZXZXZXZXZXZXZXZXZXZXZXZX* * } &.L.^.4X4X<X5XT.~.3X:X<X2X.X=Xk k o O ZXZXZXZXZXZXZXZXZXZXZXZXZX",
"ZXZXZXZXZXZXZXZXZXZXZXZXZX- * <.<.!.^.gX3X<X:XXXY.3X,X3X,X X XX.X.  o ZXZXZXZXZXZXZXZXZXZXZXZXZX",
"ZXZXZXZXZXZXZXZXZXZXZXo - 6 M H.H.,.&.5 7 `.#XU.~.T.XX8 M ,.1.D.G.z , < < ZXZXZXZXZXZXZXZXZXZXZX",
"ZXZXZXZXZXZXZXZXZXZXZXo * 6 K J.H.<.,.7 U `.`.U.U.XXY.M M ,.W G.D.4 z < < ZXZXZXZXZXZXZXZXZXZXZX",
"ZXZXZXZXZXZXZXZXZX} <.4 z j h F.G.%.{ wX0Xm 2 l , 4 4 7X7X-.-.J.D.j f m S b E ZXZXZXZXZXZXZXZXZX",
"ZXZXZXZXZXZXZXZXZX&.} z h j j H.J.{ @.7X9Xm M , , 4 4 7XuX .-.D.D.f j S S ^ W MXZXZXZXZXZXZXZXZX",
"ZXZXZXZXZXZXZXE E 3X1XoXoXz g b n  .....i.&X]._ B 8X6X:.:.....( v z r ~.!.>X<X&.&.ZXZXZXZXZXZXZX",
"ZXZXZXZXZXZXZXE ! <X3X=X{.z g l ( ....-. .@X@XB _ 6X6X:. .....^ ( z 0 !.!.>X<X,.&.BXZXZXZXZXZXZX",
"ZXZXZXZXZXZXZXE E 2X2XpXgX@ @   . *.*.=.=.tXyXM K tXtX-.:.| | o o = % hX2X,X2Xa D BXZXZXZXZXZXZX",
"ZXZXZXZXZXZXZX~ Y ,X:XgXgX. . +   *.| =.-.].].J K 0X0X:.p.| |   o O O 4XhX,X;X,.s BXZXZXZXZXZXZX",
"ZXZXZXZXZXZXZXZXZXx s 3.a O   ] ] O O # @   X O O = =   X X   ) ) * 1 W &.s X.VXBXZXZXZXZXZXZXZX",
"ZXZXZXZXZXZXZXZXZXc c &.&.  o ] ] O O # #     O O = = . X X X ) ) % % a ,.X.3.VXZXZXZXZXZXZXZXZX",
"ZXZXZXZXZXZXZXZXZXZXZXZXZX- - J K H M L I P P R Z (._.L ] g g U u O + ZXZXZXZXZXZXZXZXZXZXZXZXZX",
"ZXZXZXZXZXZXZXZXZXZXZXZXZX- $ 6 J H Z I I P P M Z (._.] L z 4 7 z o   ZXZXZXZXZXZXZXZXZXZXZXZXZX",
"ZXZXZXZXZXZXZXZXZXZXZXZXZX: : ;.;.;.-.# # X - % % & <     4.7.;.;.    ZXZXZXZXZXZXZXZXZXZXZXZXZX",
"ZXZXZXZXZXZXZXZXZXZXZXZXZX: : ;.>.>.>.@ @ + X * % & &     8.7.;.;.  ; ZXZXZXZXZXZXZXZXZXZXZXZXZX",
"ZXZXZXZXZXZXZXZXZXZXZXZXZXZXZXX X $ X ZXZXZXZXZXZXZXZXZXZX    o o ZXZXZXZXZXZXZXZXZXZXZXZXZXZXZX",
"ZXZXZXZXZXZXZXZXZXZXZXZXZXZXZXX X X X ZXZXZXZXZXZXZXZXZXZX      o ZXZXZXZXZXZXZXZXZXZXZXZXZXZXZX",
"ZXZXZXZXZXZXZXZXZXZXZXZXZXZXZXZXZXZXZXZXZXZXZXZXZXZXZXZXZXZXZXZXZXZXZXZXZXZXZXZXZXZXZXZXZXZXZXZX",
"ZXZXZXZXZXZXZXZXZXZXZXZXZXZXZXZXZXZXZXZXZXZXZXZXZXZXZXZXZXZXZXZXZXZXZXZXZXZXZXZXZXZXZXZXZXZXZXZX",
"ZXZXZXZXZXZXZXZXZXZXZXZXZXZXZXZXZXZXZXZXZXZXZXZXZXZXZXZXZXZXZXZXZXZXZXZXZXZXZXZXZXZXZXZXZXZXZXZX",
"ZXZXZXZXZXZXZXZXZXZXZXZXZXZXZXZXZXZXZXZXZXZXZXZXZXZXZXZXZXZXZXZXZXZXZXZXZXZXZXZXZXZXZXZXZXZXZXZX",
"ZXZXZXZXZXZXZXZXZXZXZXZXZXZXZXZXZXZXZXZXZXZXZXZXZXZXZXZXZXZXZXZXZXZXZXZXZXZXZXZXZXZXZXZXZXZXZXZX",
"ZXZXZXZXZXZXZXZXZXZXZXZXZXZXZXZXZXZXZXZXZXZXZXZXZXZXZXZXZXZXZXZXZXZXZXZXZXZXZXZXZXZXZXZXZXZXZXZX"
};
