/* XPM */
static char *a33185509464462fc77769b1b3894ad5FE3V5SIpi7LAQarJ[] = {
/* columns rows colors chars-per-pixel */
"48 59 244 2 ",
"   c None",
".  c #030300",
"X  c #0B0201",
"o  c #010A02",
"O  c #04020A",
"+  c #150300",
"@  c #1A0000",
"#  c #170508",
"$  c #001300",
"%  c #03130A",
"&  c #030317",
"*  c #25001A",
"=  c #240201",
"-  c #002300",
";  c #3D3A16",
":  c #3C320E",
">  c #040323",
",  c #2E2938",
"<  c #3B2A37",
"1  c #3C343A",
"2  c #393334",
"3  c #39322B",
"4  c #1F3930",
"5  c #482B01",
"6  c #562608",
"7  c #583B0B",
"8  c #4A2918",
"9  c #562919",
"0  c #443A18",
"q  c #563013",
"w  c #4D3207",
"e  c #692C00",
"r  c #69300A",
"t  c #62381E",
"y  c #7F2314",
"u  c #431E32",
"i  c #482B25",
"p  c #582928",
"a  c #473229",
"s  c #5A342C",
"d  c #482A38",
"f  c #582737",
"g  c #46333B",
"h  c #463838",
"j  c #583837",
"k  c #753431",
"l  c #274C35",
"z  c #364933",
"x  c #1B4628",
"c  c #464119",
"v  c #7C5F13",
"b  c #76590D",
"n  c #454627",
"m  c #48443D",
"M  c #5E462A",
"N  c #774626",
"B  c #6E4E2D",
"V  c #796131",
"C  c #382C47",
"Z  c #3B3B47",
"A  c #26325C",
"S  c #33364D",
"D  c #2F3B65",
"F  c #532D43",
"G  c #473745",
"H  c #423C51",
"J  c #543049",
"K  c #683944",
"L  c #6F3649",
"P  c #673666",
"I  c #2B4645",
"U  c #2C4957",
"Y  c #29677E",
"T  c #4F4654",
"R  c #74464E",
"E  c #7A4654",
"W  c #775857",
"Q  c #6D4F4A",
"!  c #7C6156",
"~  c #7D5E66",
"^  c #5D6574",
"/  c #565E6D",
"(  c #812516",
")  c #8E3223",
"_  c #83273A",
"`  c #85373B",
"'  c #90333D",
"]  c #B13631",
"[  c #C73E36",
"{  c #995202",
"}  c #994719",
"|  c #865314",
" . c #894508",
".. c #854B2B",
"X. c #93492D",
"o. c #945222",
"O. c #9C4737",
"+. c #8D5335",
"@. c #8B5232",
"#. c #AB4A3D",
"$. c #BB4B3D",
"%. c #B7493C",
"&. c #AA5539",
"*. c #A3563B",
"=. c #B2523B",
"-. c #B15A3F",
";. c #A9512B",
":. c #A46232",
">. c #CD443C",
",. c #8B3B44",
"<. c #96394A",
"1. c #BC3F53",
"2. c #AF3449",
"3. c #CF2C49",
"4. c #995748",
"5. c #9C4756",
"6. c #985755",
"7. c #8E5151",
"8. c #A74A4B",
"9. c #B94C4A",
"0. c #B64A46",
"q. c #A75A47",
"w. c #B45443",
"e. c #B15049",
"r. c #B75946",
"t. c #A44A55",
"y. c #B84B50",
"u. c #B4495A",
"i. c #BC4356",
"p. c #A45455",
"a. c #AA5252",
"s. c #AC555B",
"d. c #A9585B",
"f. c #B65556",
"g. c #906656",
"h. c #AB614E",
"j. c #B15564",
"k. c #9E6166",
"l. c #B06C6A",
"z. c #C14255",
"x. c #CA534A",
"c. c #DB6D57",
"v. c #DC744F",
"b. c #EC6B56",
"n. c #EC6E5B",
"m. c #E56857",
"M. c #F26B5E",
"N. c #F96858",
"B. c #E4735B",
"V. c #E77557",
"C. c #F5715B",
"Z. c #F1664F",
"A. c #C64D60",
"S. c #DE6A66",
"D. c #DD7464",
"F. c #D87862",
"G. c #DC746C",
"H. c #CF7473",
"J. c #EB6E64",
"K. c #E86969",
"L. c #F76860",
"P. c #F96766",
"I. c #E47364",
"U. c #E3726A",
"Y. c #E97666",
"T. c #F47465",
"R. c #F67476",
"E. c #EE6D74",
"W. c #EE5A58",
"Q. c #BD9E00",
"!. c #A99D15",
"~. c #AE8E1F",
"^. c #BDA300",
"/. c #B1A41C",
"(. c #B89829",
"). c #AEA119",
"_. c #C99703",
"`. c #DB9213",
"'. c #D2880A",
"]. c #CAA700",
"[. c #D1A200",
"{. c #C0A031",
"}. c #E4961A",
"|. c #B99E57",
" X c #E39B47",
".X c #EEA652",
"XX c #D69E7B",
"oX c #CB956F",
"OX c #C9A76A",
"+X c #DDA16D",
"@X c #D4AB7D",
"#X c #CDAA73",
"$X c #E0A470",
"%X c #337188",
"&X c #3B63A8",
"*X c #426AAF",
"=X c #8A7F90",
"-X c #E37E82",
";X c #A499AA",
":X c #9FA7B4",
">X c #ACA8B8",
",X c #B8ACB9",
"<X c #B6B1B2",
"1X c #968B9C",
"2X c #DF8E94",
"3X c #DA9393",
"4X c #CE958A",
"5X c #E79999",
"6X c #E2958D",
"7X c #C8A587",
"8X c #D8A88B",
"9X c #C0B5B8",
"0X c #DBACA2",
"qX c #EBA4A4",
"wX c #F6BFB1",
"eX c #DFD2BF",
"rX c #DACDBC",
"tX c #FFCBBE",
"yX c #FCC7B8",
"uX c #F9D7B6",
"iX c #E8CCA4",
"pX c #AAB8C8",
"aX c #B9BAC8",
"sX c #B1ACC2",
"dX c #C2B8C9",
"fX c #DFD4C2",
"gX c #C5C1CF",
"hX c #E9DDCB",
"jX c #F4D4D0",
"kX c #F8E8D3",
"lX c #F7EED7",
"zX c #F9DFEC",
"xX c #E5DDF3",
"cX c #F5DDF5",
"vX c #ECE4EA",
"bX c #F5E9EB",
"nX c #FFFDE7",
"mX c #E9E7FA",
"MX c #FEEDFF",
"NX c #F7EAF9",
"BX c #FFF4FF",
"VX c #FDFEFF",
"CX c #FFFCF2",
"ZX c #ECF5FB",
/* pixels */
"                                                                                                ",
"                                                                                                ",
"                                                                                                ",
"                                                                                                ",
"                                                                                                ",
"                                                                                                ",
"                                                                                                ",
"                                    g 1 1 1 1 1 1 1 1 2 h 2 2                                   ",
"                                    G.L.L.M.M.F.F.P.P.J.B.*.4.g G                               ",
"                            d p p G.G.N.L.M.M.F.F.P.P.B.m.*.*.d d                               ",
"                          7.7.oXH.F.D.M.M.M.J.D.I.m.m.b.T.S.R.g.7.F f                           ",
"                        d k.k.H.l.F.D.M.M.M.L.D.F.+Xm.n.J.S.S.g.7.f K                           ",
"                        f G.H.U.+XB.m.n.n.M.J.I.I.v.v.I.U.E.-XN.N.S C CX                        ",
"                      p f -XG.S.K.B.B.n.b.M.M.I.I.v.V.J.Y.K.E.N.P.S D BX                        ",
"                  , 2 k.s.K.R.m.N.V.V.V.B.J.J.J.J.V.V.I.U.U.K.P.P.pX:Xg                         ",
"                  Z 1 6.5.E.P.b.b.v.V.B.V.J.J.I.J.m.V.B.I.U.K.P.L.aXpXg g                       ",
"                  1 1 s.t.P.N.C.N.v.B.I.D.J.I.K.J.I.Y.C.b.Y.Y.hXbXp.d.^ / S                     ",
"                  1 1 s.s.P.W.Z.Z.V.V.I.I.J.J.J.J.n.m.m.b.c.c.ZXvX4.d.T ^ 4                     ",
"                  g < a.8.x.x.C.C.D.F.G.U.U.I.S.D.T.K.J.V.&.*.NXmXh.4.BXmXmXmX    VX            ",
"                  G d s.8.[ >.Z.V.D.D.U.G.U.U.I.I.K.m.n.B.&.q.vXvX4.4.mXmXZXmXI   VX            ",
"                  j d a.d.$.%.r.$.e.e.y.y.9.9.=.=.x.0.r.w.O.O.j.j.9X<XNXcXxXxXI   VX            ",
"                  d d p.d.$.$.$.=.e.e.y.9.9.9.=.=.%.#.w.=.f.f.j.u.<X<XNXNXBXcXS                 ",
"                VXf s 4.4.#.w.w.w.a.a.u.u.9.9.&.&.4.q.f.f.z.z.$.$.P P vXzX>X,XT                 ",
"                VXi j 5.p.r.e.#.q.8.a.y.u.9.9.&.&.4.*.8.f.z.z.x.] P P NXvXaX,X                  ",
"                  a 3 F F s.5.f.e.=.%.f.0.p.8.&.-.z.z.g.6.f.t._ _ ,XaXsXaXF F                   ",
"                  j a d d s.s.8.f.x.r.9.0.f.d.&.&.i.i.7.6.s.t.<._ dX>XaXsXF                     ",
"                  q q +...G G d g , < A A d d C H a i h a < 1 G G , H , <                       ",
"                  q t ..+.< < d g H H A D d F G G a a h 3 h h g G G g G C                       ",
"                    lX0 : o.:.| | ..N { { 9 q X.X.8 i L E 1X1X& O R K Q j                       ",
"                    nX0 0 } N | o...@.{  .t 6 X.X.s d 7.L ;X;XO O R E R W                       ",
"                    ZXX X ; ; ~ Q V B 8 j |.oX0X4X6 r 2X2XzXjXO . 3X3Xk k                       ",
"                      X . 0 ; Q W B V a 3 @XoX0X7Xr 6 5X5XzXbXO O 3XqXN B                       ",
"                      CXCX9 p } ;.} } e e $X8XoX7XOXOXuXiXhXhXeXhXuXuXXX                        ",
"                        CXs p } o.;.) e e @X@X8X7X#X|.uXuXeXeXhXrXuXuX7X                        ",
"                          MXBX. o O & B N s p  X.X+X$X#XoXtXyXjXjXM B                           ",
"                            BXo + & & B @.i a  X.X+X@X#X8XwXyXyXjXM M                           ",
"                            nX5 5 /.!.Z , 7 w ; : 5X3Xk ` <.8.` '                               ",
"                          nXnX7 7 !.!.Z Z 5 w 0 c 3XqX` ` ' _ ` ,.                              ",
"                        VXq 6 Q.Q.].].'.`.} } `.'.pXpX,X9XK E                                   ",
"                        VXq 8 ].^._._.'.`.} } }.`.pXpX9X,XL K                                   ",
"                        BX# X v | ^.^.(.{.X X z z c n . O <.5.g g                               ",
"                        BXX # b b ].^.(.).# + z z z n . O t.5.g T                               ",
"                          @ @ _._.' O.@...X X U U yXyXfXfXX # 4 z                               ",
"                          @ # _._.X.X...+.X X U U yXwXhXkX. X z I                               ",
"                          X X ! Q /.{.+ @ h T 3 2 5X5X3X4XX X 2 m                               ",
"                          X X W B /.).@ = d h m m oX6X6XqXX . m h                               ",
"                              o $ . % % % &X&X%XY - $ . X x l                                   ",
"                              o o O O % o *X&X%X%X$ $ X $ l l                                   ",
"                                      * * ) ( $.] 3.3.2.i.$ o                                   ",
"                                      * * y ) ] z.3.3.i.2.o $                                   ",
"                                          > & . . . . X X                                       ",
"                                          & > . o + . + X                                       ",
"                                                                                                ",
"                                                                                                ",
"                                                                                                ",
"                                                                                                ",
"                                                                                                ",
"                                                                                                ",
"                                                                                                "
};
