/* XPM */
static char *result[] = {
/* columns rows colors chars-per-pixel */
"32 32 168 2 ",
"   c black",
".  c #030201",
"X  c #030301",
"o  c #040402",
"O  c #050402",
"+  c #050502",
"@  c #050503",
"#  c #060503",
"$  c #070603",
"%  c #080704",
"&  c #0B0905",
"*  c #0B0A05",
"=  c #0B0A06",
"-  c #0C0B06",
";  c #0E0D06",
":  c #0F0D07",
">  c #131108",
",  c #16140A",
"<  c #17150B",
"1  c #1F1D0F",
"2  c #2C2613",
"3  c #2E2713",
"4  c #292514",
"5  c #292614",
"6  c #2C2916",
"7  c #322D17",
"8  c #3E3920",
"9  c #4A3E1D",
"0  c #504A29",
"q  c #5C5630",
"w  c #675729",
"e  c #725D28",
"r  c #72612E",
"t  c #7C642B",
"y  c #7D652D",
"u  c #856425",
"i  c #82672B",
"p  c #82672D",
"a  c #866B2E",
"s  c #896D2F",
"d  c #81763E",
"f  c #987731",
"g  c #957833",
"h  c #977834",
"j  c #E75F0A",
"k  c #E7600A",
"l  c #E8610B",
"z  c #E8620B",
"x  c #E8630B",
"c  c #E9640C",
"v  c #E9660C",
"b  c #EB690F",
"n  c #ED7807",
"m  c #ED750D",
"M  c #ED7B0E",
"N  c #EF7812",
"B  c #ED7D11",
"V  c #EF7D14",
"C  c #F07E13",
"Z  c #877B43",
"A  c #837C47",
"S  c #B58733",
"D  c #B28F3B",
"F  c #B7943E",
"G  c #EF8207",
"H  c #EF840A",
"J  c #F0860C",
"K  c #F0870C",
"L  c #F1890E",
"P  c #F18A0F",
"I  c #F38B0E",
"U  c #F28A0F",
"Y  c #F28B0F",
"T  c #F38C0E",
"R  c #EE8A11",
"E  c #F18015",
"W  c #F28016",
"Q  c #F18216",
"!  c #F38617",
"~  c #F48517",
"^  c #F28C10",
"/  c #F28815",
"(  c #F48F16",
")  c #F48818",
"_  c #F48918",
"`  c #F6891A",
"'  c #F48C19",
"]  c #F68E18",
"[  c #F58D1A",
"{  c #F59114",
"}  c #F59414",
"|  c #F19119",
" . c #F39019",
".. c #F1931B",
"X. c #F2921B",
"o. c #F3901D",
"O. c #F2921D",
"+. c #F7951C",
"@. c #F6971C",
"#. c #F8941D",
"$. c #F8971D",
"%. c #F6981C",
"&. c #F6991C",
"*. c #F6981D",
"=. c #F99B19",
"-. c #F89A1A",
";. c #F99B1F",
":. c #FA9A1E",
">. c #F99F1D",
",. c #F89C1F",
"<. c #F99C1F",
"1. c #FA9C1F",
"2. c #FA9D1F",
"3. c #FB9D1F",
"4. c #CF8B28",
"5. c #DD952A",
"6. c #C89639",
"7. c #EE9822",
"8. c #F29520",
"9. c #DCA337",
"0. c #D7A63C",
"q. c #ECA12C",
"w. c #FBA120",
"e. c #FBA220",
"r. c #FBA522",
"t. c #FDA520",
"y. c #FDA620",
"u. c #FCA721",
"i. c #FCA522",
"p. c #FCA622",
"a. c #FCA722",
"s. c #FDA923",
"d. c #FEA923",
"f. c #FEAA23",
"g. c #FDAC27",
"h. c #FEB02C",
"j. c #FDB02E",
"k. c #FEB22E",
"l. c #FDAF33",
"z. c #FDBA3A",
"x. c #A08D49",
"c. c #B99442",
"v. c #BA9A47",
"b. c #A09656",
"n. c #B0A764",
"m. c #BCB570",
"M. c #C9B861",
"N. c #CEBC63",
"B. c #C3B86F",
"V. c #C0B670",
"C. c #FEC148",
"Z. c #FECE5E",
"A. c #D5C367",
"S. c #FED366",
"D. c #FDD865",
"F. c #FED569",
"G. c #FCDD6C",
"H. c #FCE273",
"J. c #F5E37E",
"K. c #FCE679",
"L. c #FEE27D",
"P. c #FEE786",
"I. c #FEF095",
"U. c #FEF294",
"Y. c #FAF199",
"T. c #FEF7A0",
"R. c #FEF8A2",
"E. c None",
/* pixels */
"E.E.E.E.E.E.E.E.E.E.E.E.E.E.E.E.E.E.E.E.E.E.E.E.E.E.E.E.E.E.E.E.",
"E.E.E.E.E.E.E.E.E.E.E.E.E.E.E.E.E.E.E.E.E.E.E.E.E.E.E.E.E.E.E.E.",
"E.E.E.E.E.E.E.E.E.E.E.E.E.E.E.E.E.E.E.E.E.E.E.E.E.E.E.E.E.E.E.E.",
"E.E.E.E.E.E.E.E.E.E.E.E.E.E.E.E.E.E.E.E.E.E.E.E.E.E.E.E.E.E.E.E.",
"E.E.E.E.E.E.E.E.E.E.E.E.E.E.E.E.E.E.E.E.E.E.E.E.E.E.E.E.E.E.E.E.",
"E.E.E.E.E.E.E.E.E.E.E.E.E.E.E.E.E.E.E.E.E.E.E.E.E.E.E.E.E.E.E.E.",
"E.E.E.E.E.E.E.E.E.E.E.E.E.E.E.E.E.E.E.E.E.E.E.E.E.E.E.E.E.E.E.E.",
"E.E.E.E.E.E.E.E.E.E.E.E.E.E.E.E.E.E.E.E.E.E.E.E.E.E.E.E.E.E.E.E.",
"E.E.E.E.E.E.E.E.E.E.E.E.E.- $ @ O X E.E.E.E.E.E.E.E.E.E.E.E.E.E.",
"E.E.E.E.E.E.E.E.E.E.E.< Z F v.V.B.x.r 5 E.E.E.E.E.E.E.E.E.E.E.E.",
"E.E.E.E.E.E.E.E.E.  8 n.Y.P.h.S.Z.j.q.6.4 E.E.E.E.E.E.E.E.E.E.E.",
"E.E.E.E.E.E.E.E.= 6 m.R.I.C.f.f.f.f.=.K S 2 E.E.E.E.E.E.E.E.E.E.",
"E.E.E.E.E.E.E.E.1 b.R.T.F.f.s.f.f.i.1.T | f - E.E.E.E.E.E.E.E.E.",
"E.E.E.E.E.E.E.E.d J.U.L.l.#.a.g.f.) x C H 5.7   E.E.E.E.E.E.E.E.",
"E.E.E.E.E.E.E., A.K.H.z.` c _ s.:.z j k n R e   E.E.E.E.E.E.E.E.",
"E.E.E.E.E.E.E.+ M.K.D.3.c j l ;.a.W l N G J p   E.E.E.E.E.E.E.E.",
"E.E.E.E.E.E.E.+ N.G.k.f.) k E u.f.,.+.&.} P p   E.E.E.E.E.E.E.E.",
"E.E.E.E.E.E.E.% 0.h.f.d.t.! w.e.( v '  .>.Y a   E.E.E.E.E.E.E.E.",
"E.E.E.E.E.E.E.# D k.f.a.-.<.p.$.x j z b %.7.9   E.E.E.E.E.E.E.E.",
"E.E.E.E.E.E.E.  3 9.y.f.' x [ r.V l ~ Q X.c.* E.E.E.E.E.E.E.E.E.",
"E.E.E.E.E.E.E.E.@ i ^ { x j v *.@.m ] 2.o.q   E.E.E.E.E.E.E.E.E.",
"E.E.E.E.E.E.E.E.E.; u ..M l / I G J L O.0 o E.E.E.E.E.E.E.E.E.E.",
"E.E.E.E.E.E.E.E.E.E.> y 4.B U J J J 8.A + E.E.E.E.E.E.E.E.E.E.E.",
"E.E.E.E.E.E.E.E.E.E.E.. & t s g h w :   E.E.E.E.E.E.E.E.E.E.E.E.",
"E.E.E.E.E.E.E.E.E.E.E.E.          E.E.E.E.E.E.E.E.E.E.E.E.E.E.E.",
"E.E.E.E.E.E.E.E.E.E.E.E.E.E.E.E.E.E.E.E.E.E.E.E.E.E.E.E.E.E.E.E.",
"E.E.E.E.E.E.E.E.E.E.E.E.E.E.E.E.E.E.E.E.E.E.E.E.E.E.E.E.E.E.E.E.",
"E.E.E.E.E.E.E.E.E.E.E.E.E.E.E.E.E.E.E.E.E.E.E.E.E.E.E.E.E.E.E.E.",
"E.E.E.E.E.E.E.E.E.E.E.E.E.E.E.E.E.E.E.E.E.E.E.E.E.E.E.E.E.E.E.E.",
"E.E.E.E.E.E.E.E.E.E.E.E.E.E.E.E.E.E.E.E.E.E.E.E.E.E.E.E.E.E.E.E.",
"E.E.E.E.E.E.E.E.E.E.E.E.E.E.E.E.E.E.E.E.E.E.E.E.E.E.E.E.E.E.E.E.",
"E.E.E.E.E.E.E.E.E.E.E.E.E.E.E.E.E.E.E.E.E.E.E.E.E.E.E.E.E.E.E.E."
};
