/* XPM */
static char *result[] = {
/* columns rows colors chars-per-pixel */
"35 60 229 2 ",
"   c #0C0E0D",
".  c #0C130C",
"X  c #0B1C0B",
"o  c #141910",
"O  c #0A240B",
"+  c #0B2B0B",
"@  c #072E09",
"#  c #11240E",
"$  c #09330A",
"%  c #063B09",
"&  c #0A3C0B",
"*  c #063508",
"=  c #143A0D",
"-  c #182814",
";  c #1B3313",
":  c #183C13",
">  c #0E2210",
",  c #2F3709",
"<  c #232613",
"1  c #2C3C11",
"2  c #212420",
"3  c #2F3C30",
"4  c #413E25",
"5  c #0A420A",
"6  c #09480A",
"7  c #13480C",
"8  c #05540A",
"9  c #045C09",
"0  c #0C5A0B",
"q  c #09540A",
"w  c #1A4616",
"e  c #1A5212",
"r  c #10510A",
"t  c #264918",
"y  c #304C1B",
"u  c #265B16",
"i  c #325516",
"p  c #305409",
"a  c #05600B",
"s  c #0A6D0A",
"d  c #0A630B",
"f  c #1A6A0B",
"g  c #0A7907",
"h  c #177A0D",
"j  c #1C6912",
"k  c #1B7210",
"l  c #256A14",
"z  c #36661B",
"x  c #287A13",
"c  c #357A18",
"v  c #2D6A08",
"b  c #3C4E21",
"n  c #3B6422",
"m  c #38712F",
"M  c #51550E",
"N  c #496109",
"B  c #576B06",
"V  c #4C6316",
"C  c #56750D",
"Z  c #697C01",
"A  c #737702",
"S  c #717801",
"D  c #787C0E",
"F  c #667918",
"G  c #6A6E0C",
"H  c #455C24",
"J  c #53552D",
"K  c #585C31",
"L  c #4C4A2A",
"P  c #4B6627",
"I  c #586629",
"U  c #547B28",
"Y  c #4F6F2B",
"T  c #696636",
"R  c #687736",
"E  c #73773B",
"W  c #756F31",
"Q  c #6C5708",
"!  c #4B5947",
"~  c #5A6651",
"^  c #A61702",
"/  c #B73703",
"(  c #BC2302",
")  c #D61A01",
"_  c #E90B03",
"`  c #FE0000",
"'  c #F50904",
"]  c #EA1507",
"[  c #E42D11",
"{  c #AC400B",
"}  c #86731C",
"|  c #836F28",
" . c #AD6D33",
".. c #F65E08",
"X. c #F25011",
"o. c #F86909",
"O. c #F47410",
"+. c #0B8C08",
"@. c #138A0E",
"#. c #29830F",
"$. c #268718",
"%. c #3D881D",
"&. c #3D981D",
"*. c #16AE0F",
"=. c #3EA91E",
"-. c #2DAE0F",
";. c #329135",
":. c #53960B",
">. c #4A910E",
",. c #698102",
"<. c #77851F",
"1. c #759A18",
"2. c #6C8513",
"3. c #4AB31E",
"4. c #4B8327",
"5. c #588629",
"6. c #569527",
"7. c #41993B",
"8. c #738924",
"9. c #6A8737",
"0. c #738C3A",
"q. c #79883B",
"w. c #669835",
"e. c #7A9B39",
"r. c #6B932D",
"t. c #5FB428",
"y. c #5DAB2D",
"u. c #7AA537",
"i. c #6CAF2F",
"p. c #3AC810",
"a. c #5ACE23",
"s. c #7DCF30",
"d. c #7F8542",
"f. c #6B9E45",
"g. c #44B441",
"h. c #68B949",
"j. c #78CA4B",
"k. c #859E18",
"l. c #82A61C",
"z. c #898B38",
"x. c #9E973F",
"c. c #8C8A31",
"v. c #88A73A",
"b. c #9BA83E",
"n. c #9CBB3D",
"m. c #ADAF36",
"M. c #F98506",
"N. c #FB9A05",
"B. c #EA910D",
"V. c #D8B618",
"C. c #DEA00A",
"Z. c #FCAA05",
"A. c #FBA607",
"S. c #FCB403",
"D. c #FEBA04",
"F. c #FCB30B",
"G. c #F9B90A",
"H. c #FAAF18",
"J. c #F8B816",
"K. c #F6832B",
"L. c #F09538",
"P. c #F9B827",
"I. c #F8B53C",
"U. c #83C72D",
"Y. c #96D339",
"T. c #92CF38",
"R. c #FCC21E",
"E. c #F8C22A",
"W. c #F9C638",
"Q. c #868844",
"!. c #839341",
"~. c #8B9446",
"^. c #879D44",
"/. c #94954B",
"(. c #939C49",
"). c #9D9B4E",
"_. c #989549",
"`. c #9D9F51",
"'. c #A09D4F",
"]. c #AA9A42",
"[. c #A49E51",
"{. c #A89F53",
"}. c #8CA448",
"|. c #95A24B",
" X c #9DA14D",
".X c #9CA356",
"XX c #98B051",
"oX c #A2A14D",
"OX c #A0AC4B",
"+X c #A8B744",
"@X c #B9B94A",
"#X c #A6A352",
"$X c #B8B453",
"%X c #A5B752",
"&X c #C09A47",
"*X c #C2BC4C",
"=X c #F7B549",
"-X c #97CC46",
";X c #B4C346",
":X c #B9C449",
">X c #B7D545",
",X c #ABCE4D",
"<X c #C0C84B",
"1X c #C9D74D",
"2X c #CAC652",
"3X c #D5CC57",
"4X c #DAD654",
"5X c #D6DC52",
"6X c #DBDD54",
"7X c #D8D556",
"8X c #CDDA53",
"9X c #F8CA46",
"0X c #FACC57",
"qX c #E3DF57",
"wX c #E5DC59",
"eX c #ECDE5B",
"rX c #E4D75B",
"tX c #DBE154",
"yX c #E1E156",
"uX c #E6E058",
"iX c #ECE05B",
"pX c #F1E25D",
"aX c #F4D56D",
"sX c #8F9384",
"dX c #BABB9D",
"fX c #C5C69B",
"gX c #F7D994",
"hX c #E4E4E4",
"jX c None",
/* pixels */
"jXjXjXjXjXjXjXjXjXjXjXjXjXjXjXjXjXjXjXjXjXjXjXjXjXjXjXjXjXjXjXjXjXjXjX",
"jXjXjXjXjXjXjXjXjXjXjXjXjXjXjXjXjXjXjXjXjXjXjXjXjXjXjXjXjXjXjXjXjXjXjX",
"jXjXjXjXjXjXjXjXjXjXjXjXjXjXjXjXjXjXjXjXjXjXjXjXjXjXjXjXjXjXjXjXjXjXjX",
"jXjXjXjXjXjXjXjXjXjXjXjXjXjXjXjXjXjXjXjXjXjXjXjXjXjXjXjXjXjXjXjXjXjXjX",
"jXjXjXjXjXjXjXjXjXjXjXjXjXjXjXjXjX% jXjXjXjXjXjXjXjXjXjXjXjXjXjXjXjXjX",
"jXjXjXjXjXjXjXjXjXjXjXjXA D jXjXX % + jXjXjXA c.jXjXjXjXjXjXjXjXjXjXjX",
"jXjXjXjXjXjXjXjXjXjXjXjXA A jXjX6 +.f = sXz.A #XhXjXjXjXjXjXjXjXjXjXjX",
"jXjXjXjXjXjXjXjXjXjXjX< A A 1 & y.Y.;X+XK G S I jXjXjXjXjXjXjXjXjXjXjX",
"jXjXjXjXjXjXjXjXjXjXO * , S Z >.tXiXuX6X1.A B @ * X jXjXjXjXjXjXjXjXjX",
"jXjXjXjXjXjXjXjXjXjX% s , S Z s.iX1XuX>X:.A M 7 s @ 8 jXjXjXjXjXjXjXjX",
"jXjXjXjXjXjXjXjXjXO &.3.= B Z U.iXn.5X1X:.A p 0.}.5.q jXjXjXjXjXjXjXjX",
"jXjXjXjXjXjXjXjXjX= qXeX;X:.S l.tX;X5X1XZ S r.'.#X[.H 9 jXjXjXjXjXjXjX",
"jXjXjXjXjXjXjXjXX l iXpXiX>X,.k.yX;XtX1XA :.3.(.).[.9.+ a jXjXjXjXjXjX",
"jXjXjXjXjXjXjXjXX x pXpXuXqX1.k.yX@XtX5X,.-.T.eX7X[.~.+ a jXjXjXjXjXjX",
"jXjXjXjXjXjXjXjXX x pXpX5XqXU.p.tX:X>XuXtXuXpXpXqX X/.; a jXjXjXjXjXjX",
"jXjXjXjXjXjXjXjXX h uX6Xt.6XtXa.tX:Xi.@XiXpXiXiXtX4X5.+ a jXjXjXjXjXjX",
"jXjXjXjXjXjXjXjXX 8 t.i.@.s.yXtXuX+X|.#X3XeX8Xi.Y.pX8.O 9 jXjXjXjXjXjX",
"jXjXjXjXjXjXjXjXjXO w.(.=.*.Y.3X$X5.'.{.%XU.-.+.i.iXx.O a jXjXjXjXjXjX",
"jXjXjXjXjXjXjXjXjXjX0.).1.] Q v. XY '.{.z.( / f %.4X@XX 9 jXjXjXjXjXjX",
"jXjXjXjXjXjXjXjXjXjXd.).D ' ) W  XR |.{. .` / f f 3X*X  % jXjXjXjXjXjX",
"jXjXjXjXjXjXjXjXjXjX~./.F _ ` [ y.z -.<.' ` { 5.y :Xb.X % jXjXjXjXjXjX",
"jXjXjXjXjXjXjXjXjXh Q.Q.x ^ ` ) *.$ g Z ` ] Q.).J $.k @ 9 jXjXjXjXjXjX",
"jXjXjXjXjXjXjXjXjX$ e E !.| ] ) g X 5 B '  .[.d.; 8 # l 0 jXjXjXjXjXjX",
"jXjXjXjXjXjXjXjXd.! d I /.).x.} r   O v c.{.^.; r f P /.H jXjXjXjXjXjX",
"jXjXjXjXjXjXjXjXfX/.U N N d.). XR - O 4. X(.%.N B p 9.).E jXjXjXjXjXjX",
"jXjXjXjXjXjXjXjXjXdX~ c C N 8.(.[.d.k u.).F N 5.v 6 0.).K jXjXjXjXjXjX",
"jXjXjXjXjXjXjXjXjXjX  9.(.b = V e.w.#.2.P # d.).H 6 9.).K jXjXjXjXjXjX",
"jXjXjXjXjXjXjXjXjXjX+ I oX).K o 5 + O &   L  X~.w 9 9.).T jXjXjXjXjXjX",
"jXjXjXjXjXjXjXjXjXL E P Y /.).E o     . z /./.i & 4.!.[.T jXjXjXjXjXjX",
"jXjXjXjXjXjXjX3 R '.#X_.w c ^.).E   . - !. XR % d 0.[.#X{.4 jXjXjXjXjX",
"jXjXjXjXjXjX5 d 4.(.[.oXQ.t $.~.[.K 7 0.`.d.: k 6.c ~.[.[.Q.o jXjXjXjX",
"jXjXjXjXjX5 %.:XwXeXrX#X'.~.z w. XR u.'.(.; s :XiXq.y [.[.[.t   jXjXjX",
"jXjXjX< u +XwXpXpXeXpXeX$X[.).Y &.e u.(.n % r.uXpXx.jXQ.{.{.0.  jXjXjX",
"jXjX; R u.iXiXrX].H v.pXrX#X[.).P O 5 * 6 %.7XeXwXjXjX1 [.#X[.> jXjXjX",
"jX> 0 n 5.;Xv.y < 3 : +XeX3X[.[.Q.$ $ 5 %.7XeXeX2XjXjXO ^.#XQ.& X jXjX",
"jX~ +   8 9 & & 2 jXX l rXpX2X$X5.6.4X4XpXpXeX*XW jXjXO n E t X O jXjX",
"jXjXjX  > >   jXjXjXX 8 <XpXpXpXu.qXpXpXpXpX5.= jXjXjX. X . jXjXjXjXjX",
"jXjXjXjXjXjXjXjXjXjXX 8 4XpXeXpX4XpXpXpXpX1Xd X jXjXjXjXjXjXjXjXjXjXjX",
"jXjXjXjXjXjXjXjXjXjXO s eXpXpXpXpXpXpXpXpX<XO jXjXjXjXjXjXjXjXjXjXjXjX",
"jXjXjXjXjXjXjXjXjXjXO +.iXpXpXpXpXpXiXpXeX@X@.jXjXjXjXjXjXjXjXjXjXjXjX",
"jXjXjXjXjXjXjXjXjXjXO +.iXpXiXpXpXpXpXpXuX2X*.jXjXjXjXjXjXjXjXjXjXjXjX",
"jXjXjXjXjXjXjXjXjXjXO @.uXpXiXpXpXpXpXpXiX@XjXjXjXjXjXjXjXjXjXjXjXjXjX",
"jXjXjXjXjXjXjXjXjXjXX 0 iXpXpXpXpXpXpXpXiX@XjXjXjXjXjXjXjXjXjXjXjXjXjX",
"jXjXjXjXjXjXjXjXjXjX@.7 6XpXiXyXpXpXpXpXiX|.jXjXjXjXjXjXjXjXjXjXjXjXjX",
"jXjXjXjXjXjXjXjXjXjX*.q 1XuXiXuXpXpXpXpXpXq.jXjXjXjXjXjXjXjXjXjXjXjXjX",
"jXjXjXjXjXjXjXjXjXjXjX- -XiXuXuXiXpXpXpXpXw.  jXjXjXjXjXjXjXjXjXjXjXjX",
"jXjXjXjXjXjXjXjXjXjXjX; g.-Xj.,XpXpXpXpXiXh.Y > jXjXjXjXjXjXjXjXjXjXjX",
"jXjXjXjXjXjXjXjXjXjXjXw ;.7.f.h.iXpXpXpXpXXX.XJ jXjXjXjXjXjXjXjXjXjXjX",
"jXjXjXjXjXjXjXjXjXjXjX$.: n /.#X%XpXiXiXpX2X`.E jXjXjXjXjXjXjXjXjXjXjX",
"jXjXjXjXjXjXjXjXjXjXjXjXjXjXI /.`.$X7X5XpXrX#X}.e jXjXjXjXjXjXjXjXjXjX",
"jXjXjXjXjXjXjXjXjXjXjXjXjXjXjX3 }..X.Xh.,X8X|..Xl jXjXjXjXjXjXjXjXjXjX",
"jXjXjXjXjXjXjXjXjXjXjXG.jXjXB.B.V.m.oXm.O.C.V.m.Y M jXjXjXjXjXjXjXjXjX",
"jXjXjXjXjXjXjXP.jXjXW.G.Z.Z.L.O.C.F.X.O.J.G.J.aX].&XK.J.jXjXjXjXjXjXjX",
"jXjXjXjXjXjXjXX.gXJ.0XP.S.P.I.J.=X..L.=XG.A.H.H.G.O.[ J.jXjXjXjXjXjXjX",
"jXjXjXjXjXjXjXjXjXjXJ.Z.S.aXW.Z.0XI.o.O.M.N.Z.A.D.N.M.D.jXjXjXjXjXjXjX",
"jXjXjXjXjXjXjXjXjXjXW.S.N.gXI.o.N.o.o.o.S...N.O.D.o.' P.jXjXjXjXjXjXjX",
"jXjXjXjXjXjXjXjXjXjXjXjXX.gX0XZ.M.S.O.P.W.D.D.D.D.jXjXjXjXjXjXjXjXjXjX",
"jXjXjXjXjXjXjXjXjXjXjXjXjXjXjXR.D.D.E.E.9XJ...H.jXjXjXjXjXjXjXjXjXjXjX",
"jXjXjXjXjXjXjXjXjXjXjXjXjXjXjXjXjXjXjXjXjXjXjXjXjXjXjXjXjXjXjXjXjXjXjX",
"jXjXjXjXjXjXjXjXjXjXjXjXjXjXjXjXjXjXjXjXjXjXjXjXjXjXjXjXjXjXjXjXjXjXjX"
};
