/* XPM */
static char *result[] = {
/* columns rows colors chars-per-pixel */
"35 60 205 2 ",
"   c #0C0E0D",
".  c #0B130C",
"X  c #0B1C0B",
"o  c #101310",
"O  c #0A250B",
"+  c #072D09",
"@  c #0A2B0B",
"#  c #063A07",
"$  c #073509",
"%  c #0A330B",
"&  c #073C09",
"*  c #083B0B",
"=  c #14390B",
"-  c #0E2210",
";  c #132113",
":  c #183C19",
">  c #2F3709",
",  c #252B10",
"<  c #323B0A",
"1  c #202320",
"2  c #2F3C30",
"3  c #613904",
"4  c #07440A",
"5  c #0B430A",
"6  c #064C0A",
"7  c #0B4C0A",
"8  c #054A07",
"9  c #164609",
"0  c #055C07",
"q  c #055409",
"w  c #0B550A",
"e  c #045C09",
"r  c #0C5C0A",
"t  c #065506",
"y  c #174518",
"u  c #1B5A1B",
"i  c #234908",
"p  c #365508",
"a  c #3C4E05",
"s  c #016D07",
"d  c #086C07",
"f  c #036309",
"g  c #0B620A",
"h  c #026B08",
"j  c #0C6C0A",
"k  c #1D6B0A",
"l  c #16680C",
"z  c #047407",
"x  c #047D07",
"c  c #087A07",
"v  c #0C730A",
"b  c #0F7D08",
"n  c #1B7707",
"m  c #1A6B1A",
"M  c #206E06",
"N  c #3A6307",
"B  c #227C08",
"V  c #257607",
"C  c #337306",
"Z  c #1F4621",
"A  c #35492B",
"S  c #2B782D",
"D  c #2D7F30",
"F  c #286C2A",
"G  c #575B04",
"H  c #4B5D06",
"J  c #665204",
"K  c #6C561C",
"L  c #456208",
"P  c #4B6406",
"I  c #576B06",
"U  c #4A7007",
"Y  c #447B05",
"T  c #5C7505",
"R  c #597905",
"E  c #5A7416",
"W  c #6B6804",
"Q  c #667C02",
"!  c #6B7C00",
"~  c #737702",
"^  c #717801",
"/  c #787C0E",
"(  c #71670D",
")  c #5F6321",
"_  c #4B5947",
"`  c #5A6651",
"'  c #A61702",
"]  c #BC2302",
"[  c #B73703",
"{  c #AD2F03",
"}  c #C11002",
"|  c #D51F01",
" . c #D91101",
".. c #EB0601",
"X. c #F70400",
"o. c #FC0100",
"O. c #F30B06",
"+. c #E51201",
"@. c #F72C17",
"#. c #845B03",
"$. c #F55D0B",
"%. c #F85E04",
"&. c #F45A14",
"*. c #C46817",
"=. c #F76C0C",
"-. c #F86906",
";. c #F97906",
":. c #F56614",
">. c #EB7A0D",
",. c #068407",
"<. c #068C06",
"1. c #0A8308",
"2. c #0B8D0A",
"3. c #0B8C07",
"4. c #198607",
"5. c #079406",
"6. c #0A9607",
"7. c #099C06",
"8. c #0C9408",
"9. c #0C9C08",
"0. c #079B06",
"q. c #179B06",
"w. c #189A14",
"e. c #2F9105",
"r. c #0BA406",
"t. c #0AAB05",
"y. c #1AAB09",
"u. c #0BB405",
"i. c #0ABE03",
"p. c #0EBD08",
"a. c #16B704",
"s. c #18BF15",
"d. c #29A803",
"f. c #2CB904",
"g. c #299829",
"h. c #319633",
"j. c #359739",
"k. c #28BB29",
"l. c #31BE2F",
"z. c #2FB331",
"x. c #39BE3D",
"c. c #3AB73E",
"v. c #36A23B",
"b. c #548C01",
"n. c #4B9202",
"m. c #428A04",
"M. c #618801",
"N. c #658001",
"B. c #49B20D",
"V. c #73BE31",
"C. c #0CC305",
"Z. c #0DCC06",
"A. c #10DC07",
"S. c #13D405",
"D. c #15CF05",
"F. c #2BC11A",
"G. c #7FC62F",
"H. c #3EBE43",
"J. c #7E8047",
"K. c #41BD42",
"L. c #81BD0A",
"P. c #8C8F35",
"I. c #888A28",
"U. c #C89F15",
"Y. c #F98506",
"T. c #FB9B06",
"R. c #FB9606",
"E. c #ED9B09",
"W. c #CBB816",
"Q. c #D4BB0F",
"!. c #FCAB05",
"~. c #FBA909",
"^. c #FDB403",
"/. c #FEBA03",
"(. c #FCB509",
"). c #FCBA0C",
"_. c #FBBA12",
"`. c #F9B217",
"'. c #EFB212",
"]. c #F6832B",
"[. c #F7932D",
"{. c #CEB924",
"}. c #F6AB25",
"|. c #FBB727",
" X c #EFBA30",
".X c #ACC221",
"XX c #FCC11D",
"oX c #F8C22A",
"OX c #FAC539",
"+X c #91934E",
"@X c #AB9741",
"#X c #9EA05B",
"$X c #C09A47",
"%X c #F2B548",
"&X c #F8CA46",
"*X c #FACD50",
"=X c #EED15F",
"-X c #DBCE76",
";X c #F8D26D",
":X c #8F9384",
">X c #BABB9D",
",X c #C5C69B",
"<X c #F7D48C",
"1X c #E4E4E4",
"2X c None",
/* pixels */
"2X2X2X2X2X2X2X2X2X2X2X2X2X2X2X2X2X2X2X2X2X2X2X2X2X2X2X2X2X2X2X2X2X2X2X",
"2X2X2X2X2X2X2X2X2X2X2X2X2X2X2X2X2X2X2X2X2X2X2X2X2X2X2X2X2X2X2X2X2X2X2X",
"2X2X2X2X2X2X2X2X2X2X2X2X2X2X2X2X2X2X2X2X2X2X2X2X2X2X2X2X2X2X2X2X2X2X2X",
"2X2X2X2X2X2X2X2X2X2X2X2X2X2X2X2X2X2X2X2X2X2X2X2X2X2X2X2X2X2X2X2X2X2X2X",
"2X2X2X2X2X2X2X2X2X2X2X2X2X2X2X2X2X* 2X2X2X2X2X2X2X2X2X2X2X2X2X2X2X2X2X",
"2X2X2X2X2X2X2X2X2X2X2X2X#.N.2X2XX & O 2X2X2X~ I.2X2X2X2X2X2X2X2X2X2X2X",
"2X2X2X2X2X2X2X2X2X2X2X2XN.I.2X2X4 ,.f $ :XP.^ #X1X2X2X2X2X2X2X2X2X2X2X",
"2X2X2X2X2X2X2X2X2X2X2X, ~ ^ < # ,.u.7.0 A ( ! ) 2X2X2X2X2X2X2X2X2X2X2X",
"2X2X2X2X2X2X2X2X2X2XO $ > ~ Q 4.i.i.C.t.Y ~ G % % X 2X2X2X2X2X2X2X2X2X",
"2X2X2X2X2X2X2X2X2X2X& d > ~ Q y.i.<.u.u.n.~ G 9 z % q 2X2X2X2X2X2X2X2X",
"2X2X2X2X2X2X2X2X2XO c r.= I N.d.C.z u.i.n.^ i g t.g e 2X2X2X2X2X2X2X2X",
"2X2X2X2X2X2X2X2X2X$ 0.r.c m.^ b.Z.z i.f.! ^ 3.,.u.,.& e 2X2X2X2X2X2X2X",
"2X2X2X2X2X2X2X2XX t r.,.0.d.! M.A.d C.f.^ b.u.,.0.0.q + f 2X2X2X2X2X2X",
"2X2X2X2X2X2X2X2XX d i.<.i.i.b.M.A.w C.f.! d.i.7.5.u.e O e 2X2X2X2X2X2X",
"2X2X2X2X2X2X2X2XX d i.u.u.i.a.C.A.w C.S.a.p.i.u.u.u.e O g 2X2X2X2X2X2X",
"2X2X2X2X2X2X2X2XX d C.u.5.i.C.C.D.w p.Z.i.i.t.0.C.u.e O g 2X2X2X2X2X2X",
"2X2X2X2X2X2X2X2X. q t.0.<.i.i.i.Z.w i.C.i.i.t.,.t.0.4 O e 2X2X2X2X2X2X",
"2X2X2X2X2X2X2X2X2X@ 3.2.t.i.i.C.C.7 t.i.i.i.u.8.0.z X O f 2X2X2X2X2X2X",
"2X2X2X2X2X2X2X2X2X2Xj w T +.J q.a.7 r.p.C ] [ k l w   O e 2X2X2X2X2X2X",
"2X2X2X2X2X2X2X2X2X2Xg 7 T X. .J i.7 r.q.{ X.[ k w q .   * 2X2X2X2X2X2X",
"2X2X2X2X2X2X2X2X2X2Xr % T ..o.| a.4 r.R o.o.{ k O d 6 O & 2X2X2X2X2X2X",
"2X2X2X2X2X2X2X2X2Xc r @ B ' o.| r.* c Q o.o.a j X v f + q 2X2X2X2X2X2X",
"2X2X2X2X2X2X2X2X2X$ 6 O t 3 .. .b X 8 I o.} g & + q O f q 2X2X2X2X2X2X",
"2X2X2X2X2X2X2X2X+X_ r $ w 8.W ( 7   O N #.C 8.O 7 k 9 q O 2X2X2X2X2X2X",
"2X2X2X2X2X2X2X2X,X+XE L 9 n y.t.# . O j a.n V L U p r q O 2X2X2X2X2X2X",
"2X2X2X2X2X2X2X2X2X>X` V U H Y d.4.7 j q.e.P L n k 5 h q X 2X2X2X2X2X2X",
"2X2X2X2X2X2X2X2X2X2X. q 1.. = a e.3.4.Y i X 7 3.+ 8 h $ . 2X2X2X2X2X2X",
"2X2X2X2X2X2X2X2X2X2X@ * 1.5 . X 5 O O &     1.g + 0 h .   2X2X2X2X2X2X",
"2X2X2X2X2X2X2X2X2X  & @ t 5 r O .     . 7 @ v * & s h & . 2X2X2X2X2X2X",
"2X2X2X2X2X2X2X2 Z q f e $ g 8.% X     X v 8.& & f s s h * o 2X2X2X2X2X",
"2X2X2X2X2X2X8 e f s s s 6 # 1.r j X 9 j v f & e h h h h 6 O . 2X2X2X2X",
"2X2X2X2X2X4 s h 8 q s s s * 7 6.i.7 t.u.d O h h e O % q h f *   2X2X2X",
"2X2X2X  4 h h 4   % h h h e $ 6 9.5 9.x $ & h s & o 2XO h h e   2X2X2X",
"2X2XO 4 h h e O   @ f h s s e & 4 O 4 # 8 s z h & 2X2X@ h f e X 2X2X2X",
"2X; q 8 h h q % 1 2 * h s s s e $ + + 4 f s s e @ 2X2XO h 6 4 * X 2X2X",
"2X` @   q e * * 1 2X. q s s s s s s h s s s f + . 2X2XO 6 * * X - 2X2X",
"2X2X2Xo - O   2X2X2X. q s s s s z s s s s h q @ 2X2X2X. X . 2X2X2X2X2X",
"2X2X2X2X2X2X2X2X2X2XX q z ,.z s z ,.z z ,.1.j O 2X2X2X2X2X2X2X2X2X2X2X",
"2X2X2X2X2X2X2X2X2X2XX % <.r.x z 7.x z ,.7.s & o 2X2X2X2X2X2X2X2X2X2X2X",
"2X2X2X2X2X2X2X2X2X2X2Xw w u.t.u.i.t.t.u.i.t.r 2X2X2X2X2X2X2X2X2X2X2X2X",
"2X2X2X2X2X2X2X2X2X2X2Xw.w u.p.i.i.i.i.i.i.i.j 2X2X2X2X2X2X2X2X2X2X2X2X",
"2X2X2X2X2X2X2X2X2X2X2X2Xr u.i.i.i.C.i.i.i.C.g 2X2X2X2X2X2X2X2X2X2X2X2X",
"2X2X2X2X2X2X2X2X2X2X2X2Xr u.C.i.i.i.i.i.i.u.e 2X2X2X2X2X2X2X2X2X2X2X2X",
"2X2X2X2X2X2X2X2X2X2X2X2Xr u.i.i.i.i.i.i.i.0.% 2X2X2X2X2X2X2X2X2X2X2X2X",
"2X2X2X2X2X2X2X2X2X2X2X2Xr u.i.i.C.i.F.s.i.8.m 2X2X2X2X2X2X2X2X2X2X2X2X",
"2X2X2X2X2X2X2X2X2X2X2X; y z.s.i.C.k.x.l.l.9.@ 2X2X2X2X2X2X2X2X2X2X2X2X",
"2X2X2X2X2X2X2X2X2X2X2X@ h.H.x.x.x.H.H.H.H.h.5 2X2X2X2X2X2X2X2X2X2X2X2X",
"2X2X2X2X2X2X2X2X2X2X2Xm x.H.H.K.H.H.H.K.H.j.u 2X2X2X2X2X2X2X2X2X2X2X2X",
"2X2X2X2X2X2X2X2X2X2Xo F H.H.H.H.H.H.v.y : y g.2X2X2X2X2X2X2X2X2X2X2X2X",
"2X2X2X2X2X2X2X2X2X2Xg k.H.H.H.H.H.H.D u g.2X2X2X2X2X2X2X2X2X2X2X2X2X2X",
"2X2X2X2X2X2X2X2X2X  y.l.K.K.H.H.H.c.F S 2X2X2X2X2X2X2X2X2X2X2X2X2X2X2X",
"2X2X2X2X2X2X2X2X2X  B.W.U.*.V.H.V.Q.W.{.>.E.)..X2X2X2X2X2X2X2X2X2X2X2X",
"2X2X2X2X2X2X2X`.[.K -XoX^.^.L.k.L.R.&.].)._.oX=X@X$X].).2X2X2X2X2X2X2X",
"2X2X2X2X2X2X2X&.<X'.=X|.^.XX'.W.%X:.[.%X(.~.`.`./.].@.(.2X2X2X2X2X2X2X",
"2X2X2X2X2X2X2X2X2X2X_.!.^.;XOX(.=X%X$.:.Y.T.!.!./.R.Y.).2X2X2X2X2X2X2X",
"2X2X2X2X2X2X2X2X2X2XOX(.~.<X%X-.T.-.=.-.^.%.R.;.^.-.O.|.2X2X2X2X2X2X2X",
"2X2X2X2X2X2X2X2X2X2X2X2X&.<X*X!.Y.^.;.|.oX^./././.2X2X2X2X2X2X2X2X2X2X",
"2X2X2X2X2X2X2X2X2X2X2X2X2X2X2X).XX/.oXoX*X_.$.`.2X2X2X2X2X2X2X2X2X2X2X",
"2X2X2X2X2X2X2X2X2X2X2X2X2X2X2X2X2X2X2X2X2X2X2X2X2X2X2X2X2X2X2X2X2X2X2X",
"2X2X2X2X2X2X2X2X2X2X2X2X2X2X2X2X2X2X2X2X2X2X2X2X2X2X2X2X2X2X2X2X2X2X2X"
};
