/* XPM */
static char *result[] = {
/* columns rows colors chars-per-pixel */
"32 32 113 2 ",
"   c #3E211F",
".  c #3E1F23",
"X  c #3D2122",
"o  c #40201F",
"O  c #412223",
"+  c #4B2725",
"@  c #4E2926",
"#  c #432729",
"$  c #442B2B",
"%  c #552D24",
"&  c #582C27",
"*  c #552E29",
"=  c #5A2C2A",
"-  c #573029",
";  c #5C332A",
":  c #4D3335",
">  c #4F3538",
",  c #503636",
"<  c #503639",
"1  c #533B3D",
"2  c #5D3B3B",
"3  c #623527",
"4  c #62312C",
"5  c #69342E",
"6  c #6E3B2E",
"7  c #713C2D",
"8  c #6D3530",
"9  c #603E3D",
"0  c #733733",
"q  c #723832",
"w  c #7C3C34",
"e  c #75412D",
"r  c #6D473E",
"t  c #764432",
"y  c #543F40",
"u  c #5E4647",
"i  c #6A4844",
"p  c #62464A",
"a  c #624A4B",
"s  c #754E43",
"d  c #665252",
"f  c #6B5354",
"g  c #6E595B",
"h  c #70595C",
"j  c #7C6869",
"k  c #853F36",
"l  c #863F38",
"z  c #834A2F",
"x  c #854037",
"c  c #8A4337",
"v  c #834B31",
"b  c #854139",
"n  c #8A443B",
"m  c #864E38",
"M  c #8F4839",
"N  c #964F36",
"B  c #904939",
"V  c #8F5132",
"C  c #85523C",
"Z  c #945435",
"A  c #985636",
"S  c #995832",
"D  c #93553B",
"F  c #9B543A",
"G  c #9E583A",
"H  c #A55F37",
"J  c #A1563A",
"K  c #A95E3B",
"L  c #A46037",
"P  c #B1633C",
"I  c #B56C3E",
"U  c #B96C3D",
"Y  c #C5743F",
"T  c #C8753F",
"R  c #8C4A44",
"E  c #8E5942",
"W  c #8C534E",
"Q  c #915D47",
"!  c #94554D",
"~  c #955951",
"^  c #A05740",
"/  c #A66141",
"(  c #A5634B",
")  c #AB654A",
"_  c #B76740",
"`  c #B76A40",
"'  c #B56D4B",
"]  c #BA7242",
"[  c #AB6955",
"{  c #806C6E",
"}  c #81706F",
"|  c #826F70",
" . c #827171",
".. c #8B7B7A",
"X. c #927A79",
"o. c #C67643",
"O. c #C97640",
"+. c #CA7F4F",
"@. c #CC814F",
"#. c #CE8253",
"$. c #927F81",
"%. c #988887",
"&. c #9E8E8E",
"*. c #A99999",
"=. c #B0A0A2",
"-. c #BEAEAF",
";. c #CCC0C1",
":. c #D1C5C4",
">. c #D6C9CA",
",. c #DACECF",
"<. c #E5DADC",
"1. c #F5ECED",
"2. c None",
/* pixels */
"2.2.2.2.2.2.2.2.2.2.2.2.2.2.2.2.2.2.2.2.2.2.2.2.2.2.2.2.2.2.2.2.",
"2.2.2.2.2.2.2.2.2.2.2.2.2.2.2.2.2.2.2.2.2.2.2.2.2.2.2.2.2.2.2.2.",
"2.2.2.2.2.2.2.2.2.2.2.2.2.2.2.2.2.2.2.2.2.2.2.2.2.2.2.2.2.2.2.2.",
"2.2.2.2.2.2.2.2.2.2.2.2.2.2.2.2.2.2.2.2.2.2.2.2.2.2.2.2.2.2.2.2.",
"2.2.2.X X O $ $ ,.2.2.2.2.&.X X O X 1 2.2.2.2.2.y X X X X &.2.2.",
"2.2.2.@ * i i 9 -.,.2.1.>.X.@ ; ; @ 2 >.<.2.<.>.2 @ ; & @ X.>.2.",
"2.> + x G #.( ~ : : 2.;.X 4 x ` O.c w .  .2.2.X w k o.P l ; X 2.",
"2., @ J D D ( ) @ : 2.;.X 7 J D V G N O  .2.2.X F J Z Z J 6 X 2.",
"2., * T Z X Z T % : 1.;.X v O.;   U I X  .2.2.X U o.  3 T v . 2.",
"2., * T U H U T * # j g X v O.L S o.` X 1 { 1 X I O.S L O.z X 2.",
"2., % T T T T T - X     X v O.Y O.T ` X O O X X U T T T T z   2.",
"2., % T T T T T - X w 5 X v O.O.T T ` O ; w * X ` O.T T T z X 2.",
"2., % T T T T T - O k 0 . v Y T O.T I X = l & X I T T T T z   2.",
"2., & T T T T T - O l 0 . v T O.T T I X & l = X I T T T T z X 2.",
"2., % T T T T T - O 8 4 . v T O.T O.I X @ 0 % o I O.T T T z   2.",
"2., % T T T T T - X   X . v T T T O.I . . . X X I T T T T z X 2.",
"2., % T T T O.T * $ %. .X v T O.Y T I . p &.a X I O.T T T z X 2.",
"2., % T T T O.Y * > 2.2.X v T Y O.T I . | 2.| X U O.T O.T z X 2.",
"2., % Y O.T O.Y * # g a X z T Y T T I . , h , X I O.T T T z X 2.",
"2., % T O.T T T *   O O X v T T O.O.I O O O O X U O.O.O.T z : 2.",
"2., % T T T T T * O w 7 X v T T T T I O & w & . I O.O.O.T E 1 2.",
"1.1 % T U I Y T - O k q X v T U P Y I O & k =   I O.I ] @.E > 2.",
"1.> % T Z X Z T = O k q X z O.4   U I O & l = o I o.O s +.C X 2.",
"2., % P A e A P % o 5 = . t P v e K G O + 5 @ O / ' t v ' e X 2.",
"2., O x J T J n @ . X . . 4 l _ T c w O X X X O ~ ! +._ l 4 . 2.",
"2., + x B J B b + $ *.$.X 4 l F J k w X d =.d $ W ! [ N l 4 X 2.",
"2., + x l l b l + : 2.;.X 4 l l k x w X { 2.2.X t R R l b 4 X 2.",
"2., O + + + + + X > 2.;.. # + + + + + O  .2.2.X @ + + + + O O 2.",
"2.u : : , , , : : u 2.:.: > : > : : : : ..2.2.: : : : : : > : 2.",
"2.2.2.2.2.2.2.2.2.2.2.2.2.2.2.2.2.2.2.2.2.2.2.2.2.2.2.2.2.2.2.2.",
"2.2.2.2.2.2.2.2.2.2.2.2.2.2.2.2.2.2.2.2.2.2.2.2.2.2.2.2.2.2.2.2.",
"2.2.2.2.2.2.2.2.2.2.2.2.2.2.2.2.2.2.2.2.2.2.2.2.2.2.2.2.2.2.2.2."
};
