/* XPM */
static char *result[] = {
/* columns rows colors chars-per-pixel */
"32 32 218 2 ",
"   c black",
".  c #010101",
"X  c #020101",
"o  c #030101",
"O  c #010102",
"+  c #020202",
"@  c #030202",
"#  c gray1",
"$  c #030306",
"%  c #030307",
"&  c gray2",
"*  c #060405",
"=  c #060505",
"-  c #070505",
";  c #040407",
":  c #060606",
">  c #030309",
",  c #040408",
"<  c #050509",
"1  c #060508",
"2  c #060608",
"3  c #070609",
"4  c #070709",
"5  c #04040A",
"6  c #04050A",
"7  c #05050A",
"8  c #04040B",
"9  c #06050A",
"0  c #04040D",
"q  c #05050D",
"w  c #06060C",
"e  c #04050E",
"r  c #05050E",
"t  c #05050F",
"y  c #08070A",
"u  c #090808",
"i  c #08080A",
"p  c #09080B",
"a  c #0B0A0A",
"s  c #0B0B0B",
"d  c #0E0B0B",
"f  c #0E0C0C",
"g  c #0D0D0E",
"h  c #060611",
"j  c #060612",
"k  c #060713",
"l  c #070715",
"z  c #070810",
"x  c #0F0F10",
"c  c #0C0C13",
"v  c #181112",
"b  c #1C1717",
"n  c #11111B",
"m  c #1A1919",
"M  c #22212C",
"N  c #3E2A25",
"B  c #373539",
"V  c #421B15",
"C  c #4F231F",
"Z  c #642619",
"A  c #672C1D",
"S  c #6A291B",
"D  c #682B1B",
"F  c #67311E",
"G  c #5D3A37",
"H  c #583D35",
"J  c #6A2C26",
"K  c #7A2C29",
"L  c #6C3524",
"P  c #653D2D",
"I  c #663F2E",
"U  c #683A2A",
"Y  c #703235",
"T  c #783936",
"R  c #72363F",
"E  c #7A323E",
"W  c #70421D",
"Q  c #6A4638",
"!  c #181C51",
"~  c #1F1F5D",
"^  c #1D1F5E",
"/  c #1B2C51",
"(  c #192A5E",
")  c #1C3356",
"_  c #28224D",
"`  c #2F2C4E",
"'  c #312A41",
"]  c #392C47",
"[  c #372D4D",
"{  c #212C55",
"}  c #282459",
"|  c #312E52",
" . c #332E54",
".. c #342F55",
"X. c #1C306F",
"o. c #1D3375",
"O. c #1D3376",
"+. c #1D3575",
"@. c #1E397A",
"#. c #342C64",
"$. c #312D6B",
"%. c #203B64",
"&. c #223F6A",
"*. c #38356C",
"=. c #262773",
"-. c #292A73",
";. c #2C2B71",
":. c #272E78",
">. c #2C2F7B",
",. c #23377E",
"<. c #283078",
"1. c #2E307A",
"2. c #213B7E",
"3. c #323074",
"4. c #4D3B4B",
"5. c #5B3542",
"6. c #513D58",
"7. c #403563",
"8. c #23406C",
"9. c #254573",
"0. c #264574",
"q. c #264676",
"w. c #264E7E",
"e. c #5F4541",
"r. c #5A5859",
"t. c #654A47",
"y. c #61494C",
"u. c #765D59",
"i. c #5E596B",
"p. c #833622",
"a. c #803A36",
"s. c #845028",
"d. c #885D29",
"f. c #B95F2D",
"g. c #B95832",
"h. c #DB652C",
"j. c #DD662E",
"k. c #DF6B2F",
"l. c #DA6C2F",
"z. c #D0782E",
"x. c #CB6039",
"c. c #CE7A3B",
"v. c #DD7234",
"b. c #DE7C36",
"n. c #D7733A",
"m. c #8E4E4B",
"M. c #984E46",
"N. c #984F48",
"B. c #8F5242",
"V. c #97514A",
"C. c #9C544E",
"Z. c #9E554E",
"A. c #AB5241",
"S. c #A1574F",
"D. c #A85A53",
"F. c #81605D",
"G. c #90655F",
"H. c #B06053",
"J. c #936860",
"K. c #CF7C52",
"L. c #E58736",
"P. c #EA9F3C",
"I. c #C8894A",
"U. c #D5884B",
"Y. c #E09356",
"T. c #E2A065",
"R. c #E3AC79",
"E. c #203880",
"W. c #203881",
"Q. c #233D80",
"!. c #203E82",
"~. c #213A84",
"^. c #213C85",
"/. c #2D3C85",
"(. c #353A81",
"). c #373B84",
"_. c #2F4286",
"`. c #214188",
"'. c #23448F",
"]. c #244592",
"[. c #254593",
"{. c #244694",
"}. c #244794",
"|. c #284295",
" X c #254895",
".X c #284899",
"XX c #284BA1",
"oX c #284BA2",
"OX c #284CA3",
"+X c #294CA3",
"@X c #284CA4",
"#X c #284DA4",
"$X c #284DA5",
"%X c #294DA5",
"&X c #284EA5",
"*X c #2A4EA5",
"=X c #2A4CA6",
"-X c #2A4DA6",
";X c #284EA6",
":X c #294FA6",
">X c #2B4FA6",
",X c #2950A6",
"<X c #2A5CA4",
"1X c #3569A4",
"2X c #3063AA",
"3X c #3174AB",
"4X c #3D75AD",
"5X c #504B82",
"6X c #6C6782",
"7X c #756E87",
"8X c #857287",
"9X c #3485C0",
"0X c #3686C3",
"qX c #3687C4",
"wX c #3687C5",
"eX c #E4B88C",
"rX c #E5C0A6",
"tX c None",
/* pixels */
"tXtXtXtXtXtXtXtXtXtXtXtXtXtXtXtXtXtXtXtXtXtXtXtXtXtXtXtXtXtXtXtX",
"tXtXtXtXtX          . . tXtXtXtXtXtXtXtXtXtXtXtXtXtXtXtXtXtXtXtX",
"tXtXtXtXtX# t.G.J.F.y.s tXtXtXtXtXtXtXtXtXtXtXtXtXtXtXtXtXtXtXtX",
"tXtXtXtXtX. J x.n.g.K v tXtXtXtXtXtXtXtXtXtXtXtXtXtXtXtXtXtXtXtX",
"tXtXtXtXtX. G U.P.z.B.b tXtXtXtXtXtXtXtXtXtXtXtXtXtXtXtXtXtXtXtX",
"tXtXtXtXtX& # R A.E 4.B tXtXtXtXtXtXtXtXtXtXtXtXtXtXtXtXtXtXtXtX",
"tXtXtXtXtXr.   .;.-.~ n g w j q 5 8 0 e t j l k h r > y tXtXtXtX",
"tXtXtXtXtXtX  ..4X2X.X,.^ Q.@.!.`.'.'.'.].{. X}.[.3X) p tXtXtXtX",
"tXtXtXtXtXtX  [ *.$.} 3.=.>X$X$X$X$X#X#X#X$X$X$X=X0X%.p tXtXtXtX",
"tXtXtXtXtXtX. Y I.P * 6X1.*X$X$X$X$X$X$X$X$X$X$X=XqX&.i tXtXtXtX",
"tXtXtXtXtXtX. T eXH @ i.(.%X$X$X$X$X$X$X&X&X#X$X=XqX8.4 tXtXtXtX",
"tXtXtXtXtXtX. a.rXe.f 7X).%X$X@X$X$X$X$X;X&X@X$X=XwX0.2 tXtXtXtX",
"tXtXtXtXtXtX  5.8X6.' 5X>.%X#X@X#X$X$X$X:X:XOX$X-XqXq.3 tXtXtXtX",
"tXtXtXtXtXtX  | _./.<.:.! +XOXoX@X$X$X&X,X,XXXOX#X9X9.2 tXtXtXtX",
"tXtXtXtXtXtX  ` 1X<X|.{ $ ( o.O.E.W.~.^.+.2.X.X.X.w./ 1 tXtXtXtX",
"tXtXtXtXtXtX  ] 7.#._ M x ; 9 c z 6 7 < O % ; ; ; , ; i tXtXtXtX",
"tXtXtXtXtXtX. m.c.L X tXtXtXtXtXtXtXtXtXtXtXtXtXtXtXtXtXtXtXtXtX",
"tXtXtXtXtXtX. N.l.D . tXtXtXtXtXtXtXtXtXtXtXtXtXtXtXtXtXtXtXtXtX",
"tXtXtXtXtXtX. M.h.Z . tXtXtXtXtXtXtXtXtXtXtXtXtXtXtXtXtXtXtXtXtX",
"tXtXtXtXtXtX. N.v.A + tXtXtXtXtXtXtXtXtXtXtXtXtXtXtXtXtXtXtXtXtX",
"tXtXtXtXtXtX. V.Y.U + tXtXtXtXtXtXtXtXtXtXtXtXtXtXtXtXtXtXtXtXtX",
"tXtXtXtXtXtX+ C.R.Q . tXtXtXtXtXtXtXtXtXtXtXtXtXtXtXtXtXtXtXtXtX",
"tXtXtXtXtXtX+ Z.T.I   tXtXtXtXtXtXtXtXtXtXtXtXtXtXtXtXtXtXtXtXtX",
"tXtXtXtXtXtX# S.b.F   tXtXtXtXtXtXtXtXtXtXtXtXtXtXtXtXtXtXtXtXtX",
"tXtXtXtXtXtX# D.j.S . tXtXtXtXtXtXtXtXtXtXtXtXtXtXtXtXtXtXtXtXtX",
"tXtXtXtXtX: u H.k.p.= m tXtXtXtXtXtXtXtXtXtXtXtXtXtXtXtXtXtXtXtX",
"tXtXtXtXtX  u.K.L.f.N a tXtXtXtXtXtXtXtXtXtXtXtXtXtXtXtXtXtXtXtX",
"tXtXtXtXtX  C s.d.W V d tXtXtXtXtXtXtXtXtXtXtXtXtXtXtXtXtXtXtXtX",
"tXtXtXtXtX  X X o o @ - tXtXtXtXtXtXtXtXtXtXtXtXtXtXtXtXtXtXtXtX",
"tXtXtXtXtXtXtXtXtXtXtXtXtXtXtXtXtXtXtXtXtXtXtXtXtXtXtXtXtXtXtXtX",
"tXtXtXtXtXtXtXtXtXtXtXtXtXtXtXtXtXtXtXtXtXtXtXtXtXtXtXtXtXtXtXtX",
"tXtXtXtXtXtXtXtXtXtXtXtXtXtXtXtXtXtXtXtXtXtXtXtXtXtXtXtXtXtXtXtX"
};
