/* XPM */
static char *result[] = {
/* columns rows colors chars-per-pixel */
"32 32 226 2 ",
"   c black",
".  c #010101",
"X  c #020101",
"o  c #030101",
"O  c #010102",
"+  c #020202",
"@  c #030202",
"#  c gray1",
"$  c #020305",
"%  c #030306",
"&  c #020407",
"*  c gray2",
"=  c #060405",
"-  c #060505",
";  c #070505",
":  c #060606",
">  c #020408",
",  c #030409",
"<  c #03040A",
"1  c #040509",
"2  c #04060B",
"3  c #03050C",
"4  c #03070C",
"5  c #04050D",
"6  c #05060D",
"7  c #04070D",
"8  c #05070D",
"9  c #090808",
"0  c #0B0A0A",
"q  c #0B0B0B",
"w  c #0E0B0B",
"e  c #0E0C0C",
"r  c #0D0D0E",
"t  c #050611",
"y  c #050711",
"u  c #070710",
"i  c #060713",
"p  c #060812",
"a  c #050814",
"s  c #0F0F10",
"d  c #080814",
"f  c #080A14",
"g  c #0E0E17",
"h  c #070C1B",
"j  c #090918",
"k  c #080A1A",
"l  c #0B0D1C",
"z  c #090E1D",
"x  c #181112",
"c  c #1C1717",
"v  c #11111B",
"b  c #1A1919",
"n  c #0E0D24",
"m  c #121924",
"M  c #161A37",
"N  c #191830",
"B  c #15173C",
"V  c #101B3B",
"C  c #1A1E39",
"Z  c #22212C",
"A  c #3E2A25",
"S  c #373539",
"D  c #421B15",
"F  c #4F231F",
"G  c #642619",
"H  c #672C1D",
"J  c #6A291B",
"K  c #682B1B",
"L  c #67311E",
"P  c #5D3A37",
"I  c #583D35",
"U  c #6A2C26",
"Y  c #7A2C29",
"T  c #6C3524",
"R  c #653D2D",
"E  c #663F2E",
"W  c #683A2A",
"Q  c #703235",
"!  c #783936",
"~  c #72363F",
"^  c #7A323E",
"/  c #70421D",
"(  c #6A4638",
")  c #1B1C42",
"_  c #181C51",
"`  c #1F1F5D",
"'  c #1D1F5E",
"]  c #28224D",
"[  c #2F2C4E",
"{  c #312A41",
"}  c #392C47",
"|  c #372D4D",
" . c #212C55",
".. c #282459",
"X. c #312E52",
"o. c #332E54",
"O. c #342F55",
"+. c #1E2E6C",
"@. c #1F2C6E",
"#. c #1A3065",
"$. c #342C64",
"%. c #312D6B",
"&. c #38356C",
"*. c #262773",
"=. c #212F71",
"-. c #222F73",
";. c #292A73",
":. c #2C2B71",
">. c #272E78",
",. c #2C2F7B",
"<. c #213377",
"1. c #203476",
"2. c #213679",
"3. c #23377E",
"4. c #25347F",
"5. c #283078",
"6. c #2E307A",
"7. c #323074",
"8. c #4D3B4B",
"9. c #5B3542",
"0. c #513D58",
"q. c #403563",
"w. c #254C76",
"e. c #5F4541",
"r. c #5A5859",
"t. c #654A47",
"y. c #61494C",
"u. c #765D59",
"i. c #5E596B",
"p. c #555578",
"a. c #833622",
"s. c #803A36",
"d. c #845028",
"f. c #885D29",
"g. c #B95F2D",
"h. c #B95832",
"j. c #DB652C",
"k. c #DD662E",
"l. c #DF6B2F",
"z. c #DA6C2F",
"x. c #D0782E",
"c. c #CB6039",
"v. c #CE7A3B",
"b. c #DD7234",
"n. c #DE7C36",
"m. c #D7733A",
"M. c #8E4E4B",
"N. c #984E46",
"B. c #984F48",
"V. c #8F5242",
"C. c #97514A",
"Z. c #9C544E",
"A. c #9E554E",
"S. c #AB5241",
"D. c #A1574F",
"F. c #A85A53",
"G. c #81605D",
"H. c #90655F",
"J. c #B06053",
"K. c #936860",
"L. c #CF7C52",
"P. c #E58736",
"I. c #EA9F3C",
"U. c #C8894A",
"Y. c #D5884B",
"T. c #E09356",
"R. c #E2A065",
"E. c #E3AC79",
"W. c #1F3C80",
"Q. c #263480",
"!. c #273786",
"~. c #273787",
"^. c #213D83",
"/. c #273887",
"(. c #233C84",
"). c #203E86",
"_. c #2D3C85",
"`. c #253E88",
"'. c #353A81",
"]. c #373B84",
"[. c #2F4286",
"{. c #23478D",
"}. c #24478C",
"|. c #21498A",
" X c #295F81",
".X c #264293",
"XX c #274293",
"oX c #244592",
"OX c #274295",
"+X c #284195",
"@X c #284295",
"#X c #254C93",
"$X c #26489B",
"%X c #27489C",
"&X c #27499D",
"*X c #284899",
"=X c #28489C",
"-X c #29489C",
";X c #295A93",
":X c #2E6192",
">X c #2C609D",
",X c #326D97",
"<X c #284CA1",
"1X c #294CA1",
"2X c #284DA5",
"3X c #294DA5",
"4X c #2A5CA4",
"5X c #2A55A9",
"6X c #2B55A9",
"7X c #295BAD",
"8X c #2B5AAD",
"9X c #3569A4",
"0X c #3063AA",
"qX c #3579A5",
"wX c #3D75AD",
"eX c #3674B0",
"rX c #3370B7",
"tX c #504B82",
"yX c #6C6782",
"uX c #756E87",
"iX c #857287",
"pX c #3683B0",
"aX c #3989B8",
"sX c #E4B88C",
"dX c #E5C0A6",
"fX c None",
/* pixels */
"fXfXfXfXfXfXfXfXfXfXfXfXfXfXfXfXfXfXfXfXfXfXfXfXfXfXfXfXfXfXfXfX",
"fXfXfXfXfX          . . fXfXfXfXfXfXfXfXfXfXfXfXfXfXfXfXfXfXfXfX",
"fXfXfXfXfX# t.H.K.G.y.q fXfXfXfXfXfXfXfXfXfXfXfXfXfXfXfXfXfXfXfX",
"fXfXfXfXfX. U c.m.h.Y x fXfXfXfXfXfXfXfXfXfXfXfXfXfXfXfXfXfXfXfX",
"fXfXfXfXfX. P Y.I.x.V.c fXfXfXfXfXfXfXfXfXfXfXfXfXfXfXfXfXfXfXfX",
"fXfXfXfXfX* # ~ S.^ 8.S fXfXfXfXfXfXfXfXfXfXfXfXfXfXfXfXfXfXfXfX",
"fXfXfXfXfXr.  o.:.;.` v r N j g fXfXfXfXfXfXn t p z u fXfXfXfXfX",
"fXfXfXfXfXfX  O.wX0X*X3.' `.<.B d ) fXfXfXl a #.#X,Xf fXfXfXfXfX",
"fXfXfXfXfXfX  | &.%...7.*.$X.XQ.+.V h > 4 w.@.1X8XqX1 fXfXfXfXfX",
"fXfXfXfXfXfX. Q U.R = yX6.%X.X!.+X&XoX}.;XeX4.<X7XpX2 fXfXfXfXfX",
"fXfXfXfXfXfX. ! sXI @ i.'.=X.X~.+X3X3X6XrXeX4.<X7XaX8 fXfXfXfXfX",
"fXfXfXfXfXfX. s.dXe.e uX].-XXX~.OX2X2X6XrXeX4.<X7XaX6 fXfXfXfXfX",
"fXfXfXfXfXfX  9.iX0.{ tX,.-XXX/.OX2X2X5XrXeX4.<X7XpX, fXfXfXfXfX",
"fXfXfXfXfXfX  X.[._.5.>._ (.2.=.OX2X2X5XrXeX-.^.|. X$ fXfXfXfXfX",
"fXfXfXfXfXfX  [ 9X4X@X .% M 5 i 1.W.).{.>X:Xk 3 , & O fXfXfXfXfX",
"fXfXfXfXfXfX  } q.$.] Z s fXfXp.C y 3 < 7 m fXfXfXfXfXfXfXfXfXfX",
"fXfXfXfXfXfX. M.v.T X fXfXfXfXfXfXfXfXfXfXfXfXfXfXfXfXfXfXfXfXfX",
"fXfXfXfXfXfX. B.z.K . fXfXfXfXfXfXfXfXfXfXfXfXfXfXfXfXfXfXfXfXfX",
"fXfXfXfXfXfX. N.j.G . fXfXfXfXfXfXfXfXfXfXfXfXfXfXfXfXfXfXfXfXfX",
"fXfXfXfXfXfX. B.b.H + fXfXfXfXfXfXfXfXfXfXfXfXfXfXfXfXfXfXfXfXfX",
"fXfXfXfXfXfX. C.T.W + fXfXfXfXfXfXfXfXfXfXfXfXfXfXfXfXfXfXfXfXfX",
"fXfXfXfXfXfX+ Z.E.( . fXfXfXfXfXfXfXfXfXfXfXfXfXfXfXfXfXfXfXfXfX",
"fXfXfXfXfXfX+ A.R.E   fXfXfXfXfXfXfXfXfXfXfXfXfXfXfXfXfXfXfXfXfX",
"fXfXfXfXfXfX# D.n.L   fXfXfXfXfXfXfXfXfXfXfXfXfXfXfXfXfXfXfXfXfX",
"fXfXfXfXfXfX# F.k.J . fXfXfXfXfXfXfXfXfXfXfXfXfXfXfXfXfXfXfXfXfX",
"fXfXfXfXfX: 9 J.l.a.- b fXfXfXfXfXfXfXfXfXfXfXfXfXfXfXfXfXfXfXfX",
"fXfXfXfXfX  u.L.P.g.A 0 fXfXfXfXfXfXfXfXfXfXfXfXfXfXfXfXfXfXfXfX",
"fXfXfXfXfX  F d.f./ D w fXfXfXfXfXfXfXfXfXfXfXfXfXfXfXfXfXfXfXfX",
"fXfXfXfXfX  X X o o @ ; fXfXfXfXfXfXfXfXfXfXfXfXfXfXfXfXfXfXfXfX",
"fXfXfXfXfXfXfXfXfXfXfXfXfXfXfXfXfXfXfXfXfXfXfXfXfXfXfXfXfXfXfXfX",
"fXfXfXfXfXfXfXfXfXfXfXfXfXfXfXfXfXfXfXfXfXfXfXfXfXfXfXfXfXfXfXfX",
"fXfXfXfXfXfXfXfXfXfXfXfXfXfXfXfXfXfXfXfXfXfXfXfXfXfXfXfXfXfXfXfX"
};
