/* XPM */
static char *result[] = {
/* columns rows colors chars-per-pixel */
"32 32 135 2 ",
"   c black",
".  c #020000",
"X  c #0F0000",
"o  c #130000",
"O  c #180000",
"+  c #101010",
"@  c gray8",
"#  c #1F1D1D",
"$  c #2A0000",
"%  c #2B0000",
"&  c #2C0404",
"*  c #340000",
"=  c #3D0000",
"-  c #3E0000",
";  c #3F0000",
":  c #261212",
">  c #331B1B",
",  c #292828",
"<  c #3A2E2E",
"1  c #3F3F3F",
"2  c #410606",
"3  c #4B0000",
"4  c #4C0000",
"5  c #4D0000",
"6  c #480808",
"7  c #550000",
"8  c #5A0000",
"9  c #5B0000",
"0  c #5C0000",
"q  c #5D0000",
"w  c #600000",
"e  c #660000",
"r  c #640505",
"t  c #680000",
"y  c #6C0000",
"u  c #710000",
"i  c #740000",
"p  c #760000",
"a  c #750404",
"s  c #7B0000",
"d  c #7C0000",
"f  c #7F0A0A",
"g  c #472020",
"h  c #423333",
"j  c #4C3030",
"k  c #5B3535",
"l  c #733232",
"z  c #444444",
"x  c #505050",
"c  c #7C4F4F",
"v  c #785656",
"b  c #626262",
"n  c gray39",
"m  c #656565",
"M  c gray40",
"N  c #686868",
"B  c DimGray",
"V  c #6A6A6A",
"C  c #717171",
"Z  c #747474",
"A  c #767676",
"S  c #777777",
"D  c #7B7B7B",
"F  c #7E7E7E",
"G  c gray50",
"H  c #8A0000",
"J  c #980000",
"K  c #940D0D",
"L  c #A10000",
"P  c #A90000",
"I  c #AA0000",
"U  c #AD0000",
"Y  c #AE0000",
"T  c #AF0000",
"R  c #A90606",
"E  c #AD0F0F",
"W  c #B10000",
"Q  c #B50000",
"!  c #B60000",
"~  c #A11212",
"^  c #A71010",
"/  c #A11515",
"(  c #CB0000",
")  c #CE0000",
"_  c #D10000",
"`  c #D20000",
"'  c #D30000",
"]  c #DD0303",
"[  c #E00303",
"{  c #E50000",
"}  c #E70000",
"|  c #F30000",
" . c #F40000",
".. c #F60000",
"X. c #F80000",
"o. c #F90000",
"O. c #FA0000",
"+. c #FB0000",
"@. c #FC0000",
"#. c #FE0000",
"$. c red",
"%. c #834141",
"&. c gray54",
"*. c #8B8B8B",
"=. c gray55",
"-. c #8D8D8D",
";. c gray56",
":. c #939393",
">. c gray59",
",. c #979797",
"<. c gray62",
"1. c gray64",
"2. c #ACA2A2",
"3. c #AAAAAA",
"4. c gray68",
"5. c #B1B1B1",
"6. c #BCBCBC",
"7. c gray74",
"8. c gray76",
"9. c #C6C3C3",
"0. c #CACACA",
"q. c gray83",
"w. c #D5D5D5",
"e. c #D7D7D7",
"r. c gray85",
"t. c gainsboro",
"y. c #DDDDDD",
"u. c gray88",
"i. c gray90",
"p. c #E9E9E9",
"a. c #ECECEC",
"s. c #F8F8F8",
"d. c #FBFBFB",
"f. c white",
"g. c None",
/* pixels */
"g.g.g.g.g.g.g.g.g.g.g.g.g.g.g.g.g.g.g.g.g.g.g.g.g.g.g.g.g.g.g.g.",
"g.g.g.g.g.g.g.g.g.g.g.g.g.g.g.g.g.g.g.g.g.g.g.g.g.g.g.g.g.g.g.g.",
"g.g.g.g.g.g.g.g.g.g.g.g.g.g.g.g.g.g.g.g.g.g.g.g.g.g.g.g.g.g.g.g.",
"g.g.g.g.g.g.g.g.g.g.g.g.g.g.g.g.g.g.g.g.g.g.g.g.g.g.g.g.g.g.g.g.",
"g.g.g.g.g.g.g.g.g.g.g.g.g.g.g.g.g.g.g.g.g.g.g.g.g.g.g.g.g.g.g.g.",
"g.g.g.g.g.g.g.g.g.g.g.g.g.g.g.g.g.g.g.g.g.g.g.g.g.g.g.g.g.g.g.g.",
"g.g.g.g.g.g.g.g.g.g.g.g.g.g.g.g.g.g.g.g.g.g.g.g.g.g.g.g.g.g.g.g.",
"g.g.g.g.g.g.g.g.g.g.g.g.g.g.g.g.g.g.g.g.g.g.g.g.g.g.g.g.g.g.g.g.",
"g.g.g.g.g.g.g.g.g.g.g.g.g.~ T Y U U R l g.g.g.g.g.g.g.g.g.g.g.g.",
"g.g.g.g.g.g.g.g.g.g.g.E ) | $.$.$.$.+.( a g.g.g.g.g.g.g.g.g.g.g.",
"g.g.g.g.g.g.g.g.g.g.^ [ $.$.$.$.$.$.$.@.Q r g g.g.g.g.g.g.g.g.g.",
"g.g.g.g.g.g.g.g.g.K ] O.$.$.$.$.$.$.$.$._ p 6 g.g.g.g.g.g.g.g.g.",
"g.g.g.g.g.g.g.g.g.P  .$.$.$.$.$.$.$.$.$.' d 5 j g.g.g.g.g.g.g.g.",
"g.g.g.g.g.g.g.g.f ..#.$.$.$.$.$.$.$.$.+.T u 8 2 g.g.g.g.g.g.g.g.",
"g.g.g.g.g.g.g.g.s $.$.$.$.$.$.$.$.$.$.| i w 0 - g.g.g.g.g.g.g.g.",
"g.g.g.g.g.g.g.g.w } @.$.$.$.$.$.$.$.@.` e 0 0 - g.g.g.g.g.g.g.g.",
"g.g.g.g.g.g.g.g.o t ( o.$.W J L { X.( u q 0 7 % g.g.g.g.g.g.g.g.",
"g.g.g.g.g.g.g.g.. O y L I %.v c / ! H 9 ; = * X g.g.g.g.g.g.g.g.",
"g.g.g.g.g.g.g.g.+ , > & $ 2.w.9.k 4 3 ; : h < # g.g.g.g.g.g.g.g.",
"g.g.g.g.g.g.g.g.g.,.&.x @ 8.f.p.1       z 7.3.B g.g.g.g.g.g.g.g.",
"g.g.g.g.g.g.g.g.g.-.6.i.<.;.>.:.G S S Z -.4.=.g.g.g.g.g.g.g.g.g.",
"g.g.g.g.g.g.g.g.g.g.Z 5.a.*.V A e.d.s.t.8.&.N g.g.g.g.g.g.g.g.g.",
"g.g.g.g.g.g.g.g.g.g.g.F 1.0.q.w.y.u.r.&.D g.g.g.g.g.g.g.g.g.g.g.",
"g.g.g.g.g.g.g.g.g.g.g.g.g.C m n n b M g.g.g.g.g.g.g.g.g.g.g.g.g.",
"g.g.g.g.g.g.g.g.g.g.g.g.g.g.g.g.g.g.g.g.g.g.g.g.g.g.g.g.g.g.g.g.",
"g.g.g.g.g.g.g.g.g.g.g.g.g.g.g.g.g.g.g.g.g.g.g.g.g.g.g.g.g.g.g.g.",
"g.g.g.g.g.g.g.g.g.g.g.g.g.g.g.g.g.g.g.g.g.g.g.g.g.g.g.g.g.g.g.g.",
"g.g.g.g.g.g.g.g.g.g.g.g.g.g.g.g.g.g.g.g.g.g.g.g.g.g.g.g.g.g.g.g.",
"g.g.g.g.g.g.g.g.g.g.g.g.g.g.g.g.g.g.g.g.g.g.g.g.g.g.g.g.g.g.g.g.",
"g.g.g.g.g.g.g.g.g.g.g.g.g.g.g.g.g.g.g.g.g.g.g.g.g.g.g.g.g.g.g.g.",
"g.g.g.g.g.g.g.g.g.g.g.g.g.g.g.g.g.g.g.g.g.g.g.g.g.g.g.g.g.g.g.g.",
"g.g.g.g.g.g.g.g.g.g.g.g.g.g.g.g.g.g.g.g.g.g.g.g.g.g.g.g.g.g.g.g."
};
