/* XPM */
static char *result[] = {
/* columns rows colors chars-per-pixel */
"48 59 244 2 ",
"   c #020201",
".  c #0C0102",
"X  c #000B01",
"o  c #0B0C01",
"O  c #01030C",
"+  c #07070C",
"@  c #150102",
"#  c #150507",
"$  c #041205",
"%  c #010B13",
"&  c #030618",
"*  c #160614",
"=  c #0E140D",
"-  c #313A1B",
";  c #030224",
":  c #3D1C39",
">  c #392A2A",
",  c #393A29",
"<  c #38383A",
"1  c #2E2D36",
"2  c #581915",
"3  c #5B2D1E",
"4  c #4C1C31",
"5  c #482729",
"6  c #592628",
"7  c #45322C",
"8  c #48312C",
"9  c #472737",
"0  c #473638",
"q  c #553538",
"w  c #5B2733",
"e  c #652924",
"r  c #67343B",
"t  c #733330",
"y  c #641916",
"u  c #3B442A",
"i  c #2F443B",
"p  c #1E403F",
"a  c #444039",
"s  c #57413D",
"d  c #494E32",
"f  c #784A3A",
"g  c #6C5035",
"h  c #74603F",
"j  c #1B3E42",
"k  c #3B2C43",
"l  c #3B3646",
"z  c #383745",
"x  c #383159",
"c  c #353868",
"v  c #501D41",
"b  c #57284A",
"n  c #43344B",
"m  c #473D44",
"M  c #512F53",
"N  c #743C44",
"B  c #633841",
"V  c #4D3C62",
"C  c #7E3C6A",
"Z  c #264744",
"A  c #394744",
"S  c #37544A",
"D  c #394E6C",
"F  c #2D5562",
"G  c #444747",
"H  c #5C4648",
"J  c #574E55",
"K  c #5A5355",
"L  c #47534F",
"P  c #694648",
"I  c #774749",
"U  c #7A5646",
"Y  c #695757",
"T  c #795454",
"R  c #69554D",
"E  c #6E5669",
"W  c #4B6E72",
"Q  c #75656B",
"!  c #524360",
"~  c #B53313",
"^  c #97342F",
"/  c #B13734",
"(  c #C33038",
")  c #9C481A",
"_  c #80493F",
"`  c #9B423E",
"'  c #945B39",
"]  c #86442C",
"[  c #B7493C",
"{  c #AE4634",
"}  c #9E643F",
"|  c #CB4929",
" . c #AE3255",
".. c #BD346A",
"X. c #963E4E",
"o. c #C83B47",
"O. c #C0376D",
"+. c #854A4C",
"@. c #8D544A",
"#. c #8B4959",
"$. c #8C5557",
"%. c #9C5958",
"&. c #974F48",
"*. c #AB4849",
"=. c #B64A48",
"-. c #A65647",
";. c #A74955",
":. c #BA4A56",
">. c #A65858",
",. c #B75459",
"<. c #BD5346",
"1. c #99654C",
"2. c #AC644D",
"3. c #935A6C",
"4. c #875878",
"5. c #8F516E",
"6. c #A75668",
"7. c #B55A67",
"8. c #95656E",
"9. c #BC7876",
"0. c #C64857",
"q. c #C6514D",
"w. c #F45F54",
"e. c #CC685B",
"r. c #DA6A57",
"t. c #DB7855",
"y. c #CE7456",
"u. c #E6744C",
"i. c #EB6C5D",
"p. c #E56958",
"a. c #F96656",
"s. c #E7735C",
"d. c #EC7452",
"f. c #D96C6B",
"g. c #CD726B",
"h. c #D87567",
"j. c #C97673",
"k. c #D87974",
"l. c #D36B70",
"z. c #EC6E64",
"x. c #E8676D",
"c. c #FA6E64",
"v. c #EB7364",
"b. c #E97968",
"n. c #F67364",
"m. c #ED6B74",
"M. c #E76B72",
"N. c #F36974",
"B. c #E47676",
"V. c #B29808",
"C. c #B4A701",
"Z. c #ACA100",
"A. c #D68F00",
"S. c #C69421",
"D. c #E49D03",
"F. c #BB8E75",
"G. c #BF9C5B",
"H. c #D89956",
"J. c #D6984F",
"K. c #CEA15E",
"L. c #E4A65D",
"P. c #DA846B",
"I. c #D69A6A",
"U. c #D49272",
"Y. c #E59272",
"T. c #C8A768",
"R. c #D7A66B",
"E. c #D4A473",
"W. c #DAAB77",
"Q. c #CBAE75",
"!. c #E4A77A",
"~. c #EDA96B",
"^. c #3B5B85",
"/. c #3D6984",
"(. c #406B85",
"). c #4A6995",
"_. c #4B7490",
"`. c #8C5D84",
"'. c #EC7983",
"]. c #B1868C",
"[. c #BBA89A",
"{. c #AEAD8E",
"}. c #A7A9B5",
"|. c #B7B2B9",
" X c #B3AFAC",
".X c #A99BAE",
"XX c #C99C88",
"oX c #D69687",
"OX c #D0928C",
"+X c #C7A88A",
"@X c #D7A797",
"#X c #CBAA93",
"$X c #D89BBA",
"%X c #EB9EB0",
"&X c #CDADB8",
"*X c #DBA9B5",
"=X c #CCB1B4",
"-X c #F6B9AE",
";X c #E9A382",
":X c #ECD39B",
">X c #FBC7AB",
",X c #F9C8B8",
"<X c #FFD2BD",
"1X c #FDD9B5",
"2X c #F1D0AA",
"3X c #FDE4AC",
"4X c #9EB3C8",
"5X c #A7BBCA",
"6X c #B4B7CA",
"7X c #B9BDD2",
"8X c #AAB5CD",
"9X c #A9B7E6",
"0X c #B0BBE8",
"qX c #CAACC6",
"wX c #D7A7C8",
"eX c #C7B8C6",
"rX c #D3B6CF",
"tX c #FEBBC4",
"yX c #E4AAC4",
"uX c #B7C4D7",
"iX c #ABC7CB",
"pX c #B8C7EB",
"aX c #C6C5D1",
"sX c #E8CCC3",
"dX c #FFC7CA",
"fX c #EAD4C5",
"gX c #FAD9C9",
"hX c #FBD7D4",
"jX c #FFCBD1",
"kX c #EEFFCA",
"lX c #FEDAFC",
"zX c #F1D6EA",
"xX c #D5F7E7",
"cX c #DAEAEE",
"vX c #FEE9EB",
"bX c #FFFBEA",
"nX c #EBE4FE",
"mX c #E8E6FF",
"MX c #FFE8F7",
"NX c #E7F9F8",
"BX c #FEFDFC",
"VX c #F7FAFA",
"CX c #EBFFEF",
"ZX c None",
/* pixels */
"ZXZXZXZXZXZXZXZXZXZXZXZXZXZXZXZXZXZXZXZXZXZXZXZXZXZXZXZXZXZXZXZXZXZXZXZXZXZXZXZXZXZXZXZXZXZXZXZX",
"ZXZXZXZXZXZXZXZXZXZXZXZXZXZXZXZXZXZXZXZXZXZXZXZXZXZXZXZXZXZXZXZXZXZXZXZXZXZXZXZXZXZXZXZXZXZXZXZX",
"ZXZXZXZXZXZXZXZXZXZXZXZXZXZXZXZXZXZXZXZXZXZXZXZXZXZXZXZXZXZXZXZXZXZXZXZXZXZXZXZXZXZXZXZXZXZXZXZX",
"ZXZXZXZXZXZXZXZXZXZXZXZXZXZXZXZXZX8 8 8 8 7 8 7 7 q 0 9 : 0 > ZXZXZXZXZXZXZXZXZXZXZXZXZXZXZXZXZX",
"ZXZXZXZXZXZXZXZXZXZXZXZXZXZXZXZXZX8 7 8 8 8 8 8 7 9 9 0 0 H 9 ZXZXZXZXZXZXZXZXZXZXZXZXZXZXZXZXZX",
"ZXZXZXZXZXZXZXZXZXZXZXZXZX> 0 2 6 k.k.M.B.x.N.N.N.P.k.k.g.j.9.6 6 q 8 ZXZXZXZXZXZXZXZXZXZXZXZXZX",
"ZXZXZXZXZXZXZXZXZXZXZXZXZX0 7 e 3 k.j.f.f.x.x.x.x.k.h.g.j.j.OXy e q 5 bXZXZXZXZXZXZXZXZXZXZXZXZX",
"ZXZXZXZXZXZXZXZXZXZXZXB 5 &.>.e.B.v.z.z.i.s.s.v.i.a.a.c.c.v.r.k.g.&.8.q q ZXZXZXZXZXZXZXZXZXZXZX",
"ZXZXZXZXZXZXZXZXZXZXZX5 b >.>.k.l.z.z.i.z.s.s.s.s.a.a.a.a.z.v.g.P.%.3.> q VXZXZXZXZXZXZXZXZXZXZX",
"ZXZXZXZXZXZXZXZXZXZXZXp Z :. .b.p.z.z.t.t.u.u.N.N.N.N.u.u.h.b.a.c.<.=.z 1 bXZXZXZXZXZXZXZXZXZXZX",
"ZXZXZXZXZXZXZXZXZXZXZXZ Z l.'.p.v.n.z.t.t.u.d.m.m.N.N.s.d.h.h.w.a.l.l.z z VXZXZXZXZXZXZXZXZXZXZX",
"ZXZXZXZXZXZXZXZXZXZXZX4 w m.'.i.i.r.p.c.a.s.z.g.f.B.B.z.s.s.s.i.a.k.k.5 B BXZXZXZXZXZXZXZXZXZXZX",
"ZXZXZXZXZXZXZXZXZXZXZXr w x.x.z.c.v.n.n.w.z.p.l.k.j.B.r.r.v.p.i.p.g.g.q 8 VXBXZXZXZXZXZXZXZXZXZX",
"ZXZXZXZXZXZXZXZXZXO * y e e.h.i.v.e.h.M.f.oXj.F.F.'.OXl.B.n.s.b.b.B.b.e y O O BXZXZXZXZXZXZXZXZX",
"ZXZXZXZXZXZXZXZXZXl l ,.;.2.2.i.s.P.P.M.B.jXjXgXfXhXsX'.B.p.p.t.r.=.=.>.>.G G VXZXZXZXZXZXZXZXZX",
"ZXZXZXZXZXZXZXZXZX1 x -.-.-.' z.z.B.y.].].zXBXgXgXvXzX'.].r.v.B.B.<.*.&.-.1 z BXZXZXZXZXZXZXZXZX",
"ZXZXZXZXZXZXZXZXZX& & -.-.' 2./ q.=.=.*X=XMXzX1.@.hXvX*X*Xq.| [ q.=.=.-.-.O O BXZXZXZXZXZXZXZXZX",
"ZXZXZXZXZXZXZXZXZXO O -.-.<.{ 0.:.=.,.|.aXlXlX,.;.lXzXuX5X-.>.0.0.,.&.1.@.. @ BXZXZXZXZXZXZXZXZX",
"ZXZXZXZXZXZXZXZXZXO O -.' q.[ :.=.:.:.iX}.`.4.;.,.3.8.8XiX' &.0.o.>.>.1.1.* @ BXZXZXZXZXZXZXZXZX",
"ZXZXZXZXZXZXZXZXBX$ $ @.@.0.=.8.$.5.3.aXuX`.4.8.3.Q Q 7X7X8.Q 6.3.,.:.1.f X X vXZXZXZXZXZXZXZXZX",
"ZXZXZXZXZXZXZXZXVXX X e e  .q.=X*XyX&X6X8XwXwXyX*XrXqX7X8X=X=X%X%X;.:.3 3 X   BXZXZXZXZXZXZXZXZX",
"ZXZXZXZXZXZXZXG <     7 7 3.3.=XaXuXpX7X7XaXaX8X7X8X7XqXqXpXuXeXeX7.X.8 5 X X w 5 BXZXZXZXZXZXZX",
"ZXZXZXZXZXZXZX1 < . o 7 0 8.8.|.|.5X8X7X7X6X6XeX7XaX8XqXrX4XuX7X6X>.7.q 5 X X 5 r BXZXZXZXZXZXZX",
"ZXZXZXZXZXZXZX    Y.U.Y J l : b b pX0XlXMXcXcXnXmXnXmXNXVX9X9XM : > > Y Q U.oXo   BXZXZXZXZXZXZX",
"ZXZXZXZXZXZXZX=   Y.Y.J E k n b v 0X0XlXlXcXNXmXmXnXnXcXcX0XpX: M a , K Y oXoXX X BXZXZXZXZXZXZX",
"ZXZXZXZXZXZXZXO + J.L.v b K K g g f @.K Y , - M v b 9 R Y R I E P Y Y w v I.R.O O BXZXZXZXZXZXZX",
"ZXZXZXZXZXZXZX* O J.L.b 9 Y K g h +.+.Y J , u v M v M P R R T R T P 4.4 v K.J.O & BXZXZXZXZXZXZX",
"ZXZXZXZXZXZXZXZXBX% % > m I.R.`.C {.{.w r I.I.[.[.Q.T.c c .X}.f f {.Q.> m . $ VXZXZXZXZXZXZXZXZX",
"ZXZXZXZXZXZXZXZXBX% % 1 m E.I.5.C [.{.6 6 I.~.#X[.R.Q.x c }.}.U s #XE.G m X X BXZXZXZXZXZXZXZXZX",
"ZXZXZXZXZXZXZXZXZXZXBXo   I.I.+X+XxXxXo . >X>X-X<X-X,X    nXnXT.Q.U.@X; & VXZXZXZXZXZXZXZXZXZXZX",
"ZXZXZXZXZXZXZXZXZXZXBX    E.;X+XXXxXxX  . -X>XgX,XgX<Xo   nXnXT.Q.@X@X; ; CXZXZXZXZXZXZXZXZXZXZX",
"ZXZXZXZXZXZXZXZXZXZXZXVXVX@ @ I.I.gX,XfXfXsXgX2X:XtXtX:X:XgX2X!.K.# # bXbXZXZXZXZXZXZXZXZXZXZXZX",
"ZXZXZXZXZXZXZXZXZXZXZXZXVX@ . E.I.dX,XfXfXsXgX2X1XjXdX3X:X,XgXU.W.# # bXZXZXZXZXZXZXZXZXZXZXZXZX",
"ZXZXZXZXZXZXZXZXZXZXVX% % X X f f !.I.gX,X>X>XR.R.>X1XgXfXE.W.f +.    bXZXZXZXZXZXZXZXZXZXZXZXZX",
"ZXZXZXZXZXZXZXZXZXZXVX& O X o f +.H.!.-XdX<X>XR.R.>X-X,XfXE.E.$.+.o   bXZXZXZXZXZXZXZXZXZXZXZXZX",
"ZXZXZXZXZXZXZXZXZXf f D c u - S.S.+.$.n < #X+XU.!.Q.Q.j l E E Z.Z.O O VXZXZXZXZXZXZXZXZXZXZXZXZX",
"ZXZXZXZXZXZXZXZXBXf e c D - d S.S.$.+.n n #X+X!.U.T.T.z z ! E V.C.& O NXZXZXZXZXZXZXZXZXZXZXZXZX",
"ZXZXZXZXZXZXZXY H H.~.k l 0 , A.A. ....XqXj j 0 0 z z $XyXZ.C.G < M M d , kXZXZXZXZXZXZXZXZXZXZX",
"ZXZXZXZXZXZXZXH H L.H.n l a u D.A...O.&XqXj Z 1 7 z z $XyXZ.C.0 < V M 7 d kXZXZXZXZXZXZXZXZXZXZX",
"ZXZXZXZXZXZXZXP R oX@X;X;XX X X $ | ~ / / 8X6XJ < 5X5Xo.( ) ) i S XX@Xt ] BXZXZXZXZXZXZXZXZXZXZX",
"ZXZXZXZXZXZXZXP P @XoX!.U.X X X $ ~ | / { 6X8Xl m 5X5X( ( ) ) i i #X@Xt ^ BXZXZXZXZXZXZXZXZXZXZX",
"ZXZXZXZXZXZXZXZXZXN I N N ZXVXX O ^ ^ *.`  X=Xk V &X&X#.3.I I .   fXgXtXdXN +.ZXZXZXZXZXZXZXZXZX",
"ZXZXZXZXZXZXZXZXZXP +.N #.ZXCXX X ^ ^ *.-. X X! n &X&X#.#._ r #   sXfXdX-X+.r ZXZXZXZXZXZXZXZXZX",
"ZXZXZXZXZXZXZXZXZXZXZXZXZX+   J < X % % +           @ @ # 8 H     fXfXtXjXI I ZXZXZXZXZXZXZXZXZX",
"ZXZXZXZXZXZXZXZXZXZXZXZXZX  . A l O % + O   +     + * @ @ s q     hXfXjXdXr N ZXZXZXZXZXZXZXZXZX",
"ZXZXZXZXZXZXZXZXZXZXZXZXZXO % W (.).).).).W W u u z < i A   X ZXZXs s P R ZXZXZXZXZXZXZXZXZXZXZX",
"ZXZXZXZXZXZXZXZXZXZXZXZXZXO O /.(.).).^.^.F W u u L < L i X X ZXZXT s R T ZXZXZXZXZXZXZXZXZXZXZX",
"ZXZXZXZXZXZXZXZXZXZXZXZXZX# * x x /./._.(.= % . . X O O O ZXZXZXZXZXZXZXZXZXZXZXZXZXZXZXZXZXZXZX",
"ZXZXZXZXZXZXZXZXZXZXZXZXZX+ # V x _.^.W /.O O @ . O   $ O ZXZXZXZXZXZXZXZXZXZXZXZXZXZXZXZXZXZXZX",
"ZXZXZXZXZXZXZXZXZXZXZXZXZXZXZXO O m G , i Z i ZXZXZXZXZXZXZXZXZXZXZXZXZXZXZXZXZXZXZXZXZXZXZXZXZX",
"ZXZXZXZXZXZXZXZXZXZXZXZXZXZXZXO X s 0 a - S Z ZXZXZXZXZXZXZXZXZXZXZXZXZXZXZXZXZXZXZXZXZXZXZXZXZX",
"ZXZXZXZXZXZXZXZXZXZXZXZXZXZXZX  o  ./ =.=.  X ZXZXZXZXZXZXZXZXZXZXZXZXZXZXZXZXZXZXZXZXZXZXZXZXZX",
"ZXZXZXZXZXZXZXZXZXZXZXZXZXZXZXo   o.o.*.^     ZXZXZXZXZXZXZXZXZXZXZXZXZXZXZXZXZXZXZXZXZXZXZXZXZX",
"ZXZXZXZXZXZXZXZXZXZXZXZXZXZXZXZXZX    o O ZXZXZXZXZXZXZXZXZXZXZXZXZXZXZXZXZXZXZXZXZXZXZXZXZXZXZX",
"ZXZXZXZXZXZXZXZXZXZXZXZXZXZXZXZXZX    o   ZXZXZXZXZXZXZXZXZXZXZXZXZXZXZXZXZXZXZXZXZXZXZXZXZXZXZX",
"ZXZXZXZXZXZXZXZXZXZXZXZXZXZXZXZXZXZXZXZXZXZXZXZXZXZXZXZXZXZXZXZXZXZXZXZXZXZXZXZXZXZXZXZXZXZXZXZX",
"ZXZXZXZXZXZXZXZXZXZXZXZXZXZXZXZXZXZXZXZXZXZXZXZXZXZXZXZXZXZXZXZXZXZXZXZXZXZXZXZXZXZXZXZXZXZXZXZX",
"ZXZXZXZXZXZXZXZXZXZXZXZXZXZXZXZXZXZXZXZXZXZXZXZXZXZXZXZXZXZXZXZXZXZXZXZXZXZXZXZXZXZXZXZXZXZXZXZX",
"ZXZXZXZXZXZXZXZXZXZXZXZXZXZXZXZXZXZXZXZXZXZXZXZXZXZXZXZXZXZXZXZXZXZXZXZXZXZXZXZXZXZXZXZXZXZXZXZX"
};
