/* XPM */
static char *c67283c082414f8a8f6de143ddf29395YxvwX0V8jbqRWVwF[] = {
/* columns rows colors chars-per-pixel */
"48 59 238 2 ",
"   c None",
".  c #020201",
"X  c #0C0101",
"o  c #000C00",
"O  c #01010B",
"+  c #0C010B",
"@  c #0A0B00",
"#  c #130100",
"$  c #1A0201",
"%  c #12000A",
"&  c #100806",
"*  c #011200",
"=  c #0D0313",
"-  c #04001C",
";  c #090117",
":  c #140014",
">  c #2C0001",
",  c #350009",
"<  c #3D3619",
"1  c #363205",
"2  c #1D0034",
"3  c #0D0128",
"4  c #311126",
"5  c #292A2A",
"6  c #392D29",
"7  c #3D352C",
"8  c #33322E",
"9  c #392E3D",
"0  c #2E3B30",
"q  c #383838",
"w  c #2C332B",
"e  c #4F1C14",
"r  c #542507",
"t  c #5A2A19",
"y  c #4C3414",
"u  c #622D0E",
"i  c #6A3517",
"p  c #632F0F",
"a  c #511F31",
"s  c #472929",
"d  c #572626",
"f  c #473529",
"g  c #56382A",
"h  c #482A37",
"j  c #493637",
"k  c #583937",
"l  c #582E33",
"z  c #672D2C",
"x  c #63322D",
"c  c #642932",
"v  c #75383B",
"b  c #663A39",
"n  c #35420F",
"m  c #2E453F",
"M  c #334032",
"N  c #3D4438",
"B  c #374D27",
"V  c #464504",
"C  c #675B14",
"Z  c #75571A",
"A  c #7B4D1A",
"S  c #6D651C",
"D  c #464335",
"F  c #68483C",
"G  c #74453D",
"H  c #79523B",
"J  c #764D27",
"K  c #766321",
"L  c #283B48",
"P  c #323D53",
"I  c #3D2949",
"U  c #582B4D",
"Y  c #543742",
"T  c #442A54",
"R  c #482F59",
"E  c #492D49",
"W  c #753744",
"Q  c #7A2B5B",
"!  c #683D44",
"~  c #633C69",
"^  c #5C3562",
"/  c #344747",
"(  c #334D56",
")  c #2D6C7E",
"_  c #3E6471",
"`  c #4E4750",
"'  c #6C4447",
"]  c #754646",
"[  c #765151",
"{  c #404B61",
"}  c #4F6B72",
"|  c #726E6B",
" . c #76556F",
".. c #8F2634",
"X. c #BA3B28",
"o. c #AC3A33",
"O. c #8B481C",
"+. c #84501E",
"@. c #864827",
"#. c #954D23",
"$. c #895428",
"%. c #9D552B",
"&. c #874A38",
"*. c #974B39",
"=. c #935938",
"-. c #A94939",
";. c #B4453D",
":. c #B3543A",
">. c #A9503E",
",. c #856128",
"<. c #C74C2B",
"1. c #C34431",
"2. c #823F49",
"3. c #B63D48",
"4. c #BD3752",
"5. c #803161",
"6. c #BC256A",
"7. c #C33356",
"8. c #C83176",
"9. c #874B48",
"0. c #965946",
"q. c #994558",
"w. c #955C58",
"e. c #8A574E",
"r. c #AD4D44",
"t. c #AA4F46",
"y. c #B34C45",
"u. c #BA4D43",
"i. c #B44D4B",
"p. c #BB4749",
"a. c #AD5349",
"s. c #A65748",
"d. c #B55144",
"f. c #B4534B",
"g. c #BA524A",
"h. c #B75848",
"j. c #AC4C56",
"k. c #B84252",
"l. c #A8565D",
"z. c #B7545A",
"x. c #94604A",
"c. c #935563",
"v. c #B15762",
"b. c #9B6B72",
"n. c #B26356",
"m. c #C2484A",
"M. c #C85057",
"N. c #DE6B5B",
"B. c #DE745C",
"V. c #D4795D",
"C. c #CB6E5A",
"Z. c #ED6D5E",
"A. c #E66B58",
"S. c #F56A5F",
"D. c #E4725E",
"F. c #E8715D",
"G. c #EA7152",
"H. c #F17351",
"J. c #C85261",
"K. c #DC6764",
"L. c #DE7562",
"P. c #D87868",
"I. c #CB797B",
"U. c #DD7573",
"Y. c #E56E64",
"T. c #EC6E60",
"R. c #E86969",
"E. c #F26A65",
"W. c #E37362",
"Q. c #EB7262",
"!. c #E7776A",
"~. c #F46874",
"^. c #F37678",
"/. c #ED7170",
"(. c #BA9306",
"). c #B4950F",
"_. c #AAAA00",
"`. c #B8A800",
"'. c #BD8E24",
"]. c #CA9B02",
"[. c #D29809",
"{. c #C99713",
"}. c #D3A100",
"|. c #CBA310",
" X c #C69C2B",
".X c #C6A426",
"XX c #BFA17F",
"oX c #CC976E",
"OX c #E79978",
"+X c #E3896E",
"@X c #D7A56C",
"#X c #D3A576",
"$X c #C6A37D",
"%X c #F0A27C",
"&X c #3A798B",
"*X c #4C5D8B",
"=X c #4B619D",
"-X c #5369A5",
";X c #807E82",
":X c #A57D82",
">X c #F47D81",
",X c #BD9780",
"<X c #B6AA9E",
"1X c #A492A3",
"2X c #B6ACAF",
"3X c #9792A5",
"4X c #D79B95",
"5X c #CA988D",
"6X c #C7A487",
"7X c #D5A798",
"8X c #D4AF89",
"9X c #C8B4B7",
"0X c #C5ACAF",
"qX c #ED9F88",
"wX c #F4D2AC",
"eX c #FCC7BC",
"rX c #E8D9BB",
"tX c #F1CFA9",
"yX c #DED4B3",
"uX c #B1B1C9",
"iX c #C4ABC6",
"pX c #CFBBCE",
"aX c #B3C0C9",
"sX c #EACAC9",
"dX c #F6CCC9",
"fX c #F7D5C1",
"gX c #F4D7D6",
"hX c #EBD2CE",
"jX c #EEE5D4",
"kX c #EAD6ED",
"lX c #D9E8FF",
"zX c #DFE0E4",
"xX c #E7ECEC",
"cX c #FAE6FC",
"vX c white",
"bX c #F7F5FC",
"nX c #F5ECEA",
"mX c #D5DBDC",
/* pixels */
"                                                                                                ",
"                                                                                                ",
"                                                                                                ",
"                                                                                                ",
"                                                                                                ",
"                                7 7 7 f 7 f                                                     ",
"                        Y h e c I.I.U.U.R.R.E.E.R.Y.U.P.9.                                      ",
"                        6 Y c z I.I.U.U.T./.E.E.!.K.+XU.w.l.l                                   ",
"                    j f 1.m.A.Q.V.V.S.S.T.T.L.L.Q.Q.A.A.W.!.g.M.                                ",
"                    6 D 7.M.E.A.+XV.F.S.T.T.B.B.T.!.G.A.N.N.o.p.h '                             ",
"                    d l Y.R.A.Q.B.B.T.S.T.T.L.D.Y.Q.G.G./.>XP.+XU                               ",
"                  bXl d ^.^.A.Q.B.B.Z.S.T.T.D.D./.Q.G.G.K.U.C.V.1X .                            ",
"                8 ` 2.v.R.K.Q.F.G.F.F.F.T.T.D.D.Z.Z.D.!.U.P./.U.mX                              ",
"                q w l.l.R./.Q.F.A.Z.Z.F.Z.T.W.D.E.Z.D.G.P.C.>X                                  ",
"                8 q M.k.U.P.A.Q.S.S.W.D.T.T.W.F.B.B.~.~.H.S.zX    4XuX3X  0                     ",
"                q 8 k.J.K.U.W.N.S.S.D.L.T.T.F.W.B.B.~.~.H.H.xX    z.*X*XM                       ",
"                5 ` 4.M.g.u.D.W.E.E.L.L.W.W.W.W.C.W.R.~.<.<.bX    j.lXlXxX  3Xh                 ",
"                7 j 3.4.y.h.D.!.E.Z.L.L.T.T.Y.W.!.+X~.R.<.<.xXbX  l.lXlXxX    k                 ",
"                7 f v.v.u.u.u.;.u.u.d.d.m.u.u.u.o.;.:.:.a.*.J.k.aX2XcXcXkXcX  f vX              ",
"                7 6 l.j.;.i.u.u.d.d.d.d.u.u.u.:.J.M.:.-.s.s.k.k.uXuXcXkXcXcXq -X                ",
"                h 7 w.w.p.g.g.g.0.t.y.y.y.y.t.r.-.>.:.:.z.z.t.n.^ ~ cXcXuXuX                    ",
"              vXh f e.e.m.m.-.-.s.s.g.f.g.i.f.f.t.a.:.-.j.z.9.s.~ U kXkXuX                      ",
"              vXh s j g p.p.z.h.x.x.y.i.i.i.a.a.a.a.>.>.f.f.....iXpXpXpX^                       ",
"              vXf j s f m.p.d.-.x.x.f.i.i.i.a.a.s.f.t.h.a.y.....iXiXuX                          ",
"              vXV n S C g y T T 9 9 L q E 9 j h 0 w U E T T P P h h l                           ",
"                V n C S y f E I I ` q I 9 E h j M 0 h U T I { P j h l                           ",
"                  cXd l *...%.#.@.@.$.$.r p @.+.y f ' ! 1X1XO O ' ' ]                           ",
"                  cXd d @.O.$.#.=.&.$.$.u p $.+.< < ' [ 1X1XO . ] [ F                           ",
"                    : + l b A $.+.+.i t XX6X$X8Xu J ,X6XjXjX$ # 4X5XG                           ",
"                    + + d s $.$.$.+.t r 7X8X$X$Xr p 6X6XnXjXX # 4X4XH                           ",
"                        y V Z Z Z J d z $X@X@X@XOXOXwXwXrXrXfXeXeX                              ",
"                        1 y ,.Z A $.t t #X#XoX@X+X%XwXwXrXyXeXfXdX                              ",
"                            X . 3 2 &.H i t @X@X%X+X8X,XrXfXeXeXG                               ",
"                            X # 2 2 J [ r p @XoXOXqX,X6XrXrXeXnX9.                              ",
"                            < 1 _._.p r x l t l 7X6XF [ G ] W b                                 ",
"                            < D _._.y r e d e d 4X7XD F G b b.,X                                ",
"                        U U ].(.}.].[.[...0.`.`.2XpX0X9X2.c.                                    ",
"                        E U (.|.].}.[.{.&.&._.`.9X2X9X0X2.b.                                    ",
"                        % X e...}.].'.).o X m m / / . X q.c.c. .                                ",
"                        + # e.[ }.}.).{.X # m m / ( X % q.q.l '                                 ",
"                        + % .X).Z K #.%.= = B B j Y 0 D o o m `                                 ",
"                        % + )..XK C #.O.: : B B j Y N q . * 0 |                                 ",
"                        * * #...'. X. O o * . . M 0 hXhXsXsX# . | |                             ",
"                        * * #.#. X'.. . o o & & N M gXsXgXgX. . q j                             ",
"                        5.Q # # o . ( ( -X=X) &Xo . <X<XdXdX> > W b.$ $                         ",
"                        Q Q & # . o ( / =X*X) &X@ @ <X<XdXsX> > c W $ $                         ",
"                    > , 4.7.v z g g _ } - - 4 % . X . . $ $ c W W W $ #                         ",
"                    , > 7.M.x ..y D } _ 3 - : : X & . . % # :Xv W b.X #                         ",
"                    O ; ;.o.8.6.;.X.3 -                     . . O o                             ",
"                    = ; o.;.6.8.<.X.- -                     w O . 5                             ",
"                        O O o o . O                                                             ",
"                        O = o * . .                                                             ",
"                                                                                                ",
"                                                                                                ",
"                                                                                                ",
"                                                                                                ",
"                                                                                                ",
"                                                                                                ",
"                                                                                                "
};
