/* XPM */
static char *result[] = {
/* columns rows colors chars-per-pixel */
"48 59 244 2 ",
"   c #030300",
".  c #0B0201",
"X  c #010A02",
"o  c #04020A",
"O  c #150300",
"+  c #1A0000",
"@  c #170508",
"#  c #001300",
"$  c #03130A",
"%  c #030317",
"&  c #25001A",
"*  c #240201",
"=  c #002300",
"-  c #3D3A16",
";  c #3C320E",
":  c #040323",
">  c #2E2938",
",  c #3A2B36",
"<  c #363134",
"1  c #3A3235",
"2  c #3C343A",
"3  c #36353D",
"4  c #37302C",
"5  c #1F3930",
"6  c #482B01",
"7  c #562608",
"8  c #583B0B",
"9  c #562919",
"0  c #443A18",
"q  c #563013",
"w  c #4C2D0F",
"e  c #682B00",
"r  c #69300A",
"t  c #62381E",
"y  c #7F2314",
"u  c #431E32",
"i  c #482A29",
"p  c #592927",
"a  c #473229",
"s  c #5A332C",
"d  c #4C2C35",
"f  c #472939",
"g  c #582737",
"h  c #46333B",
"j  c #473738",
"k  c #573639",
"l  c #753431",
"z  c #274C35",
"x  c #364933",
"c  c #1B4628",
"v  c #464119",
"b  c #7C5F13",
"n  c #76590D",
"m  c #454627",
"M  c #48443D",
"N  c #5E462A",
"B  c #774626",
"V  c #6E4E2D",
"C  c #796131",
"Z  c #372D47",
"A  c #2D3743",
"S  c #393947",
"D  c #26325C",
"F  c #3A3657",
"G  c #2F3B65",
"H  c #522D43",
"J  c #473745",
"K  c #423C51",
"L  c #543049",
"P  c #683944",
"I  c #6F3649",
"U  c #673666",
"Y  c #2B4645",
"T  c #2C4957",
"R  c #29677E",
"E  c #4E4652",
"W  c #74464E",
"Q  c #7A4654",
"!  c #775857",
"~  c #6D4F4A",
"^  c #7C6156",
"/  c #7D5E66",
"(  c #5D6574",
")  c #565E6D",
"_  c #812516",
"`  c #8E3223",
"'  c #85373B",
"]  c #872B39",
"[  c #B13631",
"{  c #C73E36",
"}  c #995202",
"|  c #984719",
" . c #865314",
".. c #894508",
"X. c #854B2A",
"o. c #924B2D",
"O. c #945222",
"+. c #9B4736",
"@. c #8D5337",
"#. c #8A5032",
"$. c #AB4A3D",
"%. c #BB4B3D",
"&. c #B7493C",
"*. c #AA5539",
"=. c #A3563B",
"-. c #B2523B",
";. c #B15A3F",
":. c #A9512B",
">. c #A46232",
",. c #CD443C",
"<. c #8B3B44",
"1. c #903446",
"2. c #BC3F53",
"3. c #AF3449",
"4. c #CF2C49",
"5. c #995748",
"6. c #9C4756",
"7. c #985754",
"8. c #8D5151",
"9. c #A74A4B",
"0. c #B94C4A",
"q. c #B64A46",
"w. c #A75A47",
"e. c #B45443",
"r. c #B15049",
"t. c #B75946",
"y. c #A44A55",
"u. c #B84B50",
"i. c #B4495A",
"p. c #BC4356",
"a. c #A45455",
"s. c #AA5252",
"d. c #AC545B",
"f. c #A9585B",
"g. c #B65556",
"h. c #906656",
"j. c #AB614E",
"k. c #B15564",
"l. c #9E6166",
"z. c #B06C6A",
"x. c #C14255",
"c. c #CA534A",
"v. c #DB6D57",
"b. c #DD7550",
"n. c #EC6A56",
"m. c #EC6F5A",
"M. c #E56857",
"N. c #F26B5E",
"B. c #F96858",
"V. c #E4735B",
"C. c #EA745C",
"Z. c #E57554",
"A. c #F5715B",
"S. c #F1664F",
"D. c #DE6A67",
"F. c #DD7464",
"G. c #D87862",
"H. c #DC746C",
"J. c #CF7473",
"K. c #EB6E64",
"L. c #E86969",
"P. c #F76860",
"I. c #F96766",
"U. c #E47264",
"Y. c #E3726B",
"T. c #E97666",
"R. c #F47466",
"E. c #F57476",
"W. c #EE6D74",
"Q. c #DA545C",
"!. c #BD9E00",
"~. c #A99D15",
"^. c #BDA300",
"/. c #B1A41C",
"(. c #B59526",
"). c #AEA119",
"_. c #C99703",
"`. c #DB9213",
"'. c #D2880A",
"]. c #CAA700",
"[. c #D1A200",
"{. c #C1A132",
"}. c #E4961A",
"|. c #B99E57",
" X c #E39B47",
".X c #EDA551",
"XX c #CD9771",
"oX c #C9A76A",
"OX c #DDA16D",
"+X c #D6A57B",
"@X c #CDAA73",
"#X c #E0A470",
"$X c #337188",
"%X c #3B63A8",
"&X c #426AAF",
"*X c #8A7F90",
"=X c #E37E82",
"-X c #A499AA",
";X c #ACA8B8",
":X c #B8ACB9",
">X c #B7B4B9",
",X c #B4ADA7",
"<X c #9A99A8",
"1X c #DF8E94",
"2X c #DA9393",
"3X c #CE958A",
"4X c #E79999",
"5X c #E2958D",
"6X c #C8A587",
"7X c #D8A88B",
"8X c #C0B5B8",
"9X c #DCADA3",
"0X c #EBA4A4",
"qX c #F6BFB1",
"wX c #DFD2BF",
"eX c #DACDBC",
"rX c #FFCBBE",
"tX c #FCC7B8",
"yX c #F9D7B6",
"uX c #E8CCA4",
"iX c #AAB8C7",
"pX c #B9BAC8",
"aX c #B1ACC2",
"sX c #C2B8C9",
"dX c #DFD4C2",
"fX c #C5C1CF",
"gX c #E9DDCB",
"hX c #F4D4D0",
"jX c #F8E8D3",
"kX c #F7EED7",
"lX c #F9DFEC",
"zX c #E5DDF3",
"xX c #F5DDF5",
"cX c #EDE4EA",
"vX c #F6E8EB",
"bX c #FFFDE7",
"nX c #E9E7FA",
"mX c #FFECFD",
"MX c #F7EAF9",
"NX c #FFF3FF",
"BX c #FEFFFF",
"VX c #FCFCF5",
"CX c #ECF6FA",
"ZX c None",
/* pixels */
"ZXZXZXZXZXZXZXZXZXZXZXZXZXZXZXZXZXZXZXZXZXZXZXZXZXZXZXZXZXZXZXZXZXZXZXZXZXZXZXZXZXZXZXZXZXZXZXZX",
"ZXZXZXZXZXZXZXZXZXZXZXZXZXZXZXZXZXZXZXZXZXZXZXZXZXZXZXZXZXZXZXZXZXZXZXZXZXZXZXZXZXZXZXZXZXZXZXZX",
"ZXZXZXZXZXZXZXZXZXZXZXZXZXZXZXZXZXZXZXZXZXZXZXZXZXZXZXZXZXZXZXZXZXZXZXZXZXZXZXZXZXZXZXZXZXZXZXZX",
"ZXZXZXZXZXZXZXZXZXZXZXZXZXZXZXZXZXZXZXZXZXZXZXZXZXZXZXZXZXZXZXZXZXZXZXZXZXZXZXZXZXZXZXZXZXZXZXZX",
"ZXZXZXZXZXZXZXZXZXZXZXZXZXZXZXZXZXZXZXZXZXZXZXZXZXZXZXZXZXZXZXZXZXZXZXZXZXZXZXZXZXZXZXZXZXZXZXZX",
"ZXZXZXZXZXZXZXZXZXZXZXZXZXZXZXZXZXZXZXZXZXZXZXZXZXZXZXZXZXZXZXZXZXZXZXZXZXZXZXZXZXZXZXZXZXZXZXZX",
"ZXZXZXZXZXZXZXZXZXZXZXZXZXZXZXZXZXZXZXZXZXZXZXZXZXZXZXZXZXZXZXZXZXZXZXZXZXZXZXZXZXZXZXZXZXZXZXZX",
"ZXZXZXZXZXZXZXZXZXZXZXZXZXZXZXE < < < < < < 2 2 2 < 2 < < ZXZXZXZXZXZXZXZXZXZXZXZXZXZXZXZXZXZXZX",
"ZXZXZXZXZXZXZXZXZXZXZXZXZXZXZX4 < h < 2 2 2 2 2 2 2 3 2 2 ZXZXZXZXZXZXZXZXZXZXZXZXZXZXZXZXZXZXZX",
"ZXZXZXZXZXZXZXZXZXZXZXZXZXH J w.5.V.C.I.P.G.G.N.P.B.P.H.H.p s i d ZXZXZXZXZXZXZXZXZXZXZXZXZXZXZX",
"ZXZXZXZXZXZXZXZXZXZXZXZXZXf , =.=.V.V.I.I.G.G.N.K.P.P.H.J.p p s k ZXZXZXZXZXZXZXZXZXZXZXZXZXZXZX",
"ZXZXZXZXZXZXZXZXZXZXZXg H h.h.E.Y.R.n.v.V.F.F.N.N.N.N.F.D.J.XX8.8.H i ZXZXZXZXZXZXZXZXZXZXZXZXZX",
"ZXZXZXZXZXZXZXZXZXZXZXH g 8.8.L.D.P.K.V.T.F.F.K.N.N.N.F.F.z.XXl.l.f d ZXZXZXZXZXZXZXZXZXZXZXZXZX",
"ZXZXZXZXZXZXZXZXZXZXCXZ F B.B.=XW.T.U.b.b.K.U.P.N.m.m.V.v.Y.H.D.D.g p NXZXZXZXZXZXZXZXZXZXZXZXZX",
"ZXZXZXZXZXZXZXZXZXZXBXF F B.B.L.L.U.U.Z.b.U.U.N.K.m.C.V.V.F.D.J.=Xg p BXBXZXZXZXZXZXZXZXZXZXZXZX",
"ZXZXZXZXZXZXZXZXZXh h ;XpXI.I.L.Y.T.T.C.C.K.K.K.K.Z.V.Z.Z.P.S.E.L.k.7.< > BXZXZXZXZXZXZXZXZXZXZX",
"ZXZXZXZXZXZXZXZXZXf J iXiXI.I.F.Y.U.V.Z.b.K.K.K.K.V.V.Z.Z.n.n.I.E.6.f.S S BXZXZXZXZXZXZXZXZXZXZX",
"ZXZXZXZXZXZXZXA A ) ( f.a.MXgXT.T.M.A.T.K.K.K.K.K.U.V.V.V.S.A.I.I.y.d., 2 BXZXZXZXZXZXZXZXZXZXZX",
"ZXZXZXZXZXZXZXA A ( E l.6.kXvXv.v.m.n.M.M.T.K.U.Y.V.U.V.C.S.S.B.B.d.k.< 3 BXZXZXZXZXZXZXZXZXZXZX",
"ZXZXZXZXZXS > nXnXnXBX5.5.nXCX=.*.C.T.R.E.Y.U.Y.Y.H.H.U.F.A.N.c.c.9.d.f h BXZXZXZXZXZXZXZXZXZXZX",
"ZXZXZXZXZX1 J CXCXnXnX5.5.nXcXt.*.V.C.M.M.L.U.U.Y.Y.H.F.F.n.n.,.{ 9.a., h BXZXZXZXZXZXZXZXZXZXZX",
"ZXZXZXZXZXS S zXzXxXmX,X>Xi.k.$.+.e.e.q.c.-.-.0.0.u.0.r.r.%.t.&.%.f.f.i d ZXZXZXZXZXZXZXZXZXZXZX",
"ZXZXZXZXZXA S nXmXmXmX>X,Xi.i.g.g.-.r.$.q.-.-.0.0.u.0.r.e.&.%.%.%.d.a.i d BXZXZXZXZXZXZXZXZXZXZX",
"ZXZXZXZXZXZ K :X;XcXxXL U c.q.2.p.r.g.w.5.=.*.0.q.i.i.s.9.w.e.;.-.5.6.k d BXZXZXZXZXZXZXZXZXZXZX",
"ZXZXZXZXZXZ Z >XpXcXMXU U &.c.2.x.g.9.5.=.*.*.r.0.i.i.s.s.r.=.e.t.a.7.k i NXZXZXZXZXZXZXZXZXZXZX",
"ZXZXZXZXZXZXZXH H sXaXsX:Xl 1.y.f.7.7.x.i.e.*.9.s.q.c.&.e.r.g.6.f.L L a a BXZXZXZXZXZXZXZXZXZXZX",
"ZXZXZXZXZXZXZXH H ;XsX;XsXl 1.y.d.7.5.p.p.*.$.f.d.q.0.t.t.g.q.f.y.u f a j BXZXZXZXZXZXZXZXZXZXZX",
"ZXZXZXZXZXZXZXZXZXZ , E > H H , 4 j j i a K H f f D D Z > f f J H #.@.q q BXZXZXZXZXZXZXZXZXZXZX",
"ZXZXZXZXZXZXZXZXZXJ J , J E 2 J j a a a a Z J f , G D E L h d f , @.X.t q BXZXZXZXZXZXZXZXZXZXZX",
"ZXZXZXZXZXZXZXZXZXP ~ k W o % *X<XI I a i o.o.9 9 } } B B  . .>.O.; 0 kXZXZXZXZXZXZXZXZXZXZXZXZX",
"ZXZXZXZXZXZXZXZXZX! ~ Q I o o -X-XI 8.a a o.o.7 t ..} #.X.X. .r O.0 0 bXZXZXZXZXZXZXZXZXZXZXZXZX",
"ZXZXZXZXZXZXZXZXZXs B 2X2X. . lXvX1X1Xr 7 3X9XoXoXs a V C ! h.v - . . CXZXZXZXZXZXZXZXZXZXZXZXZX",
"ZXZXZXZXZXZXZXZXZXB B 0X2X  . vXvX4X4X7 r 3X7XXX+Xa a C V ! Q - -     BXZXZXZXZXZXZXZXZXZXZXZXZX",
"ZXZXZXZXZXZXZXZXZXZX6XyXtXgXdXgXdXuXyX@XoX6X6X+X+Xe e | | O.| s 9 VXVXZXZXZXZXZXZXZXZXZXZXZXZXZX",
"ZXZXZXZXZXZXZXZXZXZX6XyXtXeXgXdXdXyXyX|.@X6X7X+X+Xe e | :.| | s s VXZXZXZXZXZXZXZXZXZXZXZXZXZXZX",
"ZXZXZXZXZXZXZXZXZXZXZX~ N hXtXhXrX@X+XOX@X.X Xa s B B % o     NXmXZXZXZXZXZXZXZXZXZXZXZXZXZXZXZX",
"ZXZXZXZXZXZXZXZXZXZXZXN N tXtXtXqX7X+XOXoX.X Xp p C V % % X   mXZXZXZXZXZXZXZXZXZXZXZXZXZXZXZXZX",
"ZXZXZXZXZXZXZXZXZXZXZXZXVX' <.1.1.l l 4X4X- - 8 8 > S ~./.6 6 bXZXZXZXZXZXZXZXZXZXZXZXZXZXZXZXZX",
"ZXZXZXZXZXZXZXZXZXZXZXZXZX<.' ] ] +.' 0X5X0 - 6 6 S F ~.).8 8 bXbXZXZXZXZXZXZXZXZXZXZXZXZXZXZXZX",
"ZXZXZXZXZXZXZXZXZXZXZXZXZXNXmXQ P :X:XiXiX'.`.| | `.'.].[.].!.w q ZXZXZXZXZXZXZXZXZXZXZXZXZXZXZX",
"ZXZXZXZXZXZXZXZXZXZXZXZXZXZXNXP P aXsXiXiX`.}.| | `.'._._.!.].9 q ZXZXZXZXZXZXZXZXZXZXZXZXZXZXZX",
"ZXZXZXZXZXZXZXZXZXZXZXZXZXh h 6.6.    m a x x . . {.(.^.^.b b o @ ZXZXZXZXZXZXZXZXZXZXZXZXZXZXZX",
"ZXZXZXZXZXZXZXZXZXZXZXZXZXL h 6.y.  X m v x x O O (.(.^.].n b @ O ZXZXZXZXZXZXZXZXZXZXZXZXZXZXZX",
"ZXZXZXZXZXZXZXZXZXZXZXZXZXz 5 @ . wXwXtXrXT A     X.#.+.+._._.+ + ZXZXZXZXZXZXZXZXZXZXZXZXZXZXZX",
"ZXZXZXZXZXZXZXZXZXZXZXZXZXx Y O . gXjXqXhXY T . . @.#.o.+._._.+ + ZXZXZXZXZXZXZXZXZXZXZXZXZXZXZX",
"ZXZXZXZXZXZXZXZXZXZXZXZXZXE 1 . . 3X2X4X5Xx 1 J j + + {./.~ ! . . ZXZXZXZXZXZXZXZXZXZXZXZXZXZXZX",
"ZXZXZXZXZXZXZXZXZXZXZXZXZXj M   . 0X2X5XXXk M h h * + )./.V ! . . ZXZXZXZXZXZXZXZXZXZXZXZXZXZXZX",
"ZXZXZXZXZXZXZXZXZXZXZXZXZXZXZXz c X . # # $X$X%X%X$ X $ X # X ZXZXZXZXZXZXZXZXZXZXZXZXZXZXZXZXZX",
"ZXZXZXZXZXZXZXZXZXZXZXZXZXZXZXz z X . # # $X$X%X&X$ $   o X X ZXZXZXZXZXZXZXZXZXZXZXZXZXZXZXZXZX",
"ZXZXZXZXZXZXZXZXZXZXZXZXZXZXZX# # p.3.4.4.[ q._ ` & & ZXZXZXZXZXZXZXZXZXZXZXZXZXZXZXZXZXZXZXZXZX",
"ZXZXZXZXZXZXZXZXZXZXZXZXZXZXZX# # 3.2.4.4.%.[ ` _ & & ZXZXZXZXZXZXZXZXZXZXZXZXZXZXZXZXZXZXZXZXZX",
"ZXZXZXZXZXZXZXZXZXZXZXZXZXZXZXZXZX. .   .     % : ZXZXZXZXZXZXZXZXZXZXZXZXZXZXZXZXZXZXZXZXZXZXZX",
"ZXZXZXZXZXZXZXZXZXZXZXZXZXZXZXZXZX. O   . X   : % ZXZXZXZXZXZXZXZXZXZXZXZXZXZXZXZXZXZXZXZXZXZXZX",
"ZXZXZXZXZXZXZXZXZXZXZXZXZXZXZXZXZXZXZXZXZXZXZXZXZXZXZXZXZXZXZXZXZXZXZXZXZXZXZXZXZXZXZXZXZXZXZXZX",
"ZXZXZXZXZXZXZXZXZXZXZXZXZXZXZXZXZXZXZXZXZXZXZXZXZXZXZXZXZXZXZXZXZXZXZXZXZXZXZXZXZXZXZXZXZXZXZXZX",
"ZXZXZXZXZXZXZXZXZXZXZXZXZXZXZXZXZXZXZXZXZXZXZXZXZXZXZXZXZXZXZXZXZXZXZXZXZXZXZXZXZXZXZXZXZXZXZXZX",
"ZXZXZXZXZXZXZXZXZXZXZXZXZXZXZXZXZXZXZXZXZXZXZXZXZXZXZXZXZXZXZXZXZXZXZXZXZXZXZXZXZXZXZXZXZXZXZXZX",
"ZXZXZXZXZXZXZXZXZXZXZXZXZXZXZXZXZXZXZXZXZXZXZXZXZXZXZXZXZXZXZXZXZXZXZXZXZXZXZXZXZXZXZXZXZXZXZXZX",
"ZXZXZXZXZXZXZXZXZXZXZXZXZXZXZXZXZXZXZXZXZXZXZXZXZXZXZXZXZXZXZXZXZXZXZXZXZXZXZXZXZXZXZXZXZXZXZXZX"
};
