/* XPM */
static char * background_xpm[] = {
"32 32 362 2",
"  	c #8DC73F",
". 	c #8EC840",
"+ 	c #8DC741",
"@ 	c #8EC740",
"# 	c #89C33E",
"$ 	c #8DC740",
"% 	c #96CA47",
"& 	c #89C23E",
"* 	c #83BD3E",
"= 	c #8AC33F",
"- 	c #95C945",
"; 	c #95CA46",
"> 	c #79B43F",
", 	c #71AE3E",
"' 	c #8DC640",
") 	c #96CA46",
"! 	c #8BC53F",
"~ 	c #83BD3F",
"{ 	c #8AC33E",
"] 	c #94C945",
"^ 	c #88C140",
"/ 	c #6BA93F",
"( 	c #86BF3F",
"_ 	c #97CA47",
": 	c #8CC641",
"< 	c #85C03F",
"[ 	c #8BC540",
"} 	c #8DC840",
"| 	c #91C842",
"1 	c #84BD40",
"2 	c #8CC540",
"3 	c #8CC640",
"4 	c #8BC640",
"5 	c #6EAC3E",
"6 	c #81B940",
"7 	c #91C942",
"8 	c #8EC83F",
"9 	c #8AC43F",
"0 	c #81BD40",
"a 	c #97CB48",
"b 	c #8CC63F",
"c 	c #7BB640",
"d 	c #70AD3E",
"e 	c #93C944",
"f 	c #92C943",
"g 	c #8BC43F",
"h 	c #96CC59",
"i 	c #90C842",
"j 	c #91C943",
"k 	c #AFD576",
"l 	c #8EC744",
"m 	c #74B140",
"n 	c #79B43E",
"o 	c #8CC53F",
"p 	c #80BB3F",
"q 	c #78B53D",
"r 	c #88C340",
"s 	c #88C33F",
"t 	c #BDD888",
"u 	c #98CB5C",
"v 	c #89C441",
"w 	c #ADD279",
"x 	c #8FC845",
"y 	c #C8DF93",
"z 	c #90C946",
"A 	c #7EB83F",
"B 	c #86BF3E",
"C 	c #8DC83F",
"D 	c #8AC340",
"E 	c #73AE3F",
"F 	c #7EB740",
"G 	c #74B040",
"H 	c #7CB044",
"I 	c #75B241",
"J 	c #76B040",
"K 	c #93C850",
"L 	c #7FBA40",
"M 	c #73B040",
"N 	c #87C140",
"O 	c #9FCE69",
"P 	c #BBDA85",
"Q 	c #88C23F",
"R 	c #95CA54",
"S 	c #B8D97D",
"T 	c #94CA45",
"U 	c #C3DE90",
"V 	c #97CA5C",
"W 	c #7DB93F",
"X 	c #72AE3E",
"Y 	c #B7D97D",
"Z 	c #94C953",
"` 	c #87C13F",
" .	c #85BF3D",
"..	c #7CB83E",
"+.	c #8DC641",
"@.	c #8EC73F",
"#.	c #9CCA64",
"$.	c #82BD40",
"%.	c #7FBA3F",
"&.	c #9BCA63",
"*.	c #8EC742",
"=.	c #7DB83F",
"-.	c #83BE3F",
";.	c #7AB63F",
">.	c #87C23F",
",.	c #7AB53E",
"'.	c #73B03E",
").	c #7CB83D",
"!.	c #6DA93E",
"~.	c #7DB841",
"{.	c #96CB47",
"].	c #84BE3E",
"^.	c #80BC3F",
"/.	c #86C140",
"(.	c #7BB440",
"_.	c #80BB40",
":.	c #76AF3E",
"<.	c #82BC3F",
"[.	c #BDDA85",
"}.	c #85BA5C",
"|.	c #6FAA3F",
"1.	c #89C23F",
"2.	c #83BE3E",
"3.	c #8BC440",
"4.	c #BEDB86",
"5.	c #96CB57",
"6.	c #89C340",
"7.	c #71AB3C",
"8.	c #9ACA63",
"9.	c #96CA59",
"0.	c #98CB49",
"a.	c #94C758",
"b.	c #85BF41",
"c.	c #92C655",
"d.	c #A7D168",
"e.	c #BEDA8B",
"f.	c #9BCD63",
"g.	c #91C94C",
"h.	c #94C85A",
"i.	c #89C43F",
"j.	c #7CB540",
"k.	c #74AF41",
"l.	c #8AC440",
"m.	c #84BF42",
"n.	c #8AC53F",
"o.	c #97CA59",
"p.	c #A2CA6A",
"q.	c #80BA41",
"r.	c #ABD274",
"s.	c #ADD373",
"t.	c #94C946",
"u.	c #86C13F",
"v.	c #74AF3E",
"w.	c #81BB40",
"x.	c #79B541",
"y.	c #89C241",
"z.	c #89C33F",
"A.	c #75B23F",
"B.	c #77B13E",
"C.	c #98CB5D",
"D.	c #BEDB87",
"E.	c #7DB840",
"F.	c #73AF40",
"G.	c #8BC541",
"H.	c #7DB740",
"I.	c #98CB5A",
"J.	c #C2DD8C",
"K.	c #8ABE56",
"L.	c #8DC642",
"M.	c #8EC34F",
"N.	c #9DCD62",
"O.	c #88C240",
"P.	c #87BF44",
"Q.	c #7FB93E",
"R.	c #C4DE8D",
"S.	c #99CB5D",
"T.	c #BAD886",
"U.	c #97CB5B",
"V.	c #8AC23F",
"W.	c #94C944",
"X.	c #88C23E",
"Y.	c #BDDB84",
"Z.	c #90C945",
"`.	c #8FC647",
" +	c #A0CF62",
".+	c #AED574",
"++	c #72AF3D",
"@+	c #96C945",
"#+	c #98CB48",
"$+	c #7DB73F",
"%+	c #7BB63D",
"&+	c #9BCB65",
"*+	c #8CC442",
"=+	c #9CCD5F",
"-+	c #AED286",
";+	c #8CC741",
">+	c #8FC74A",
",+	c #98C95F",
"'+	c #96CA57",
")+	c #96CB55",
"!+	c #92C546",
"~+	c #8CC73F",
"{+	c #88C341",
"]+	c #B5D574",
"^+	c #9CCC68",
"/+	c #89C240",
"(+	c #95CA56",
"_+	c #B9D783",
":+	c #8CC740",
"<+	c #7BB63E",
"[+	c #81BD3F",
"}+	c #70AD3C",
"|+	c #BED885",
"1+	c #87BF47",
"2+	c #63A03E",
"3+	c #9AC865",
"4+	c #BBD987",
"5+	c #A8D06C",
"6+	c #A9D06B",
"7+	c #6FAB3F",
"8+	c #C4DC8E",
"9+	c #97CA5E",
"0+	c #80BA3E",
"a+	c #86C040",
"b+	c #73AF3E",
"c+	c #77B23F",
"d+	c #8EC841",
"e+	c #83BE40",
"f+	c #84BF3F",
"g+	c #86C03F",
"h+	c #84BE40",
"i+	c #6FAC40",
"j+	c #8BC441",
"k+	c #92C944",
"l+	c #7DB63F",
"m+	c #A2D067",
"n+	c #B4D77C",
"o+	c #83BC40",
"p+	c #82BB40",
"q+	c #85BE40",
"r+	c #75B33F",
"s+	c #76B341",
"t+	c #7FB745",
"u+	c #8EC743",
"v+	c #92CA4F",
"w+	c #94CA51",
"x+	c #7FBB41",
"y+	c #70AE3F",
"z+	c #7FB941",
"A+	c #88C241",
"B+	c #8DC63F",
"C+	c #9BCD5B",
"D+	c #8FC846",
"E+	c #C1DB8E",
"F+	c #ACD172",
"G+	c #A9D06F",
"H+	c #7DB93E",
"I+	c #64A13E",
"J+	c #87C23E",
"K+	c #78B43F",
"L+	c #7CB73F",
"M+	c #93C845",
"N+	c #C3DB92",
"O+	c #73AF3F",
"P+	c #96C946",
"Q+	c #84BF3E",
"R+	c #76B23F",
"S+	c #7FBB40",
"T+	c #8FC840",
"U+	c #B8D874",
"V+	c #9BCC62",
"W+	c #7EB73F",
"X+	c #72AE3D",
"Y+	c #9CCB68",
"Z+	c #7FBA3E",
"`+	c #7AB641",
" @	c #6FAB3E",
".@	c #95CA47",
"+@	c #83BF3F",
"@@	c #9BCB67",
"#@	c #88C13E",
"$@	c #BCDA82",
"%@	c #97CC59",
"&@	c #BDD886",
"*@	c #90C846",
"=@	c #81BC3E",
"-@	c #72AD3F",
";@	c #A5D16A",
">@	c #84BC43",
",@	c #91C545",
"'@	c #91C847",
")@	c #BCDA7C",
"!@	c #9ACD5E",
"~@	c #76B13D",
"{@	c #7AB640",
"]@	c #95C85C",
"^@	c #82BD3E",
"/@	c #B3D47F",
"(@	c #AFD578",
"_@	c #9BCD66",
":@	c #C1DC8C",
"<@	c #94C660",
"[@	c #8AC441",
"}@	c #80BA42",
"|@	c #7EB93F",
"1@	c #7CB640",
"2@	c #84BD3F",
"3@	c #76B33F",
"4@	c #71AC3F",
"5@	c #A9D36B",
"6@	c #92CA4D",
"7@	c #7BB541",
"8@	c #C1DC8D",
"9@	c #8CC346",
"0@	c #94CA52",
"a@	c #BEDB89",
"b@	c #B2D380",
"c@	c #8FC745",
"d@	c #A1CF66",
"e@	c #B2D37D",
"f@	c #7AB441",
"g@	c #8AC341",
"h@	c #84BF40",
"i@	c #AACD78",
"j@	c #94C955",
"k@	c #96C85C",
"l@	c #93C843",
"m@	c #93CA44",
"n@	c #93C853",
"o@	c #95CA55",
"p@	c #AACE75",
"q@	c #8AC342",
"r@	c #92C751",
"s@	c #72AE3F",
"t@	c #7AB540",
"u@	c #74B23F",
"v@	c #76B140",
"w@	c #B3D67D",
"x@	c #AAD26F",
"y@	c #82BE41",
"z@	c #77B341",
"A@	c #91C84C",
"B@	c #A6CF6C",
"C@	c #87C240",
"D@	c #8AC541",
"E@	c #86C23E",
"F@	c #83BD3D",
"G@	c #87C040",
"H@	c #90C84C",
"I@	c #85BF3F",
"J@	c #82BC40",
"K@	c #8CC53E",
"L@	c #74B03F",
"M@	c #74B13F",
"N@	c #75B13E",
"O@	c #89C341",
"P@	c #6CA83C",
"Q@	c #95CA45",
"R@	c #75AE3F",
"S@	c #74AF3F",
"T@	c #8DC73E",
"U@	c #8FC741",
"    . + @ .   # $   . % . . @     & . . $ + *     $ =   . . - @ ",
";   > , ' . )     ! ~ @ {   ]       . . ^ / (   _ $ @   : < [   ",
"} | 1 2 . } 3 . 4 5 6 7 8 . . 9 0   a . $ 3 b . } . . . c d ! . ",
". e } f . . g . h [ i j 8 k l m n . . $   } o + p q . . 3 $ } 8 ",
". r p f . 8 s $ t u . v 8 w x 2 $ . . ' b y z 2 A B . . . C ) D ",
"$ E F   $ G H @     I J ' g b . = $ . . . K     } . . % 8 L M $ ",
"  $ 8 f f N $   O P Q R S . T @     U V W X   &     . Y Z A `   ",
"%   . . . .  ...+ +.@.+ #.@.@     $ $.' %.=         & &.*.8 < =.",
"-.;.@ + >.9 ,.p !   _ . s '.).  g !.~.. _ } {.].^./..   . $ (._.",
":.<.[.}.|.!       1.. . [ 2.b _ $ 3.= 4.5..   6.7.g . _ . 9   $ ",
". . 8.2 3 9.4.0.. . . . . D . . . . . a.9 b.4 . . . . . . . T . ",
"c.d.e.f.g.3 h.i.%.< . f e . . @ . 6.. . j.k.2     1.. l.m.n.@.  ",
"o.p.q.r.s.t.| u.v.w.x.y.. . z.$ A.B.) . b . C.D..   . E.F.G.. . ",
". E H.' I.J.@     ` K.L.. .   $ ` b . . . . $ M.J.N.T $ . . O.. ",
"  ' . .   P.Q.3 R.S.T.U.V.    W.  X.. . # Y.Z.b `. +.+{ + E ++  ",
"  @+. #+  $+%+&+*+  % @ =+. $ @     } $ + -+;+  ].>+,+'+)+!+$   ",
"  ~+v {+  .   ]+^+/+. (+_+:+<+$ ;   [+}+N |+1+2+3+4+b 5+6+      ",
"  L 7+! . =       8+9+. + d 0+    = ^ a+$   b 2 4 b+c+  d+3     ",
"  3 $ . . 8 . . z.e+E./+. 2 } . $ = . f+g+%.. . 2 h+2 . H.i+j+. ",
"o . k+. . . . . . ` l+3 k+. . . 6.m+n+o+p+Q . . . ) . 3 q+6.3.. ",
"!   j . _.r+$     . . . f 3.} s+t+u+^+v+w+. r 0+$   x+y+z.. o   ",
". . g $ z+` . C A+% B+b . . . 9 C+D+E+F+G+3 B.H+3 _ = D $ . . . ",
"    $ . . . e+I+J+  $ 6.K+L+  M+N+$ =.O+  . P+  ~+Q+%.  /+A+R+S+",
"#   . . @   ! l.  T+e g %.g   @ U+V+W+6.  . 1.  ! X+o+P+} Y+Z+! ",
"  $ } $ ; `+ @$ .@  } . . . ~++@@@#@$ . . .     & $ $@%@D &@*@  ",
"  =@-@>.;@>@,@'@)@!@. ) $ b -@~@      -.{@8   [     ]@l.^@.     ",
"  O.^ + /@(@_@:@<@B+[@}@|@. 2 @.3   @ 1@2@$ 3@4@$ 5@6@G 7@8@9@  ",
". [ f 0@a@b@c@A.b+d@e@f@^ . . a ! C g@8   9 h@! $ i@j@D . k@@   ",
"l@2 m@$ n@& o@p@2 q@r@@ . 3.. . 3 s@t@. . ! . ' u@v@8 2 w@x@. . ",
"7 . y@z@O.. A@B@C@} . a . 3 8 r $ N ' 3 b D@E@F@G@' . . H@D+O.. ",
"$ = I@J@b . K@L@v.$ . . . . M@N@b   . $ $ O@P@1.Q@  b ! :+R@S@$ ",
"    . . . g ' z.$   b [ . . /+T@  b g .   ] U@      $ $ . z.$   "};
