/* XPM */
static char *result[] = {
/* columns rows colors chars-per-pixel */
"35 60 204 2 ",
"   c #0C0E0D",
".  c #0B130C",
"X  c #0B1C0C",
"o  c #111F12",
"O  c #0A250B",
"+  c #072D09",
"@  c #0A2B0B",
"#  c #063A07",
"$  c #073509",
"%  c #09330B",
"&  c #073C09",
"*  c #0A3C0B",
"=  c #14390B",
"-  c #0E2210",
";  c #152F15",
":  c #143713",
">  c #2F3709",
",  c #252B10",
"<  c #323B0A",
"1  c #202320",
"2  c #2F3C30",
"3  c #613904",
"4  c #064607",
"5  c #07440A",
"6  c #0B440A",
"7  c #064C0A",
"8  c #0C4C0A",
"9  c #044F07",
"0  c #164609",
"q  c #055C07",
"w  c #055409",
"e  c #0B5509",
"r  c #045C09",
"t  c #0C5B0A",
"y  c #065506",
"u  c #10500E",
"i  c #184A18",
"p  c #234908",
"a  c #365508",
"s  c #3C4E05",
"d  c #016D07",
"f  c #086C07",
"g  c #036309",
"h  c #0B620A",
"j  c #026B08",
"k  c #0C6C0A",
"l  c #1D6B0A",
"z  c #18650B",
"x  c #047407",
"c  c #087A07",
"v  c #0C730A",
"b  c #0B7D08",
"n  c #1B7707",
"m  c #206E06",
"M  c #3A6307",
"N  c #227C08",
"B  c #257607",
"V  c #337306",
"C  c #1F4621",
"Z  c #235E24",
"A  c #35492B",
"S  c #2B6E2C",
"D  c #575B04",
"F  c #50500D",
"G  c #665204",
"H  c #456208",
"J  c #4B6406",
"K  c #576B06",
"L  c #4A7007",
"P  c #447B05",
"I  c #5C7505",
"U  c #597905",
"Y  c #5A7416",
"T  c #6B6804",
"R  c #667C02",
"E  c #6B7C00",
"W  c #737702",
"Q  c #717801",
"!  c #787C0E",
"~  c #71670D",
"^  c #5F6321",
"/  c #4B5947",
"(  c #5A6651",
")  c #A61702",
"_  c #BC2302",
"`  c #B73703",
"'  c #AD2F03",
"]  c #C11002",
"[  c #D51F01",
"{  c #D91101",
"}  c #EB0601",
"|  c #F70400",
" . c #FC0100",
".. c #F30B06",
"X. c #E51201",
"o. c #F72C17",
"O. c #845B03",
"+. c #F55D0B",
"@. c #F85E04",
"#. c #F34F11",
"$. c #F7690C",
"%. c #F86906",
"&. c #F97906",
"*. c #F56B19",
"=. c #EF7911",
"-. c #068307",
";. c #068C06",
":. c #0B8E07",
">. c #0A8308",
",. c #0C8D09",
"<. c #178509",
"1. c #079307",
"2. c #099507",
"3. c #089C06",
"4. c #0C9308",
"5. c #0C9C08",
"6. c #079B06",
"7. c #159C07",
"8. c #178413",
"9. c #218C1D",
"0. c #2F9105",
"q. c #0BA406",
"w. c #0AAB05",
"e. c #1FAE03",
"r. c #0AB404",
"t. c #0ABD03",
"y. c #0EBD08",
"u. c #0EB209",
"i. c #10BE0B",
"p. c #16B704",
"a. c #18BA14",
"s. c #1EA31A",
"d. c #29A803",
"f. c #2CB904",
"g. c #21BE1E",
"h. c #2A902C",
"j. c #359C39",
"k. c #329835",
"l. c #2CBD2B",
"z. c #29B22A",
"x. c #31BE33",
"c. c #3CBE3C",
"v. c #548C01",
"b. c #4B9202",
"n. c #428A04",
"m. c #618801",
"M. c #658001",
"N. c #0CC305",
"B. c #0DCC06",
"V. c #10DC07",
"C. c #13D405",
"Z. c #15CF05",
"A. c #3CB541",
"S. c #3EBE43",
"D. c #7E8047",
"F. c #41BD42",
"G. c #B2BC1A",
"H. c #8C8F35",
"J. c #888A28",
"K. c #97AD26",
"L. c #B4B625",
"P. c #F98506",
"I. c #FB9B06",
"U. c #FC9605",
"Y. c #EA910D",
"T. c #DEA00A",
"R. c #DCBC0B",
"E. c #FCAA05",
"W. c #FBA607",
"Q. c #EFBB07",
"!. c #FCB403",
"~. c #FEBA04",
"^. c #FCB30B",
"/. c #FCBA0C",
"(. c #F4B606",
"). c #FAAF18",
"_. c #FABA13",
"`. c #F4B51B",
"'. c #F6832B",
"]. c #F79F31",
"[. c #E88A3E",
"{. c #F9B827",
"}. c #F8B53C",
"|. c #ACC221",
" X c #FCC21E",
".X c #F8C22A",
"XX c #F9C638",
"oX c #91934E",
"OX c #AB9741",
"+X c #9EA05B",
"@X c #C09A47",
"#X c #F8B843",
"$X c #F5B054",
"%X c #F8CA46",
"&X c #FACC57",
"*X c #EED263",
"=X c #F9D777",
"-X c #8F9384",
";X c #BABB9D",
":X c #C5C69B",
">X c #F7D99B",
",X c #F9DA87",
"<X c #E4E4E4",
"1X c None",
/* pixels */
"1X1X1X1X1X1X1X1X1X1X1X1X1X1X1X1X1X1X1X1X1X1X1X1X1X1X1X1X1X1X1X1X1X1X1X",
"1X1X1X1X1X1X1X1X1X1X1X1X1X1X1X1X1X1X1X1X1X1X1X1X1X1X1X1X1X1X1X1X1X1X1X",
"1X1X1X1X1X1X1X1X1X1X1X1X1X1X1X1X1X1X1X1X1X1X1X1X1X1X1X1X1X1X1X1X1X1X1X",
"1X1X1X1X1X1X1X1X1X1X1X1X1X1X1X1X1X1X1X1X1X1X1X1X1X1X1X1X1X1X1X1X1X1X1X",
"1X1X1X1X1X1X1X1X1X1X1X1X1X1X1X1X1X* 1X1X1X1X1X1X1X1X1X1X1X1X1X1X1X1X1X",
"1X1X1X1X1X1X1X1X1X1X1X1XW ! 1X1XX 5 O 1X1X1XW J.1X1X1X1X1X1X1X1X1X1X1X",
"1X1X1X1X1X1X1X1X1X1X1X1XW Q 1X1X4 -.q % -XH.Q +X<X1X1X1X1X1X1X1X1X1X1X",
"1X1X1X1X1X1X1X1X1X1X1X, T Q < # -.r.q.q A ~ E ^ 1X1X1X1X1X1X1X1X1X1X1X",
"1X1X1X1X1X1X1X1X1X1XO $ > W R <.t.t.t.w.P Q D @ % X 1X1X1X1X1X1X1X1X1X",
"1X1X1X1X1X1X1X1X1X1X& f > W R e.t.;.r.t.b.Q D 0 x % w 1X1X1X1X1X1X1X1X",
"1X1X1X1X1X1X1X1X1XO c q.= K M.d.t.c r.t.b.Q p h w.h r 1X1X1X1X1X1X1X1X",
"1X1X1X1X1X1X1X1X1X$ 6.q.c n.Q v.B.x y.f.M.Q :.>.r.-.& r 1X1X1X1X1X1X1X",
"1X1X1X1X1X1X1X1XX y w.-.6.d.R m.V.h B.f.Q v.r.-.6.6.w + g 1X1X1X1X1X1X",
"1X1X1X1X1X1X1X1XX f r.1.t.t.v.M.V.e N.f.E d.t.3.1.r.r O h 1X1X1X1X1X1X",
"1X1X1X1X1X1X1X1XX f t.r.r.t.p.Z.V.t N.C.p.t.t.r.r.r.r O g 1X1X1X1X1X1X",
"1X1X1X1X1X1X1X1XX f t.r.1.t.N.N.B.e p.B.t.t.w.6.N.r.r - h 1X1X1X1X1X1X",
"1X1X1X1X1X1X1X1XX w w.6.:.t.t.t.B.e y.N.t.t.w.-.w.6.& O g 1X1X1X1X1X1X",
"1X1X1X1X1X1X1X1X1XO ,.,.w.t.t.t.N.8 w.t.N.r.r.1.1.c O O g 1X1X1X1X1X1X",
"1X1X1X1X1X1X1X1X1X1Xk t U X.G 7.t.7 q.t.V _ ` l k e   X r 1X1X1X1X1X1X",
"1X1X1X1X1X1X1X1X1X1Xt 8 I | { G y.9 w.0.' | ` l e e .   $ 1X1X1X1X1X1X",
"1X1X1X1X1X1X1X1X1X1Xt % I }  .[ p.4 q.U  . .` l + k w X $ 1X1X1X1X1X1X",
"1X1X1X1X1X1X1X1X1Xc t @ <.)  .[ q.% c R  . .s k . v g + q 1X1X1X1X1X1X",
"1X1X1X1X1X1X1X1X1X% 9 O y 3 | [ b X 4 K  .] q * + 9 O g w 1X1X1X1X1X1X",
"1X1X1X1X1X1X1X1XD./ t % t 7.G ~ u . O M O.V 4.O e l 0 w @ 1X1X1X1X1X1X",
"1X1X1X1X1X1X1X1X:XoXY H 0 n 7.w.# . O v p.n B H L a t w O 1X1X1X1X1X1X",
"1X1X1X1X1X1X1X1X1X;X( B J J P d.<.0 k 7.0.J M n t 6 j w X 1X1X1X1X1X1X",
"1X1X1X1X1X1X1X1X1X1X. w >.X = a 0.:.<.L p X 5 :.% 6 f $ . 1X1X1X1X1X1X",
"1X1X1X1X1X1X1X1X1X1X@ * >.6   X 6 @ O 6     ,.h % q f .   1X1X1X1X1X1X",
"1X1X1X1X1X1X1X1X1X  5 + y 6 e O .     . u @ v $ & d j & . 1X1X1X1X1X1X",
"1X1X1X1X1X1X1X2 C w g w $ h 4.= X   . X v ,.& & g d d j *   1X1X1X1X1X",
"1X1X1X1X1X1X4 r g d d d 8 # >.t v X 6 k v h $ g d j j j w X . 1X1X1X1X",
"1X1X1X1X1X4 d d 4 w d d x $ 9 4.t.8 q.r.x O j d w O % w j g *   1X1X1X",
"1X1X1X  5 j j 5   % j d d r % 9 3.5 5.c # & d d &   1XO g j r   1X1X1X",
"1X1XO 5 j j r O   O j d d d r $ & O 6 # 4 d d d 5 1X1X@ j j g X 1X1X1X",
"1X- w 7 j j w % 1 2 * g d d j r % + % 5 j d d r @ 1X1XO g 7 5 * X 1X1X",
"1X( @   w r * * 1 1X. w d d d d d d d d d d g @ . 1X1XO w & % X O 1X1X",
"1X1X1X  - -   1X1X1XX w d d d d d d d d d d w + 1X1X1X. o . 1X1X1X1X1X",
"1X1X1X1X1X1X1X1X1X1X. w x -.x d x -.x x -.-.k X 1X1X1X1X1X1X1X1X1X1X1X",
"1X1X1X1X1X1X1X1X1X1XO f 6.r.6.1.q.r.2.3.r.b X 1X1X1X1X1X1X1X1X1X1X1X1X",
"1X1X1X1X1X1X1X1X1X1XO :.N.t.t.t.t.t.t.t.r.* 8.1X1X1X1X1X1X1X1X1X1X1X1X",
"1X1X1X1X1X1X1X1X1X1XO 4.y.t.N.t.t.t.t.t.r.* a.1X1X1X1X1X1X1X1X1X1X1X1X",
"1X1X1X1X1X1X1X1X1X1XO ,.y.t.t.t.t.t.t.t.r.6 1X1X1X1X1X1X1X1X1X1X1X1X1X",
"1X1X1X1X1X1X1X1X1X1XX t t.t.t.t.N.t.t.t.r.6 1X1X1X1X1X1X1X1X1X1X1X1X1X",
"1X1X1X1X1X1X1X1X1X1X8.6 w.N.y.y.t.t.t.t.w.* 1X1X1X1X1X1X1X1X1X1X1X1X1X",
"1X1X1X1X1X1X1X1X1X1Xs.u u.N.x.x.N.t.t.N.a.: 1X1X1X1X1X1X1X1X1X1X1X1X1X",
"1X1X1X1X1X1X1X1X1X1X1X; z.S.S.S.l.z.a.x.c.S   1X1X1X1X1X1X1X1X1X1X1X1X",
"1X1X1X1X1X1X1X1X1X1X1X; A.S.S.S.S.S.S.S.S.S.t o 1X1X1X1X1X1X1X1X1X1X1X",
"1X1X1X1X1X1X1X1X1X1X1Xi k.j.j.A.S.S.S.S.S.S.h.o 1X1X1X1X1X1X1X1X1X1X1X",
"1X1X1X1X1X1X1X1X1X1X1X9.: i i j.F.S.S.S.S.S.j.* 1X1X1X1X1X1X1X1X1X1X1X",
"1X1X1X1X1X1X1X1X1X1X1X1X1X1X: Z S.S.S.S.S.S.x.7.u 1X1X1X1X1X1X1X1X1X1X",
"1X1X1X1X1X1X1X1X1X1X1X1X1X1X1X- l.S.S.F.F.c.S.l.t 1X1X1X1X1X1X1X1X1X1X",
"1X1X1X1X1X1X1X1X1X1X1XQ.1X1XY.Y.R.G.K.L.=.T.Q.|.S F 1X1X1X1X1X1X1X1X1X",
"1X1X1X1X1X1X1X^.1X1XXX^.E.E.[.*.T.!.#.=.^.^. X*XOX@X'./.1X1X1X1X1X1X1X",
"1X1X1X1X1X1X1X#.>X_.&X{.!..X{.`.#X$.].$XE.E.).).~.'.o./.1X1X1X1X1X1X1X",
"1X1X1X1X1X1X1X1X1X1X_.E.!.=XXX^.&X}.+.*.P.I.E.E.~.U.P.~.1X1X1X1X1X1X1X",
"1X1X1X1X1X1X1X1X1X1XXX!.I.,X}.%.U.%.$.%.!.@.U.&.!.%...{.1X1X1X1X1X1X1X",
"1X1X1X1X1X1X1X1X1X1X1X1X#.>X%XE.P.!.&.{..X!.~.!.~.1X1X1X1X1X1X1X1X1X1X",
"1X1X1X1X1X1X1X1X1X1X1X1X1X1X1X X~.~..X.X&X_.+.`.1X1X1X1X1X1X1X1X1X1X1X",
"1X1X1X1X1X1X1X1X1X1X1X1X1X1X1X1X1X1X1X1X1X1X1X1X1X1X1X1X1X1X1X1X1X1X1X",
"1X1X1X1X1X1X1X1X1X1X1X1X1X1X1X1X1X1X1X1X1X1X1X1X1X1X1X1X1X1X1X1X1X1X1X"
};
